<?xml version="1.0" standalone="no"?>
<!DOCTYPE svg PUBLIC "-//W3C//DTD SVG 1.1//EN" "http://www.w3.org/Graphics/SVG/1.1/DTD/svg11.dtd" >
<svg xmlns="http://www.w3.org/2000/svg">
<metadata>
Created by FontPrep 20130207 at Mon Jan  5 16:13:08 2015
 By Nico Watine
Copyright (c) 2010 by Jonathan Hill. All rights reserved.
</metadata>
<defs>
<font id="fafa8254e9516ddeae5c77da81e3e66c" horiz-adv-x='1024' >
  <font-face 
    font-family="Lintel-Regular"
    font-weight="400"
    font-stretch="normal"
    units-per-em="2048"
    panose-1="0 0 5 0 0 0 0 0 0 0"
    ascent="1536"
    descent="-512"
    x-height="1026"
    cap-height="1434"
    bbox="-168 -449 2136 2114"
    underline-thickness="102"
    underline-position="-102"
    unicode-range="U+0020-FB02"
  />
<missing-glyph horiz-adv-x="1024" 
d="M102 1239v-1044l349 522zM164 102h696l-348 523zM573 717l349 -522v1044zM512 809l348 522h-696zM0 0v1434h1024v-1434h-1024z" />
    <glyph glyph-name="fi" unicode="fi" horiz-adv-x="1011" 
d="M150 0v1116q0 109 43 187q84 153 294 153q111 0 185 -23t103 -34l20 -8v-99q-127 55 -283 56q-77 0 -156 -46t-77 -200v-76h591v-1026h-129v924h-462v-924h-129z" />
    <glyph glyph-name="fl" unicode="fl" horiz-adv-x="1003" 
d="M150 0v1116q0 162 92 251t245 89q99 0 195 -24t143 -48l45 -24v-1360h-129v1296q-125 51 -247 52q-68 0 -143 -47q-74 -47 -72 -199v-76h270v-102h-270v-924h-129z" />
    <glyph glyph-name="f_f" unicode="ff" horiz-adv-x="1196" 
d="M735 1026v90q0 251 210 322q55 18 109 18t99 -8v-107q-55 8 -86 7q-88 -4 -145 -62t-58 -180v-80h271v-102h-271v-924h-129v924h-456v-924h-129v1116q0 251 209 322q57 18 111 18t97 -8v-107q-55 8 -86 7q-88 -4 -145 -64t-57 -178v-80h456z" />
    <glyph glyph-name="f_f_i" unicode="ffi" horiz-adv-x="1597" 
d="M735 1026v90q0 162 93 251t233 89t239 -36q36 -11 58 -20t24 -9v-99q-127 55 -284 56q-79 0 -156 -47q-78 -47 -78 -201v-74h592v-1026h-129v924h-463v-924h-129v924h-456v-924h-129v1116q0 251 209 322q57 18 111 18t97 -8v-107q-55 8 -86 7q-90 -4 -146 -64t-56 -180
v-78h456z" />
    <glyph glyph-name="f_f_j" unicode="ffj" horiz-adv-x="1597" 
d="M864 1026h592v-1149q0 -106 -58 -179q-72 -91 -237 -108l-4 107q35 2 62 12q109 39 108 187v1028h-463v-924h-129v924h-456v-924h-129v1116q0 251 209 322q57 18 111 18t97 -8v-107q-55 8 -86 7q-88 -4 -145 -64t-57 -180v-78h456v90q0 109 44 187q86 153 294 153
q115 0 188 -23t101 -34l20 -8v-99q-127 55 -284 56q-230 0 -234 -246v-76z" />
    <glyph glyph-name="f_f_l" unicode="ffl" horiz-adv-x="1589" 
d="M735 1026v90q0 162 93 251t245 89q101 0 197 -24t141 -48l45 -22v-1362h-129v1296q-125 51 -248 52q-68 0 -142 -48q-73 -48 -73 -196v-78h271v-102h-271v-924h-129v924h-456v-924h-129v1116q0 251 209 322q57 18 111 18t97 -8v-107q-55 8 -86 7q-88 -4 -145 -64
t-57 -180v-78h456z" />
    <glyph glyph-name=".notdef" horiz-adv-x="1024" 
d="M102 1239v-1044l349 522zM164 102h696l-348 523zM573 717l349 -522v1044zM512 809l348 522h-696zM0 0v1434h1024v-1434h-1024z" />
    <glyph glyph-name=".null" horiz-adv-x="0" 
 />
    <glyph glyph-name="nonmarkingreturn" horiz-adv-x="681" 
 />
    <glyph glyph-name="space" unicode=" " horiz-adv-x="614" 
 />
    <glyph glyph-name="exclam" unicode="!" horiz-adv-x="323" 
d="M169 150q31 0 55 -24t24 -56t-24 -54t-56 -22t-54 22t-22 55q0 31 22 55t55 24zM221 305h-104l-25 1129h156z" />
    <glyph glyph-name="quotedbl" unicode="&#x22;" horiz-adv-x="567" 
d="M481 1004h-84l-24 466h133zM186 1004h-86l-24 466h133z" />
    <glyph glyph-name="numbersign" unicode="#" horiz-adv-x="1392" 
d="M557 836l-72 -299h353l71 299h-352zM1327 956v-120h-295l-71 -299h337v-121h-366l-96 -416h-123l98 416h-354l-97 -416h-122l98 416h-256v121h282l72 299h-325v120h354l110 478h123l-110 -478h352l111 478h122l-112 -478h268z" />
    <glyph glyph-name="dollar" unicode="$" horiz-adv-x="1185" 
d="M645 1597v-147q249 -13 365 -180q57 -84 59 -199h-129q-2 129 -99 197t-245 68t-243 -68t-95 -187q0 -74 48 -123t130 -81q82 -33 188 -64q352 -102 434 -266q34 -68 34 -156q0 -176 -110 -288t-337 -123v-144h-104v144q-207 12 -326 130t-121 277h127q3 -121 99 -204
t277 -83t272 78t92 213q1 70 -25 103t-42 51t-67 45q-50 27 -102 46q-51 18 -75 26t-94 30q-257 83 -343 168q-86 86 -86 211q0 168 115 268t299 113v145h104z" />
    <glyph glyph-name="percent" unicode="%" horiz-adv-x="1511" 
d="M1103 500q-89 0 -151 -62t-63 -153q0 -89 62 -151q61 -62 151 -62t152 62t62 152t-62 152t-151 62zM1102 596q129 0 221 -91t92 -220q0 -84 -42 -157q-41 -73 -113 -114t-156 -41q-131 0 -221 90q-90 91 -90 221t90 221t219 91zM400 1360q-50 0 -100 -29t-79 -78
t-28 -108q0 -91 62 -153q63 -62 153 -62t152 63t62 152t-63 152q-64 63 -159 63zM285 0h-140l1084 1434h139zM408 1456q84 0 156 -42t113 -114q42 -72 42 -155q0 -129 -91 -220t-221 -91t-221 90q-90 90 -90 220t91 221q92 91 221 91z" />
    <glyph glyph-name="ampersand" unicode="&#x26;" horiz-adv-x="1339" 
d="M240 351q0 -127 76 -195t188 -68q168 0 282 127l80 80l-346 401l-174 -135q-106 -82 -106 -210zM803 1132q1 102 -59 166q-60 66 -161 66t-159 -66t-59 -152q0 -86 61 -161l127 -145l154 118q96 72 96 174zM242 1150q0 126 93 222t249 96q102 0 180 -47q156 -94 156 -278
q0 -150 -132 -250l-170 -131l328 -381l215 215l82 -86l-219 -219l215 -248l-90 -76l-209 242l-82 -82q-141 -150 -360 -150q-172 3 -274 97t-103 270q0 88 44 165t114 130l174 135l-125 146q-86 104 -86 230z" />
    <glyph glyph-name="quotesingle" unicode="'" horiz-adv-x="276" 
d="M186 1004h-86l-24 466h133z" />
    <glyph glyph-name="parenleft" unicode="(" horiz-adv-x="436" 
d="M199 1130v-962q0 -143 53 -207q30 -35 54 -53t65 -43l-60 -109q-121 68 -178 161t-57 265v928q0 172 57 265t178 161l58 -106q-102 -56 -136 -125q-34 -68 -34 -175z" />
    <glyph glyph-name="parenright" unicode=")" horiz-adv-x="436" 
d="M375 1112v-930q1 -172 -57 -265t-179 -161l-57 109q42 25 66 43q106 78 106 260v960q0 107 -35 172q-35 72 -135 130l55 106q80 -43 129 -92q107 -107 107 -332z" />
    <glyph glyph-name="asterisk" unicode="*" horiz-adv-x="825" 
d="M463 1161l258 101l33 -95l-262 -86l167 -213l-81 -59l-156 221l-152 -223l-82 57l160 215l-260 86l33 95l250 -101l-4 275h100z" />
    <glyph glyph-name="plus" unicode="+" horiz-adv-x="940" 
d="M528 688h310v-117h-310v-309h-116v309h-310v117h310v309h116v-309z" />
    <glyph glyph-name="comma" unicode="," horiz-adv-x="296" 
d="M82 68q0 36 22 58t55 22q31 0 55 -24q24 -22 24 -47t-11 -42l-71 -152h-84l43 127q-33 23 -33 58z" />
    <glyph glyph-name="hyphen" unicode="-" horiz-adv-x="901" 
d="M827 573h-739v121h739v-121z" />
    <glyph glyph-name="period" unicode="." horiz-adv-x="292" 
d="M153 147q31 -1 55 -23t24 -54t-24 -54t-56 -22t-54 22q-23 22 -22 55q0 32 22 54q23 22 55 22z" />
    <glyph glyph-name="slash" unicode="/" horiz-adv-x="776" 
d="M211 0h-129l498 1434h129z" />
    <glyph glyph-name="zero" unicode="0" horiz-adv-x="1177" 
d="M909 397v623q0 235 -180 302q-59 22 -137 21q-154 1 -238 -79t-84 -242v-625q0 -222 204 -282q118 -35 237 -1q120 34 171 143q27 60 27 140zM141 393v631q0 215 122 328t329 112q140 0 242 -55q204 -110 204 -387v-629q0 -305 -288 -393q-76 -23 -159 -23
q-168 0 -302 92q-68 45 -108 129t-40 195z" />
    <glyph glyph-name="one" unicode="1" horiz-adv-x="675" 
d="M494 0h-123v1231q-45 -51 -117 -86t-152 -43l-32 121q94 14 170 61q96 55 143 150h111v-1434z" />
    <glyph glyph-name="two" unicode="2" horiz-adv-x="970" 
d="M510 1454q110 0 194 -49t132 -134t47 -190q0 -162 -111 -301l-493 -659h604v-121h-789v96l561 742q99 129 99 241q0 113 -69 185t-183 72t-176 -58q-64 -56 -95 -154l-125 37q96 293 404 293z" />
    <glyph glyph-name="three" unicode="3" horiz-adv-x="1054" 
d="M494 1454q144 0 254 -104q109 -104 108 -271q0 -109 -57 -189t-142 -118q109 -39 185 -138t76 -231q0 -193 -126 -311t-317 -117q-131 1 -231 59t-156 144l100 66q45 -68 121 -108t166 -40q135 0 223 88t88 218t-96 222q-96 91 -225 91h-111v108h111q106 0 185 72
q79 71 79 181t-72 184t-169 74t-158 -46q-61 -44 -88 -110l-115 47q39 93 131 161t236 68z" />
    <glyph glyph-name="four" unicode="4" horiz-adv-x="1042" 
d="M696 494v737l-489 -737h489zM823 494h127v-115h-127v-379h-127v379h-622v115l614 940h135v-940z" />
    <glyph glyph-name="five" unicode="5" horiz-adv-x="1062" 
d="M827 1313h-475l-47 -432h189q188 -2 319 -131t131 -316q0 -125 -58 -230q-58 -104 -166 -166t-238 -62t-234 60q-104 62 -158 148l100 64q41 -68 122 -110t167 -42q147 0 241 100t93 233q0 133 -92 233t-240 100h-305l76 672h575v-121z" />
    <glyph glyph-name="six" unicode="6" horiz-adv-x="1177" 
d="M602 760q-94 0 -168 -44t-116 -119t-44 -169q0 -139 94 -235q94 -97 235 -97t235 96t94 237q0 140 -94 236q-95 95 -236 95zM145 428v520q0 187 121 341q60 75 162 120t234 45q213 0 360 -125l-80 -92q-111 96 -283 96q-104 0 -184 -36q-137 -62 -186 -215
q-20 -62 -21 -126v-274q58 104 150 152t190 47q190 0 322 -131q132 -130 131 -320q0 -190 -134 -322q-135 -132 -325 -132t-324 132t-133 320z" />
    <glyph glyph-name="seven" unicode="7" horiz-adv-x="987" 
d="M74 1311v123h833v-95l-686 -1339h-129l670 1311h-688z" />
    <glyph glyph-name="eight" unicode="8" horiz-adv-x="1161" 
d="M579 711q-127 0 -219 -88t-92 -219q0 -132 90 -220t224 -88q88 0 160 40t111 111q40 71 40 159q0 127 -93 216t-221 89zM836 1078q0 108 -72 182t-181 73q-110 1 -182 -73q-71 -74 -71 -182t77 -179q77 -72 177 -72t176 71q76 72 76 180zM1022 403q0 -193 -125 -311
t-315 -117q-190 0 -318 118q-127 118 -127 310q0 133 76 233t186 138q-82 39 -139 120t-57 185q0 166 108 271q109 104 271 104t271 -104q110 -104 110 -261q0 -156 -102 -251q-44 -41 -97 -66q110 -39 184 -138t74 -231z" />
    <glyph glyph-name="nine" unicode="9" horiz-adv-x="1177" 
d="M574 1333q-140 0 -234 -96q-94 -97 -94 -237t94 -235t235 -95t233 94q91 94 92 235t-92 238q-94 96 -234 96zM907 473v277q-55 -106 -147 -154t-191 -47q-190 0 -321 132t-131 320q0 189 133 321t324 132q192 0 324 -132t132 -321v-520q0 -162 -76 -280
q-140 -226 -438 -226q-213 0 -360 125l80 93q111 -96 282 -97q285 0 369 251q20 63 20 126z" />
    <glyph glyph-name="colon" unicode=":" horiz-adv-x="290" 
d="M153 147q33 -1 55 -23t22 -54t-24 -54q-22 -22 -54 -22t-54 22q-23 22 -22 55q0 32 22 54q23 22 55 22zM153 895q32 0 61 -29t9 -76q-19 -46 -60 -47q-42 -2 -65 21q-22 22 -22 54t22 54t55 23z" />
    <glyph glyph-name="semicolon" unicode=";" horiz-adv-x="296" 
d="M82 68q0 36 22 58q41 41 86 15q44 -25 45 -57t-8 -49l-71 -152h-84l43 127q-33 23 -33 58zM159 895q33 0 55 -23t22 -46q0 -24 -6 -38q-20 -44 -62 -45q-41 -2 -64 21q-22 22 -22 54t22 54t55 23z" />
    <glyph glyph-name="less" unicode="&#x3c;" horiz-adv-x="854" 
d="M752 1249l-514 -514l514 -516l-68 -67l-582 583l582 582z" />
    <glyph glyph-name="equal" unicode="=" horiz-adv-x="940" 
d="M838 356h-736v117h736v-117zM838 725h-736v117h736v-117z" />
    <glyph glyph-name="greater" unicode="&#x3e;" horiz-adv-x="854" 
d="M752 735l-582 -583l-68 67l514 516l-514 514l68 68z" />
    <glyph glyph-name="question" unicode="?" horiz-adv-x="944" 
d="M466 147q32 -1 54 -23t23 -54q0 -32 -23 -54q-22 -22 -54 -22t-54 22t-23 55q1 32 23 54t54 22zM215 1067h-127q0 150 93 264q46 55 124 88t176 33q177 0 283 -114t106 -252t-84 -257q-35 -47 -90 -103t-87 -90q-81 -86 -81 -233v-100h-127v113q0 80 27 146t59 104
q33 38 95 104t98 117q66 89 66 193t-72 180t-191 76t-193 -72t-75 -197z" />
    <glyph glyph-name="at" unicode="@" horiz-adv-x="1517" 
d="M735 930q-195 0 -194 -182v-263q1 -57 27 -97q48 -73 161 -74t195 40v539q-84 37 -189 37zM119 293v625q0 268 174 408t474 140t466 -148t166 -403v-219q0 -224 -134 -345q-134 -122 -319 -154l-6 79q-90 -49 -213 -49q-123 1 -207 63t-84 197v267q0 137 84 199
q84 63 202 63t218 -41l2 41h86v-680q256 94 256 360v219q0 285 -233 395q-117 54 -287 54q-254 0 -392 -112t-139 -334v-625q-1 -111 45 -195q80 -147 289 -198q91 -23 189 -23t186 19v-105q-90 -18 -182 -18q-317 0 -500 169q-63 58 -102 148t-39 203z" />
    <glyph glyph-name="A" unicode="A" horiz-adv-x="1236" 
d="M401 612h433l-216 641zM1171 0h-139l-166 494h-497l-166 -494h-140l492 1434h125z" />
    <glyph glyph-name="B" unicode="B" horiz-adv-x="1243" 
d="M317 655v-534h410q129 -1 198 69t69 194t-70 198t-193 73h-414zM317 778h375q129 0 197 71q67 71 67 194t-70 197t-192 73h-377v-535zM182 1434h539q172 0 270 -106t99 -259q0 -264 -189 -348q105 -35 165 -126t60 -208q0 -187 -96 -287t-276 -100h-572v1434z" />
    <glyph glyph-name="C" unicode="C" horiz-adv-x="1150" 
d="M147 459v528q0 233 134.5 357t345.5 124q319 0 428 -225l-99 -49q-90 154 -307 154q-168 0 -268 -92.5t-100 -270.5v-526q0 -176 100 -268.5t268 -92.5q217 0 307 154l99 -49q-52 -103 -157 -164.5t-259 -61.5q-223 0 -357.5 124.5t-134.5 357.5z" />
    <glyph glyph-name="D" unicode="D" horiz-adv-x="1304" 
d="M317 1313v-1192h381q154 0 239 68.5t85 238.5v526q0 166 -92 262.5t-271 96.5h-342zM182 1434h477q240 0 368 -133.5t128 -346.5v-526q0 -238 -132 -333t-325 -95h-516v1434z" />
    <glyph glyph-name="E" unicode="E" horiz-adv-x="1169" 
d="M1063 1313h-746v-537h691v-121h-691v-534h758v-121h-893v1434h881v-121z" />
    <glyph glyph-name="F" unicode="F" horiz-adv-x="1142" 
d="M1049 1313h-732v-537h664v-121h-664v-655h-135v1434h867v-121z" />
    <glyph glyph-name="G" unicode="G" horiz-adv-x="1296" 
d="M147 434v551q0 236 134.5 359.5t359.5 123.5q152 0 259.5 -59t160.5 -164l-107 -51q-94 154 -309 154q-172 0 -268 -90.5t-96 -272.5v-551q0 -204 157 -290q86 -46 178 -46q165 0 270 77.5t105 258.5v213h-270v115h403v-762h-104l-4 178q-53 -102 -158.5 -151.5
t-212 -49.5t-188.5 26t-153 78t-114 143t-43 210z" />
    <glyph glyph-name="H" unicode="H" horiz-adv-x="1345" 
d="M1163 0h-133v655h-713v-655h-135v1434h135v-658h713v658h133v-1434z" />
    <glyph glyph-name="I" unicode="I" horiz-adv-x="499" 
d="M317 0h-135v1434h135v-1434z" />
    <glyph glyph-name="J" unicode="J" horiz-adv-x="686" 
d="M586 1434v-1010q0 -215 -122 -328.5t-327 -113.5q-29 0 -57 2v120q226 -16 322 128q50 74 49 192v1010h135z" />
    <glyph glyph-name="K" unicode="K" horiz-adv-x="1224" 
d="M317 0h-135v1434h135v-701l578 701h170l-496 -598l592 -836h-164l-514 729l-166 -201v-528z" />
    <glyph glyph-name="L" unicode="L" horiz-adv-x="985" 
d="M317 121h601v-121h-736v1434h135v-1313z" />
    <glyph glyph-name="M" unicode="M" horiz-adv-x="1527" 
d="M1352 0h-131v1120l-406 -1067h-102l-402 1067v-1120h-131v1434h133l453 -1182l451 1182h135v-1434z" />
    <glyph glyph-name="N" unicode="N" horiz-adv-x="1288" 
d="M1114 0h-137l-670 1165v-1165h-135v1434h133l676 -1180v1180h133v-1434z" />
    <glyph glyph-name="O" unicode="O" horiz-adv-x="1275" 
d="M995 432v549q0 174 -91 268t-262 94t-266 -89t-95 -271v-551q0 -179 108 -258q108 -78 251 -78t249 78t106 258zM147 432v551q0 236 134.5 358.5t359.5 122.5q351 0 455 -283q32 -89 32 -200v-549q0 -123 -44 -215t-116 -142q-145 -100 -327 -100q-183 0 -331 100
q-74 50 -118.5 142t-44.5 215z" />
    <glyph glyph-name="P" unicode="P" horiz-adv-x="1241" 
d="M317 1313v-565h390q137 0 209 74t71 205q0 130 -73 208t-203 78h-394zM182 1434h531q125 0 219 -56q184 -109 184 -338q0 -198 -106 -306t-301 -107h-392v-627h-135v1434z" />
    <glyph glyph-name="Q" unicode="Q" horiz-adv-x="1275" 
d="M995 432v549q0 174 -91 268t-262 94t-266 -89t-95 -271v-551q-1 -90 31 -158q81 -174 327 -178q133 0 223 58l-203 219l72 61l201 -215q63 82 63 213zM1128 981v-549q0 -193 -108 -309l108 -117l-71 -61l-109 116q-128 -86 -308 -86q-181 0 -330 100q-75 50 -119 142
t-44 215v551q1 237 135 359t359 122q347 0 455 -283q32 -89 32 -200z" />
    <glyph glyph-name="R" unicode="R" horiz-adv-x="1259" 
d="M707 754q280 0 280 290q0 115 -72.5 192t-203.5 77h-394v-559h390zM182 1434h531q188 0 295.5 -113t107.5 -282t-84 -270t-244 -120h-67l414 -649h-158l-395 633h-265v-633h-135v1434z" />
    <glyph glyph-name="S" unicode="S" horiz-adv-x="1185" 
d="M597 100q181 0 272.5 78t91.5 213q-1 63 -41 125q-50 78 -258 144q-26 8 -87 27t-103 33.5t-92 36t-84 41.5q-169 102 -169 278.5t130 278t338 101.5t339 -101.5t135 -283.5h-129q-2 129 -99.5 196.5t-244.5 67.5t-242.5 -67.5t-95.5 -186.5q0 -135 196 -211
q84 -33 180 -61q201 -57 329.5 -151t128.5 -272.5t-121 -293.5t-362.5 -115t-377 119t-137.5 291h127q4 -121 99.5 -204t276.5 -83z" />
    <glyph glyph-name="T" unicode="T" horiz-adv-x="1085" 
d="M989 1313h-393v-1313h-133v1313h-381v121h907v-121z" />
    <glyph glyph-name="U" unicode="U" horiz-adv-x="1284" 
d="M1135 1436v-1002q0 -121 -44 -214t-117 -143q-146 -100 -329 -100t-329 100q-74 50 -118 143t-44 214v1002h133v-1002q0 -182 109 -259t250 -77q142 0 248 77q105 77 105 259v1002h136z" />
    <glyph glyph-name="V" unicode="V" horiz-adv-x="1183" 
d="M664 0h-187l-442 1434h137l397 -1287l398 1287h137z" />
    <glyph glyph-name="W" unicode="W" horiz-adv-x="1660" 
d="M1249 0h-168l-247 1126l-250 -1126h-168l-353 1434h142l295 -1260l268 1260h129l268 -1260l291 1260h141z" />
    <glyph glyph-name="X" unicode="X" horiz-adv-x="1259" 
d="M721 743l473 -743h-158l-407 637l-404 -637h-162l478 743l-441 691h156l373 -598l372 598h160z" />
    <glyph glyph-name="Y" unicode="Y" horiz-adv-x="1187" 
d="M659 0h-133v686l-463 748h156l373 -615l373 615h159l-465 -744v-690z" />
    <glyph glyph-name="Z" unicode="Z" horiz-adv-x="1200" 
d="M1104 121v-121h-1010v90l819 1223h-772v121h953v-91l-820 -1222h830z" />
    <glyph glyph-name="bracketleft" unicode="[" horiz-adv-x="573" 
d="M508 1417h-299v-1530h299v-120h-426v1769h426v-119z" />
    <glyph glyph-name="backslash" unicode="\" horiz-adv-x="776" 
d="M709 0h-129l-498 1434h129z" />
    <glyph glyph-name="bracketright" unicode="]" horiz-adv-x="573" 
d="M508 -233h-426v120h297v1530h-297v119h426v-1769z" />
    <glyph glyph-name="asciicircum" unicode="^" horiz-adv-x="835" 
d="M735 1130l-65 -63l-248 246l-254 -246l-66 68l320 309z" />
    <glyph glyph-name="underscore" unicode="_" horiz-adv-x="921" 
d="M848 -213h-760v109h760v-109z" />
    <glyph glyph-name="grave" unicode="`" horiz-adv-x="372" 
d="M303 1194h-92l-152 240h138z" />
    <glyph glyph-name="a" unicode="a" horiz-adv-x="1034" 
d="M213 334q0 -252 309 -252q139 0 252 61v422q-238 31 -365 6q-196 -39 -196 -237zM471 1042q309 0 391 -187q26 -60 33.5 -114.5t7.5 -128.5v-616h-104l-2 53q-129 -72 -299 -70t-288 83.5t-118 271.5q0 346 438 346q94 0 244 -21q-2 61 -13 104.5t-43 85.5
q-65 85 -259 85q-142 -1 -236 -60l-67 72q119 96 315 96z" />
    <glyph glyph-name="b" unicode="b" horiz-adv-x="1042" 
d="M807 328v356q0 256 -275 256q-145 0 -262 -53v-742q115 -57 248 -57t211 60t78 180zM270 1434v-449q139 57 290 57t264 -78q112 -78 112 -272v-362q0 -94 -34 -164t-91 -108q-111 -74 -275 -74t-288 69l-2 -53h-105v1434h129z" />
    <glyph glyph-name="c" unicode="c" horiz-adv-x="913" 
d="M106 397v230q0 135 52 230q101 187 348 187q184 0 309 -126l-96 -52q-96 70 -215 70t-193.5 -78t-74.5 -231v-230q0 -154 74.5 -231.5t193.5 -77.5t215 72l96 -51q-125 -127 -309 -127q-246 0 -348 187q-52 95 -52 228z" />
    <glyph glyph-name="d" unicode="d" horiz-adv-x="1042" 
d="M510 940q-274 0 -274 -256v-356q0 -121 78 -181q79 -59 212 -59t246 57v742q-117 53 -262 53zM901 0h-104l-2 53q-125 -69 -291 -69t-282 80t-116 266v362q0 191 121 277q103 73 254 73t291 -57v449h129v-1434z" />
    <glyph glyph-name="e" unicode="e" horiz-adv-x="976" 
d="M760 559v123q0 135 -75 196.5t-185 61.5t-187 -63.5t-77 -198.5v-119h524zM106 311v363q0 174 106 272q108 98 292 98t280.5 -97t96.5 -269v-209h-648v-170q0 -219 248 -219q160 0 281 82l72 -64q-147 -121 -342 -121t-290.5 89t-95.5 245z" />
    <glyph glyph-name="f" unicode="f" horiz-adv-x="612" 
d="M150 0v1116q0 251 209 322q57 18 111 18t97 -8v-107q-117 17 -187 -21q-44 -24 -73 -80t-28 -138v-76h270v-102h-270v-924h-129z" />
    <glyph glyph-name="g" unicode="g" horiz-adv-x="1042" 
d="M547.5 938q-111.5 0 -173 -24.5t-100 -80t-38.5 -135.5v-344q0 -256 274 -256q145 1 262 54v729q-113 57 -224.5 57zM106 346v350q0 260 252 328q66 18 144 18q166 0 293 -71l2 53h104v-1098q0 -112 -46 -188q-87 -145 -292 -144.5t-373 107.5l54 76q135 -80 266 -80
t195.5 51t66.5 168v141q-121 -57 -284.5 -57t-272.5 80.5t-109 265.5z" />
    <glyph glyph-name="h" unicode="h" horiz-adv-x="1077" 
d="M817 690q0 250 -282 250q-133 0 -254 -57v-883h-129v1434h129v-451q123 59 280.5 59t271 -78.5t113.5 -267.5v-696h-129v690z" />
    <glyph glyph-name="i" unicode="i" horiz-adv-x="438" 
d="M289 0h-129v1026h129v-1026zM226 1454q32 0 52 -20t19 -52q0 -32 -19 -52q-20 -22 -52 -22t-54 21q-22 20 -20 53q0 32 21 52t53 20z" />
    <glyph glyph-name="j" unicode="j" horiz-adv-x="432" 
d="M283 1026v-1149q1 -98 -53 -167t-146 -99q-49 -18 -96 -21l-6 107q47 6 84 22q88 45 88 177v1130h129zM219 1454q31 0 51 -20t20 -52t-18 -52q-20 -22 -53 -22t-53 21q-20 20 -21 53q-1 32 21 52t53 20z" />
    <glyph glyph-name="k" unicode="k" horiz-adv-x="1021" 
d="M281 0h-129v1434h129v-867l483 473h162l-408 -413l465 -627h-147l-396 539l-159 -148v-391z" />
    <glyph glyph-name="l" unicode="l" horiz-adv-x="411" 
d="M281 0h-129v1434h129v-1434z" />
    <glyph glyph-name="m" unicode="m" horiz-adv-x="1589" 
d="M1129 1042q141 0 235 -90t94 -256v-696h-129v686q0 128 -58 190t-163 62q-55 0 -103 -14t-155 -66q18 -39 18 -182v-676h-127v733q0 205 -229 205q-133 0 -242 -55v-883h-129v1026h105l2 -51q133 68 280 67q196 0 281 -106q178 106 320 106z" />
    <glyph glyph-name="n" unicode="n" horiz-adv-x="1067" 
d="M936 696v-696h-129v690q0 127 -77 188.5t-211 61.5t-249 -57v-883h-129v1026h105l2 -53q131 69 295 69t271 -75q56 -39 89 -109t33 -162z" />
    <glyph glyph-name="o" unicode="o" horiz-adv-x="1013" 
d="M778 385v254q0 171 -99 249q-66 52 -169 52q-274 0 -274 -301v-254q0 -127 68.5 -212t204.5 -85t202.5 84t66.5 213zM106 385v254q0 197 104.5 302.5t297 105.5t296 -110t103.5 -298v-254q0 -160 -93 -282q-93 -121 -304 -121q-242 0 -344 172q-60 102 -60 231z" />
    <glyph glyph-name="p" unicode="p" horiz-adv-x="1052" 
d="M817 340v358q0 120 -78 180q-79 60 -211 60t-247 -57v-742q119 -53 262 -53q274 0 274 254zM946 334q0 -224 -165 -306q-88 -46 -225 -46q-136 0 -275 57v-453h-129v1438h104l2 -53q127 72 293 71q204 0 313 -112q84 -89 82 -234v-362z" />
    <glyph glyph-name="q" unicode="q" horiz-adv-x="1042" 
d="M526 938q-133 0 -212 -60t-78 -180v-358q0 -254 274 -254q145 0 262 53v742q-113 57 -246 57zM106 334v362q0 186 119 266t281 80t289 -71l2 53h104v-1438h-129v453q-139 -57 -288 -57t-263 78q-115 77 -115 274z" />
    <glyph glyph-name="r" unicode="r" horiz-adv-x="720" 
d="M563 1047q68 0 117 -15l-6 -108q-78 20 -135 14q-269 -8 -269 -299v-639h-129v1032h105l4 -149q90 164 313 164z" />
    <glyph glyph-name="s" unicode="s" horiz-adv-x="933" 
d="M463 82q117 0 184.5 53t67.5 137q0 106 -116 156q-57 24 -139 46t-120 36q-113 39 -171 96t-58 167t88 193t268 83t268 -82t88 -205h-123q0 72 -57 125t-175 53t-174 -53t-56 -124t62 -109t166.5 -66.5t161 -50t110.5 -56.5q106 -70 106 -209q0 -175 -165 -257
q-85 -42 -202 -42q-186 0 -287.5 85t-107.5 214h127q6 -82 71.5 -136t182.5 -54z" />
    <glyph glyph-name="t" unicode="t" horiz-adv-x="700" 
d="M279 1026h270v-108h-270v-512q0 -248 194 -304q59 -18 141 -14v-108q-189 -9 -315 76q-68 46 -108.5 131t-40.5 200v887h129v-248z" />
    <glyph glyph-name="u" unicode="u" 
d="M926 0h-105l-2 53q-129 -69 -292 -69t-280 80q-116 80 -116 266v696h129v-690q0 -127 77 -188.5t211 -61.5t249 57v883h129v-1026z" />
    <glyph glyph-name="v" unicode="v" horiz-adv-x="940" 
d="M539 0h-138l-362 1026h131l299 -868l301 868h131z" />
    <glyph glyph-name="w" unicode="w" horiz-adv-x="1437" 
d="M1065 0h-129l-217 768l-217 -768h-127l-336 1026h135l260 -846l230 846h108l229 -846l263 846h135z" />
    <glyph glyph-name="x" unicode="x" horiz-adv-x="856" 
d="M514 512l299 -512h-139l-242 418l-252 -418h-141l315 514l-301 512h142l239 -426l240 426h139z" />
    <glyph glyph-name="y" unicode="y" horiz-adv-x="1067" 
d="M926 1026v-1100q0 -167 -97 -250q-97 -82 -273.5 -82t-338.5 107l51 76q137 -80 279 -80q248 0 250 219v141q-119 -57 -283 -57t-274 80q-109 80 -109 266v680h129v-672q0 -256 275 -256q145 0 262 54v874h129z" />
    <glyph glyph-name="z" unicode="z" horiz-adv-x="899" 
d="M811 109v-109h-729v84l557 834h-518v108h678v-84l-557 -833h569z" />
    <glyph glyph-name="braceleft" unicode="{" horiz-adv-x="622" 
d="M354 1151v-291q0 -102 -135 -217q135 -113 135 -217v-281q0 -186 119 -256q25 -14 53 -24l-12 -107q-43 14 -65 27q-104 45 -160 125q-55 80 -56 229v287q0 63 -63 117q-31 29 -68 55v86q43 33 76 66q55 47 55 110v293q1 145 55 226t154 126q31 14 72 29l10 -104
q-170 -58 -170 -279z" />
    <glyph glyph-name="bar" unicode="|" horiz-adv-x="325" 
d="M223 -102h-121v1536h121v-1536z" />
    <glyph glyph-name="braceright" unicode="}" horiz-adv-x="622" 
d="M383 1153v-293q0 -63 53 -110q33 -33 78 -66v-86q-39 -27 -70 -55q-61 -53 -61 -117v-287q0 -149 -56 -229t-161 -125q-23 -12 -66 -27l-12 107q29 10 55 24q117 70 117 256v281q0 104 137 217q-137 115 -137 217v291q0 180 -110 248q-25 17 -60 31l10 104q41 -14 72 -31
q100 -43 156 -124t55 -226z" />
    <glyph glyph-name="asciitilde" unicode="~" horiz-adv-x="1032" 
d="M328 713q78 0 210 -46t210 -46t141 65l65 -78q-86 -88 -213 -88q-78 0 -213 46t-200 46q-109 0 -183 -90l-65 74q96 117 248 117z" />
    <glyph glyph-name="exclamdown" unicode="&#xa1;" horiz-adv-x="323" 
d="M244 -414h-148l27 1129h96zM169 1026q33 0 55 -24t22 -54t-23 -54t-55 -24t-54 24t-22 54t22 54t55 24z" />
    <glyph glyph-name="cent" unicode="&#xa2;" horiz-adv-x="913" 
d="M559 -119h-102v103q-160 14 -255 120t-96 293v230q0 189 96 295t255 118v107h102v-107q145 -18 256 -122l-96 -52q-96 70 -215 70t-194 -78t-74 -231v-230q0 -153 74 -231t194 -78q119 0 215 72l96 -51q-116 -108 -256 -123v-105z" />
    <glyph glyph-name="sterling" unicode="&#xa3;" horiz-adv-x="1226" 
d="M199 676v76h123q-62 190 -62 296t52 201t148 149t208 54q114 0 191 -37t114 -96l-86 -62q-66 74 -201 74t-215 -87t-80 -212q0 -74 66 -280h291v-76h-267q37 -122 37 -220t-46 -190t-114 -145h326q211 0 324 147l127 -63q-143 -205 -435 -205h-530v98q82 44 153 140
t71 196t-48 242h-147z" />
    <glyph glyph-name="yen" unicode="&#xa5;" horiz-adv-x="1187" 
d="M942 766v-78h-283v-151h283v-78h-283v-459h-133v459h-280v78h280v151h-280v78h233l-416 668h156l373 -615l373 615h159l-422 -668h240z" />
    <glyph glyph-name="brokenbar" unicode="&#xa6;" horiz-adv-x="325" 
d="M223 -102h-121v634h121v-634zM223 799h-121v635h121v-635z" />
    <glyph glyph-name="section" unicode="&#xa7;" horiz-adv-x="1003" 
d="M238 660q0 -74 66 -117t204 -87q139 -44 203 -77q100 61 100 192q0 145 -215 210l-96 32q-66 21 -113 37q-149 -48 -149 -190zM811 92q0 76 -47 116q-26 24 -48 40q-32 24 -245 94q-212 70 -282 139t-70 174q0 172 149 256q-150 86 -150 232q0 145 110 229q108 84 281 84
t283 -84t111 -237h-117q0 71 -38 119q-73 94 -238 94t-238 -94q-34 -46 -34 -118t68 -116q68 -45 242 -94q172 -49 276 -131t104 -232t-109 -244q109 -87 109 -233t-104 -245t-305 -99t-315 102t-118 244h117q2 -98 80 -167q79 -69 229 -69t224 66q74 64 75 174z" />
    <glyph glyph-name="dieresis" unicode="&#xa8;" horiz-adv-x="655" 
d="M510 1366q18 0 33.5 -9t25 -24.5t9.5 -34t-15 -44.5t-48.5 -25.5t-53 21t-19.5 43.5t9.5 39t25 25t33.5 9zM147.5 1366q18.5 0 34 -9t24.5 -24.5t9 -34t-9 -34.5q-19 -34 -53.5 -34.5t-53.5 20t-19 43.5t9 39t24.5 25t34 9z" />
    <glyph glyph-name="copyright" unicode="&#xa9;" horiz-adv-x="1658" 
d="M430 710q0 186 111 316q111 129 293 129q94 0 175 -40q81 -41 134 -109t69 -154h-82q-37 154 -192 207q-47 16 -102 16q-154 1 -240 -107t-86 -246t73 -246q81 -120 273 -120q104 0 182 75q80 75 92 155h84q-33 -135 -135 -222t-241 -88q-186 0 -297 124t-111 310z
M831 1348q-168 0 -312 -79t-232 -225t-88 -327q0 -179 90 -327t233 -227q142 -79 286 -79t258 47t202 130t141 203t53 255q0 261 -184 445t-447 184zM831 1444q197 0 364 -96t264 -264t97 -370t-103 -372t-269 -262t-354 -92t-355 92q-166 92 -269 261q-104 169 -104 351
q-1 342 220 547q100 93 233 149t276 56z" />
    <glyph glyph-name="ordfeminine" unicode="&#xaa;" horiz-adv-x="688" 
d="M375 1059q-195 0 -195 -137t180 -138q78 0 150 35v228q-109 12 -135 12zM596 1077v-362h-76l-2 26q-78 -37 -170 -36q-258 6 -258 213t272 206q59 0 146 -10q-6 74 -43 114t-135 40t-152 -39l-49 59q69 62 177 62q190 1 247 -85q43 -67 43 -188z" />
    <glyph glyph-name="guillemotleft" unicode="&#xab;" horiz-adv-x="1153" 
d="M1079 874l-327 -325l329 -324l-82 -86l-409 410l409 407zM573 874l-327 -325l327 -324l-84 -86l-407 410l407 407z" />
    <glyph glyph-name="logicalnot" unicode="&#xac;" horiz-adv-x="1705" 
 />
    <glyph glyph-name="registered" unicode="&#xae;" horiz-adv-x="1660" 
d="M639 1079v-344h258q62 -1 107 23q84 44 85 142q1 97 -59 138t-141 41h-250zM555 1153h344q159 0 237 -118q36 -56 36 -144q0 -87 -61 -147q-60 -60 -148 -72l229 -357h-90l-223 349h-240v-349h-84v838zM834 1350q-264 0 -450 -180t-185 -449q0 -181 89 -327t233 -226
q143 -80 313 -80t314 81t230 227t86 324t-86 324t-230 226t-314 80zM833 1446q197 0 363 -93t264 -260t98 -372t-98 -373t-264 -262t-362 -94q-144 0 -278 55q-274 112 -392 383q-60 136 -60 316t98 347t266 260q167 93 365 93z" />
    <glyph glyph-name="macron" unicode="&#xaf;" horiz-adv-x="657" 
d="M569 1266h-483v77h483v-77z" />
    <glyph glyph-name="degree" unicode="&#xb0;" horiz-adv-x="831" 
d="M401 1374q-81 0 -144 -67q-62 -68 -62 -155t62 -154t159 -66q66 0 116 32t78 82q27 50 27 106t-27 106q-28 50 -78 83t-131 33zM416 1477q135 1 230 -95t95 -231t-95 -229t-230 -94q-134 0 -230 94t-96 231q0 88 43 163t119 118t164 43z" />
    <glyph glyph-name="plusminus" unicode="&#xb1;" horiz-adv-x="940" 
d="M838 0h-736v117h736v-117zM528 784h310v-116h-310v-310h-116v310h-310v116h310v310h116v-310z" />
    <glyph glyph-name="twosuperior" unicode="&#xb2;" horiz-adv-x="610" 
d="M549 1213q0 -99 -68 -181l-278 -368h346v-95h-486v74l334 436q51 67 51 131t-35 103q-36 39 -94 39q-116 0 -151 -119l-98 24q61 186 249 187q100 0 165 -66t65 -165z" />
    <glyph glyph-name="threesuperior" unicode="&#xb3;" horiz-adv-x="665" 
d="M322 1454q85 0 151 -63t66 -172t-101 -164q70 -33 108 -93t38 -135q0 -115 -76 -189t-197 -73q-76 0 -138 35t-101 94l80 51q51 -84 157 -83q76 0 126 48t50 123t-52 125t-122 50h-75v86h71q55 0 94 36t39 94q0 56 -37 95t-97 39t-102 -51q-14 -17 -20 -37l-90 37
q27 67 85 107t143 40z" />
    <glyph glyph-name="acute" unicode="&#xb4;" horiz-adv-x="372" 
d="M186 1194h-92l107 240h137z" />
    <glyph glyph-name="paragraph" unicode="&#xb6;" horiz-adv-x="1275" 
d="M1184 -338h-121v1753h-209v-1753h-121v1106h-266q-170 0 -273 104q-104 104 -104 280t110 280t298 104h686v-1874z" />
    <glyph glyph-name="periodcentered" unicode="&#xb7;" horiz-adv-x="204" 
d="M112 731q32 -1 54 -23t22 -54t-22 -54t-54 -22t-55 22t-23 54t23 55q23 22 55 22z" />
    <glyph glyph-name="cedilla" unicode="&#xb8;" horiz-adv-x="647" 
d="M559 -250q0 -76 -41 -121q-71 -78 -221 -78q-88 0 -211 50l31 65q80 -45 186 -45q105 1 147 67q14 24 14.5 61.5t-31.5 64t-94.5 26.5t-143.5 -39l-29 31l133 184h76l-90 -125q41 16 102.5 16.5t116.5 -40.5t55 -117z" />
    <glyph glyph-name="onesuperior" unicode="&#xb9;" horiz-adv-x="405" 
d="M319 571h-98v703q-61 -57 -155 -64l-25 97q53 5 110 37t82 90h86v-863z" />
    <glyph glyph-name="ordmasculine" unicode="&#xba;" horiz-adv-x="671" 
d="M489 950v154q0 101 -69 142q-34 22 -96 22t-101 -43t-39 -121v-152q0 -83 45 -122t115 -41q70 -1 108 46t37 115zM90 954v146q0 116 64 184t183 68q120 0 182 -70t63 -182v-146q0 -106 -60 -178t-185 -72q-123 0 -185 74q-62 72 -62 176z" />
    <glyph glyph-name="guillemotright" unicode="&#xbb;" horiz-adv-x="1153" 
d="M1087 549l-409 -410l-82 86l326 324l-326 325l82 82zM578 549l-408 -410l-82 86l328 324l-326 325l80 82z" />
    <glyph glyph-name="onequarter" unicode="&#xbc;" horiz-adv-x="1452" 
d="M1192 313v402l-262 -402h262zM1288 313h74v-92h-74v-221h-100v221h-365v82l367 559h98v-549zM481 0h-119l498 1434h119zM369 571h-99v703q-62 -57 -153 -64l-27 97q51 6 103 34q66 33 90 93h86v-863z" />
    <glyph glyph-name="onehalf" unicode="&#xbd;" horiz-adv-x="1492" 
d="M1174 874q100 0 164 -66t65 -166q0 -99 -68 -181l-278 -369h346v-92h-485v72l333 438q53 66 53 130t-35 103q-36 39 -95 39q-117 1 -152 -118l-98 24q61 186 250 186zM487 0h-118l497 1434h119zM369 571h-99v703q-61 -57 -153 -64l-27 97q49 6 98 32q70 35 95 95h86v-863
z" />
    <glyph glyph-name="threequarters" unicode="&#xbe;" horiz-adv-x="1617" 
d="M1358 313v402l-262 -402h262zM1456 313h72v-92h-72v-221h-100v221h-365v82l367 559h98v-549zM647 0h-117l498 1434h117zM341 1454q85 0 151 -63t66 -172t-101 -164q71 -33 109 -93t38 -135q0 -113 -79 -187t-195 -75q-76 0 -138 35t-102 94l80 51q51 -83 158 -83t153 82
q23 40 23 102t-52 112t-122 50h-76v86h72q55 0 95 36t40 94q0 56 -38 95t-81 39q-106 0 -139 -88l-90 37q27 67 85 107t143 40z" />
    <glyph glyph-name="questiondown" unicode="&#xbf;" horiz-adv-x="944" 
d="M557 733v-112q0 -80 -27 -146q-28 -67 -60 -105t-93 -104t-98 -116q-66 -90 -66 -194t72 -180q73 -76 191 -75q118 0 193 72t74 196h127q0 -194 -135 -305q-97 -80 -266 -80q-168 0 -274 114q-107 114 -107 252t84 257q35 46 104 118q70 71 98 109q56 75 56 199v100h127z
M484 1042q84 0 85 -84q-1 -24 -23 -47t-54 -23t-54 24q-23 22 -22 54q0 32 22 54t46 22z" />
    <glyph glyph-name="Agrave" unicode="&#xc0;" horiz-adv-x="1236" 
d="M401 612h433l-216 641zM1171 0h-139l-166 494h-497l-166 -494h-140l492 1434h125zM700 1606h-92l-151 237h137z" />
    <glyph glyph-name="Aacute" unicode="&#xc1;" horiz-adv-x="1236" 
d="M401 612h433l-216 641zM1171 0h-139l-166 494h-497l-166 -494h-140l492 1434h125zM666 1606h-93l107 239h137z" />
    <glyph glyph-name="Acircumflex" unicode="&#xc2;" horiz-adv-x="1236" 
d="M401 612h433l-216 641zM1171 0h-139l-166 494h-497l-166 -494h-140l492 1434h125zM952 1579h-123l-204 217l-213 -217h-121l268 281h131z" />
    <glyph glyph-name="Atilde" unicode="&#xc3;" horiz-adv-x="1236" 
d="M401 612h433l-216 641zM1171 0h-139l-166 494h-497l-166 -494h-140l492 1434h125zM492 1827q53 0 142 -43t132 -43q68 0 139 74l49 -70q-94 -88 -186 -88q-53 0 -143 41t-138 41q-71 0 -153 -92l-51 69q104 111 209 111z" />
    <glyph glyph-name="Adieresis" unicode="&#xc4;" horiz-adv-x="1236" 
d="M401 612h433l-216 641zM1171 0h-139l-166 494h-497l-166 -494h-140l492 1434h125zM735 1700q1 34 21 54t48 20t47 -20t19 -48q0 -29 -19 -49q-36 -38 -76 -14q-40 22 -40 57zM442 1774q29 0 47 -20q19 -20 19 -48q0 -29 -20 -49q-37 -38 -76 -15t-39 58q0 34 20 54t49 20
z" />
    <glyph glyph-name="Aring" unicode="&#xc5;" horiz-adv-x="1236" 
d="M401 612h433l-216 641zM1171 0h-139l-166 494h-497l-166 -494h-140l492 1434h125zM618 1868q-68 0 -114 -46t-45 -114q0 -68 46 -115t102 -47q104 0 151 80q20 38 20 94t-46 102t-114 46zM620 1946q96 0 166 -71t70 -167q0 -64 -32 -118t-87 -87t-135 -33t-150 71
t-71 167q0 96 72 167t167 71z" />
    <glyph glyph-name="AE" unicode="&#xc6;" horiz-adv-x="1579" 
d="M401 612h213l-6 613zM1483 1313h-746v-537h680v-121h-667v-534h733v-121h-856l-4 494h-254l-166 -494h-140l492 1434h928v-121z" />
    <glyph glyph-name="Ccedilla" unicode="&#xc7;" horiz-adv-x="1150" 
d="M147 459v528q1 233 135 357t344 124q319 -1 429 -225l-99 -49q-90 154 -307 154q-168 0 -268 -92t-100 -271v-526q0 -177 100 -269t268 -92q217 0 307 154l99 -49q-106 -201 -373 -219q-23 -4 -45 -4t-41 2l-61 -84q43 14 105 14t115 -40q54 -40 54 -116t-41 -121
q-70 -77 -221 -77q-82 0 -211 47l31 67q72 -43 159 -45t138 29t51 84t-33 80q-76 62 -238 -15l-28 33l108 150q-174 30 -276 150t-101 321z" />
    <glyph glyph-name="Egrave" unicode="&#xc8;" horiz-adv-x="1169" 
d="M1063 1313h-746v-537h691v-121h-691v-534h758v-121h-893v1434h881v-121zM713 1606h-92l-152 237h137z" />
    <glyph glyph-name="Eacute" unicode="&#xc9;" horiz-adv-x="1169" 
d="M1063 1313h-746v-537h691v-121h-691v-534h758v-121h-893v1434h881v-121zM659 1606h-94l109 239h137z" />
    <glyph glyph-name="Ecircumflex" unicode="&#xca;" horiz-adv-x="1169" 
d="M1063 1313h-746v-537h691v-121h-691v-534h758v-121h-893v1434h881v-121zM905 1579h-123l-204 217l-211 -217h-123l270 281h131z" />
    <glyph glyph-name="Edieresis" unicode="&#xcb;" horiz-adv-x="1169" 
d="M1063 1313h-746v-537h691v-121h-691v-534h758v-121h-893v1434h881v-121zM825 1716q0 -28 -14 -53t-48 -26t-53 19q-36 39 -13 79q23 39 51 39t52 -15t25 -43zM463 1716q0 -78 -73 -80q-24 0 -43 20t-19 44t15 49t42 25q28 0 53 -15t25 -43z" />
    <glyph glyph-name="Igrave" unicode="&#xcc;" horiz-adv-x="499" 
d="M317 0h-135v1434h135v-1434zM356 1606h-92l-151 237h137z" />
    <glyph glyph-name="Iacute" unicode="&#xcd;" horiz-adv-x="499" 
d="M317 0h-135v1434h135v-1434zM254 1606h-94l108 239h138z" />
    <glyph glyph-name="Icircumflex" unicode="&#xce;" horiz-adv-x="499" 
d="M317 0h-135v1434h135v-1434zM584 1579h-123l-205 217l-211 -217h-123l268 281h132z" />
    <glyph glyph-name="Idieresis" unicode="&#xcf;" horiz-adv-x="499" 
d="M317 0h-135v1434h135v-1434zM488 1750q14 -24 14 -56q0 -30 -24 -44t-47 -14q-24 0 -44 20t-20 55q-1 34 25 48q26 15 54 15t42 -24zM68 1774q24 0 48 -14t23 -43q0 -78 -59 -80q-35 -1 -55 19t-21 50q0 28 20 48t44 20z" />
    <glyph glyph-name="Eth" unicode="&#xd0;" horiz-adv-x="1333" 
d="M346 1313v-537h340v-121h-340v-534h381q154 1 239 69t85 238v526q-1 166 -93 262t-270 97h-342zM213 1434h475q240 0 369 -134t129 -346v-526q0 -272 -195 -373q-105 -55 -264 -55h-514v655h-193v121h193v658z" />
    <glyph glyph-name="Ntilde" unicode="&#xd1;" horiz-adv-x="1288" 
d="M1114 0h-137l-670 1165v-1165h-135v1434h133l676 -1180v1180h133v-1434zM514 1827q53 0 141 -43q89 -43 145 -43t128 74l49 -70q-96 -88 -186 -88q-53 0 -143 41t-138 41q-74 0 -154 -92l-51 69q104 111 209 111z" />
    <glyph glyph-name="Ograve" unicode="&#xd2;" horiz-adv-x="1275" 
d="M995 432v549q0 174 -91 268t-262 94t-266 -89t-95 -271v-551q0 -207 157 -291q85 -45 178 -45q267 0 349 178q30 68 30 158zM147 432v551q1 237 135 359t359 122q155 0 265 -59q222 -119 222 -424v-549q0 -123 -44 -215t-116 -142q-145 -100 -327 -100q-181 0 -331 100
q-75 50 -119 142t-44 215zM743 1606h-94l-149 237h135z" />
    <glyph glyph-name="Oacute" unicode="&#xd3;" horiz-adv-x="1275" 
d="M995 432v549q0 174 -91 268t-262 94t-266 -89t-95 -271v-551q0 -207 157 -291q85 -45 178 -45q267 0 349 178q30 68 30 158zM147 432v551q1 237 135 359t359 122q155 0 265 -59q222 -119 222 -424v-549q0 -123 -44 -215t-116 -142q-145 -100 -327 -100q-181 0 -331 100
q-75 50 -119 142t-44 215zM645 1602h-92l106 239h138z" />
    <glyph glyph-name="Ocircumflex" unicode="&#xd4;" horiz-adv-x="1275" 
d="M995 432v549q0 174 -91 268t-262 94t-266 -89t-95 -271v-551q-1 -90 31 -158q81 -174 327 -178q144 0 250 78t106 258zM147 432v551q1 237 135 359t359 122q155 0 265 -59q222 -119 222 -424v-549q0 -280 -218 -394q-116 -61 -239 -62q-122 -1 -204 24t-157 75t-119 142
t-44 215zM971 1579h-123l-205 217l-213 -217h-121l269 281h131z" />
    <glyph glyph-name="Otilde" unicode="&#xd5;" horiz-adv-x="1275" 
d="M995 432v549q0 174 -91 268t-262 94t-266 -89t-95 -271v-551q-1 -90 31 -158q81 -174 327 -178q144 0 250 78t106 258zM147 432v551q1 237 135 359t359 122q347 0 455 -283q33 -89 32 -200v-549q0 -123 -44 -215t-116 -142q-145 -100 -327 -100q-181 0 -331 100
q-75 50 -119 142t-44 215zM510 1827q55 0 143 -43q87 -43 143 -43t128 74l49 -70q-94 -88 -185 -88q-55 0 -145 41t-135 41q-74 0 -156 -92l-49 69q104 111 207 111z" />
    <glyph glyph-name="Odieresis" unicode="&#xd6;" horiz-adv-x="1275" 
d="M995 432v549q0 174 -91 268t-262 94t-266 -89t-95 -271v-551q-1 -90 31 -158q81 -174 327 -178q144 0 250 78t106 258zM147 432v551q1 237 135 359t359 122q347 0 455 -283q33 -89 32 -200v-549q0 -123 -44 -215t-116 -142q-145 -100 -327 -100q-181 0 -331 100
q-75 50 -119 142t-44 215zM823 1774q29 0 47 -20t18 -48q0 -29 -18 -49q-37 -37 -77 -15q-39 23 -39 58q0 34 20 54t49 20zM461 1774q29 0 47 -20t18 -48q0 -29 -19 -49q-36 -38 -76 -14q-40 23 -40 57q1 34 21 54t49 20z" />
    <glyph glyph-name="multiply" unicode="&#xd7;" horiz-adv-x="811" 
d="M721 885l-236 -236l236 -235l-82 -78l-236 233l-233 -233l-80 80l236 233l-236 234l80 82l233 -236l236 236z" />
    <glyph glyph-name="Oslash" unicode="&#xd8;" horiz-adv-x="1275" 
d="M995 432v549q0 186 -104 281l-397 -1143q68 -23 142 -23q148 0 253 78q106 78 106 258zM281 983v-551q0 -168 104 -256l399 1147q-63 20 -143 20q-170 0 -265 -89t-95 -271zM1128 432q0 -123 -44 -215t-116 -142q-145 -100 -329 -100q-96 0 -184 27l-37 -104h-129l53 155
q-195 119 -195 379v551q1 237 135 359t359 122q100 0 182 -24l35 96h129l-51 -147q193 -125 192 -408v-549z" />
    <glyph glyph-name="Ugrave" unicode="&#xd9;" horiz-adv-x="1284" 
d="M1135 1436v-1002q0 -121 -44 -214t-117 -143q-146 -100 -329 -100q-182 0 -330 100q-74 50 -117 143q-44 93 -44 214v1002h133v-1002q0 -148 75 -227t180 -98q203 -41 346 62q113 83 111 263v1002h136zM739 1606h-92l-151 237h137z" />
    <glyph glyph-name="Uacute" unicode="&#xda;" horiz-adv-x="1284" 
d="M1135 1436v-1002q0 -275 -219 -393q-115 -62 -238 -63t-206 24q-318 96 -318 432v1002h133v-1002q0 -183 114 -263q99 -71 242 -72t251 77q107 78 105 258v1002h136zM641 1602h-92l106 239h138z" />
    <glyph glyph-name="Ucircumflex" unicode="&#xdb;" horiz-adv-x="1284" 
d="M1135 1436v-1002q0 -121 -44 -214t-117 -143q-146 -100 -329 -100q-182 0 -330 100q-74 50 -117 143q-44 93 -44 214v1002h133v-1002q0 -183 114 -263q99 -71 242 -72t251 77q107 78 105 258v1002h136zM973 1579h-123l-205 217l-213 -217h-121l269 281h131z" />
    <glyph glyph-name="Udieresis" unicode="&#xdc;" horiz-adv-x="1284" 
d="M1135 1436v-1002q0 -121 -44 -214t-117 -143q-146 -100 -329 -100q-182 0 -330 100q-74 50 -117 143q-44 93 -44 214v1002h133v-1002q0 -183 114 -263q99 -71 242 -72t251 77q107 78 105 258v1002h136zM877 1750q14 -24 14 -56q1 -30 -23 -44t-48 -14t-44 20t-20 55
q0 34 35 53q16 10 44 10t42 -24zM528 1717q0 -78 -59 -80q-35 -1 -55 19q-37 38 -15 78q23 40 53 40q28 0 52 -14t24 -43z" />
    <glyph glyph-name="Yacute" unicode="&#xdd;" horiz-adv-x="1187" 
d="M659 0h-133v686l-463 748h156l373 -615l373 615h159l-465 -744v-690zM594 1602h-92l106 239h137z" />
    <glyph glyph-name="Thorn" unicode="&#xde;" horiz-adv-x="1241" 
d="M317 1014v-565h390q137 1 209 75t71 204q0 130 -73 208t-203 78h-394zM317 1135h396q188 0 296 -114q107 -115 107 -297t-106 -290t-301 -106h-392v-328h-135v1434h135v-299z" />
    <glyph glyph-name="germandbls" unicode="&#xdf;" horiz-adv-x="1167" 
d="M176 0v1075q0 173 109 275t303 102q296 0 380 -210q26 -66 26 -142t-30 -138q-53 -111 -157 -151q100 -33 179 -131t79 -242q0 -184 -124 -311t-318 -127h-209v121h209q135 0 222 88t87 229q0 88 -42 160t-111 112t-148 42h-21v116h19q92 4 162 70t69 166q0 227 -274 227
q-133 1 -205 -69t-72 -181v-1081h-133z" />
    <glyph glyph-name="agrave" unicode="&#xe0;" horiz-adv-x="1034" 
d="M213 334q0 -252 309 -252q139 0 252 61v422q-240 31 -366 6q-195 -39 -195 -237zM471 1042q310 0 391 -187q27 -61 34 -115t7 -128v-616h-104l-2 53q-129 -72 -299 -70t-288 83t-118 272q0 346 438 346q94 0 244 -21q-2 61 -13 105q-28 112 -139 148q-65 22 -185 22
t-214 -60l-67 72q119 96 315 96zM637 1194h-92l-152 240h137z" />
    <glyph glyph-name="aacute" unicode="&#xe1;" horiz-adv-x="1034" 
d="M213 334q0 -252 309 -252q139 0 252 61v422q-240 31 -366 6q-195 -39 -195 -237zM471 1042q310 0 391 -187q27 -61 34 -115t7 -128v-616h-104l-2 53q-129 -72 -299 -70t-288 83t-118 272q0 346 438 346q94 0 244 -21q-2 61 -13 105q-28 112 -139 148q-65 22 -185 22
t-214 -60l-67 72q119 96 315 96zM537 1194h-93l107 240h137z" />
    <glyph glyph-name="acircumflex" unicode="&#xe2;" horiz-adv-x="1034" 
d="M213 334q0 -252 309 -252q139 0 252 61v422q-240 31 -366 6q-195 -39 -195 -237zM471 1042q310 0 391 -187q27 -61 34 -115t7 -128v-616h-104l-2 53q-129 -72 -299 -70t-288 83t-118 272q0 346 438 346q94 0 244 -21q-2 61 -13 105q-28 112 -139 148q-65 22 -185 22
t-214 -60l-67 72q119 96 315 96zM860 1171h-123l-205 218l-210 -218h-123l268 281h133z" />
    <glyph glyph-name="atilde" unicode="&#xe3;" horiz-adv-x="1034" 
d="M213 334q0 -250 309 -250q139 0 252 59v422q-240 32 -366 6q-195 -40 -195 -237zM471 1042q310 0 391 -187q27 -61 34 -115t7 -128v-616h-104l-2 53q-129 -72 -299 -70t-288 83t-118 272q0 346 438 346q94 0 244 -21q-2 61 -13 105q-28 112 -139 148q-65 22 -185 22
t-214 -60l-67 72q119 96 315 96zM688 1333q56 0 127 74l49 -70q-96 -88 -186 -88q-55 0 -144 41t-137 41q-73 0 -155 -92l-49 70q104 111 206 110q55 0 143 -43q90 -43 146 -43z" />
    <glyph glyph-name="adieresis" unicode="&#xe4;" horiz-adv-x="1034" 
d="M213 334q0 -250 309 -250q139 0 252 59v422q-240 31 -366 6q-195 -39 -195 -237zM471 1042q310 0 391 -187q27 -61 34 -115t7 -128v-616h-104l-2 53q-129 -72 -293 -72q-144 4 -219 42q-74 37 -112 77q-81 84 -81 238q0 346 438 346q94 0 244 -21q-2 61 -13 105
q-28 112 -139 148q-65 22 -185 22t-214 -60l-67 72q119 96 315 96zM713 1366q29 0 48 -19t19 -49t-19 -49q-19 -20 -48 -20t-48 20t-20 49q-1 28 19 48t49 20zM350 1366q29 0 48 -19q20 -19 20 -41q1 -50 -41 -71q-12 -6 -34 -6t-41 20t-19 49q0 28 19 48t48 20z" />
    <glyph glyph-name="aring" unicode="&#xe5;" horiz-adv-x="1034" 
d="M213 334q0 -250 309 -250q139 0 252 59v422q-240 31 -366 6q-195 -39 -195 -237zM471 1042q310 0 391 -187q27 -61 34 -115t7 -128v-616h-104l-2 53q-129 -72 -293 -72q-144 4 -219 42q-74 37 -112 77q-81 84 -81 238q0 346 438 346q94 0 244 -21q-2 61 -13 105
q-28 112 -139 148q-65 22 -185 22t-214 -60l-67 72q119 96 315 96zM527 1503q-67 0 -113 -46t-47 -114q0 -69 47 -115q48 -46 114 -46t113 47t47 115t-47 113q-47 46 -114 46zM528 1581q96 0 167 -71t71 -166q0 -96 -71 -166t-167 -70t-167 71t-71 165t71 166q71 71 167 71z
" />
    <glyph glyph-name="ae" unicode="&#xe6;" horiz-adv-x="1681" 
d="M213 334q0 -250 309 -250q139 0 252 59v422q-386 51 -496 -56q-65 -61 -65 -175zM1462 559v123q0 195 -164 245q-43 13 -92 13q-116 0 -192 -63t-76 -199v-119h524zM903 -4h-104l-2 53q-127 -72 -293 -72q-291 0 -379 190q-33 71 -33 167q0 346 438 346q94 0 244 -21v13
q-4 95 -31 141q-26 45 -60 69q-74 52 -220 52t-240 -60l-67 72q119 96 315 96q303 0 385 -188q41 92 133 141t219 49q182 0 278 -97t97 -269v-209h-647v-172q0 -107 69 -163t195 -56t266 86l70 -66q-144 -117 -362 -121q-188 0 -271 109v-90z" />
    <glyph glyph-name="ccedilla" unicode="&#xe7;" horiz-adv-x="913" 
d="M106 397v230q0 201 109 309t292 108t308 -126l-96 -52q-96 70 -215 70t-194 -78t-74 -231v-230q0 -153 74 -231t194 -78q119 0 215 72l96 -51q-115 -96 -250 -117q-43 -10 -86 -10l-59 -82q38 16 64 16q105 0 158 -43q52 -43 52 -117t-42 -118q-73 -77 -220 -78
q-84 0 -211 47l29 67q78 -43 163 -45t136 29t51 84t-33 80q-74 60 -239 -12l-27 30l109 150q-141 27 -223 131q-81 104 -81 276z" />
    <glyph glyph-name="egrave" unicode="&#xe8;" horiz-adv-x="976" 
d="M760 559v123q0 134 -75 196t-185 62t-188 -63q-77 -63 -76 -199v-119h524zM106 311v363q0 174 106 272t292 98q184 0 280 -97t97 -269v-209h-648v-170q0 -219 248 -219q160 0 281 82l72 -64q-147 -121 -342 -121q-194 0 -290 89t-96 245zM610 1194h-92l-151 240h137z" />
    <glyph glyph-name="eacute" unicode="&#xe9;" horiz-adv-x="976" 
d="M760 559v123q0 134 -75 196t-185 62t-188 -63q-77 -63 -76 -199v-119h524zM106 311v363q0 174 106 272t292 98q184 0 280 -97t97 -269v-209h-648v-170q0 -219 248 -219q160 0 281 82l72 -64q-147 -121 -342 -121q-194 0 -290 89t-96 245zM494 1194h-93l107 240h137z" />
    <glyph glyph-name="ecircumflex" unicode="&#xea;" horiz-adv-x="976" 
d="M760 559v123q0 134 -75 196t-185 62t-188 -63q-77 -63 -76 -199v-119h524zM106 311v363q0 116 50 200t138 127q89 43 211 43t207 -45q169 -89 169 -321v-209h-648v-170q0 -219 248 -219q160 0 281 82l72 -64q-147 -121 -342 -121q-194 0 -290 89t-96 245zM825 1171h-123
l-204 218l-211 -218h-123l270 281h131z" />
    <glyph glyph-name="edieresis" unicode="&#xeb;" horiz-adv-x="976" 
d="M760 559v123q0 134 -75 196t-185 62t-188 -63q-77 -63 -76 -199v-119h524zM106 311v363q0 116 50 200t138 127q89 43 211 43t207 -45q169 -89 169 -321v-209h-648v-170q0 -219 248 -219q160 0 281 82l72 -64q-147 -121 -342 -121q-194 0 -290 89t-96 245zM736 1332
q9 -16 9 -44t-24 -44t-48 -15q-24 0 -43 20q-37 39 -13 78t62 39t57 -34zM318 1366q35 0 50 -24t15 -54q-1 -29 -25 -44t-48 -15t-43 20q-19 21 -19 41q0 76 70 76z" />
    <glyph glyph-name="igrave" unicode="&#xec;" horiz-adv-x="315" 
d="M225 0h-129v1026h129v-1026zM266 1194h-92l-151 240h137z" />
    <glyph glyph-name="iacute" unicode="&#xed;" horiz-adv-x="319" 
d="M225 0h-129v1026h129v-1026zM156 1194h-95l109 240h137z" />
    <glyph glyph-name="icircumflex" unicode="&#xee;" horiz-adv-x="315" 
d="M225 0h-129v1026h129v-1026zM494 1171h-123l-205 218l-211 -218h-123l270 281h131z" />
    <glyph glyph-name="idieresis" unicode="&#xef;" horiz-adv-x="315" 
d="M225 0h-129v1026h129v-1026zM279 1292q0 24 15 49t53 25t58 -34t-1 -69q-21 -34 -54 -34t-52 20q-19 19 -19 43zM-8 1229q-78 1 -78 77q0 22 20 41q21 19 50 19t48 -19t19 -49t-19 -49q-18 -20 -40 -20z" />
    <glyph glyph-name="eth" unicode="&#xf0;" horiz-adv-x="1177" 
d="M575 752q-93 0 -169 -43t-118 -118t-42 -165q0 -138 94 -234t235 -96q92 0 167 44t117 119t42 167q-1 142 -95 234t-231 92zM1030 936v-508q0 -188 -132 -320t-324 -132t-324 132q-133 132 -133 317t131 312t321 127q99 0 191 -47t147 -149v274q0 160 -102 264l-115 -116
l-53 53l111 110q-92 68 -247 68t-265 -96l-80 90q146 125 344 125t325 -90l115 112l51 -53l-106 -104q145 -145 145 -369z" />
    <glyph glyph-name="ntilde" unicode="&#xf1;" horiz-adv-x="1067" 
d="M936 696v-696h-129v690q0 126 -77 188t-211 62t-249 -57v-883h-129v1026h105l2 -53q131 69 295 69t271 -75q56 -39 89 -109t33 -162zM686 1333q68 0 139 74l49 -70q-94 -88 -186 -88q-53 0 -143 41t-137 41q-74 0 -154 -92l-51 70q104 111 209 110q53 0 142 -43t132 -43z
" />
    <glyph glyph-name="ograve" unicode="&#xf2;" horiz-adv-x="1013" 
d="M778 385v254q0 166 -99 249q-64 52 -169 52q-274 0 -274 -301v-254q0 -127 68 -212t205 -85q136 0 203 84q66 84 66 213zM106 385v254q0 197 104 302t298 105q192 0 296 -109q104 -110 103 -298v-254q0 -161 -90 -277q-45 -58 -124 -92t-173 -34q-251 1 -354 173
q-60 101 -60 230zM625 1194h-93l-151 240h137z" />
    <glyph glyph-name="oacute" unicode="&#xf3;" horiz-adv-x="1013" 
d="M778 385v254q0 166 -99 249q-64 52 -169 52q-274 0 -274 -301v-254q0 -127 68 -212t205 -85q136 0 203 84q66 84 66 213zM106 385v254q0 197 104 302t298 105q192 0 296 -109q104 -110 103 -298v-254q0 -161 -90 -277q-45 -58 -124 -92t-173 -34q-251 1 -354 173
q-60 101 -60 230zM520 1194h-94l106 240h138z" />
    <glyph glyph-name="ocircumflex" unicode="&#xf4;" horiz-adv-x="1013" 
d="M778 385v254q0 141 -70 221q-71 80 -198 80q-274 0 -274 -301v-254q0 -127 68 -212t205 -85q136 0 203 84q66 84 66 213zM106 385v254q0 265 184 360q91 47 220 48q190 0 294 -110t103 -298v-254q0 -161 -90 -277q-45 -58 -124 -92t-173 -34q-251 1 -354 173
q-60 101 -60 230zM840 1171h-123l-205 218l-211 -218h-123l271 281h131z" />
    <glyph glyph-name="otilde" unicode="&#xf5;" horiz-adv-x="1013" 
d="M778 385v254q0 193 -123 264q-61 37 -145 37q-274 0 -274 -301v-254q0 -127 68 -212t205 -85q136 0 203 84q66 84 66 213zM106 385v254q0 197 104 302t298 105q192 0 296 -109q104 -110 103 -298v-254q0 -208 -133 -320q-101 -85 -264 -83q-241 0 -344 173
q-60 101 -60 230zM666 1333q56 0 129 74l49 -70q-96 -88 -187 -88q-53 0 -143 41t-137 41q-74 0 -154 -92l-51 70q104 111 207 110q55 0 143 -43t144 -43z" />
    <glyph glyph-name="odieresis" unicode="&#xf6;" horiz-adv-x="1013" 
d="M778 385v254q0 141 -70 221q-71 80 -198 80q-274 0 -274 -301v-254q0 -127 68 -212t205 -85q136 0 203 84q66 84 66 213zM106 385v254q0 265 184 360q91 47 220 48q190 0 294 -110t103 -298v-254q0 -161 -90 -277q-45 -58 -124 -92t-173 -34q-251 1 -354 173
q-60 101 -60 230zM625 1292q0 24 15 49t52 25q38 0 59 -34q9 -15 9 -44t-24 -44t-49 -15q-24 0 -43 20q-19 19 -19 43zM277 1341q15 25 53 25q39 0 58 -34q9 -16 9 -44t-24 -44t-47 -15q-23 0 -43 20q-21 19 -21 43t15 49z" />
    <glyph glyph-name="divide" unicode="&#xf7;" horiz-adv-x="948" 
d="M391 253q1 39 41 65q18 12 47 12t53 -25t25 -59q0 -34 -25 -58q-24 -24 -58 -24t-58 24t-25 65zM846 571h-744v117h744v-117zM474 1096q34 0 58 -25t25 -59q0 -34 -31 -64q-31 -31 -85 -12q-50 20 -50 66q1 46 25 70t58 24z" />
    <glyph glyph-name="oslash" unicode="&#xf8;" horiz-adv-x="1013" 
d="M778 385v254q0 166 -96 246l-270 -783q45 -14 98 -14q135 0 202 84q66 84 66 213zM236 639v-254q0 -160 96 -240l270 781q-41 14 -92 14q-274 0 -274 -301zM907 639v-254q0 -208 -133 -320q-101 -85 -264 -83q-74 0 -135 16l-35 -100h-94l47 135q-94 51 -140 145t-47 207
v254q0 197 104 302t300 106q70 0 129 -15l35 96h94l-45 -129q184 -100 184 -360z" />
    <glyph glyph-name="ugrave" unicode="&#xf9;" 
d="M926 0h-105l-2 53q-129 -69 -292 -69t-280 80q-116 80 -116 266v696h129v-690q0 -126 77 -188t211 -62t249 57v883h129v-1026zM649 1194h-92l-151 240h137z" />
    <glyph glyph-name="uacute" unicode="&#xfa;" 
d="M926 0h-105l-2 53q-129 -69 -292 -69t-280 80q-116 80 -116 266v696h129v-690q0 -126 77 -188t211 -62t249 57v883h129v-1026zM532 1194h-92l107 240h137z" />
    <glyph glyph-name="ucircumflex" unicode="&#xfb;" 
d="M926 0h-105l-2 53q-129 -69 -292 -69t-280 80q-116 80 -116 266v696h129v-690q0 -126 77 -188t211 -62t249 57v883h129v-1026zM864 1171h-123l-204 218l-211 -218h-123l268 281h131z" />
    <glyph glyph-name="udieresis" unicode="&#xfc;" 
d="M926 0h-105l-2 53q-129 -69 -292 -69t-280 80q-116 80 -116 266v696h129v-690q0 -126 77 -188t211 -62t249 57v883h129v-1026zM775 1332q9 -16 9 -44t-24 -44t-48 -15q-24 0 -43 20q-36 38 -13 78q23 39 61 39q39 0 58 -34zM349 1229q-24 0 -43 20t-19 53q1 33 25 49
q24 15 52 15t43 -24t15 -54q0 -29 -24 -44t-49 -15z" />
    <glyph glyph-name="yacute" unicode="&#xfd;" horiz-adv-x="1067" 
d="M926 1026v-1100q0 -167 -96 -248t-252 -84q-199 0 -361 107l51 76q137 -80 279 -80q248 0 250 219v141q-119 -57 -287 -57q-265 0 -348 183q-31 69 -31 163v680h129v-672q0 -256 275 -256q145 0 262 54v874h129zM539 1194h-93l107 240h137z" />
    <glyph glyph-name="thorn" unicode="&#xfe;" horiz-adv-x="1083" 
d="M825 336v346q0 256 -274 256q-145 0 -262 -53v-742q115 -57 249 -57t211 61q76 62 76 189zM289 1432v-449q139 59 273 59q209 0 314 -112q80 -86 78 -240v-360q0 -217 -170 -300q-90 -46 -234 -46q-143 0 -261 59v-401h-129v1790h129z" />
    <glyph glyph-name="ydieresis" unicode="&#xff;" horiz-adv-x="1067" 
d="M926 1026v-1100q0 -167 -96 -248t-252 -84q-199 0 -361 107l51 76q137 -80 279 -80q248 0 250 219v141q-119 -57 -287 -57q-265 0 -348 183q-31 69 -31 163v680h129v-672q0 -256 275 -256q145 0 262 54v874h129zM723 1366q29 0 47 -19t18 -49t-19 -49q-19 -20 -47 -20
t-48 20t-21 49q1 28 21 48t49 20zM360 1366q28 0 48 -19t20 -49t-19 -49q-19 -20 -49 -20t-48 20q-19 20 -19 49q0 28 19 48t48 20z" />
    <glyph glyph-name="Amacron" unicode="&#x100;" horiz-adv-x="1236" 
d="M401 612h433l-216 641zM1171 0h-139l-166 494h-497l-166 -494h-140l492 1434h125zM860 1663h-483v78h483v-78z" />
    <glyph glyph-name="amacron" unicode="&#x101;" horiz-adv-x="1034" 
d="M213 334q0 -250 309 -250q139 0 252 59v422q-240 31 -366 6q-195 -39 -195 -237zM471 1042q310 0 391 -187q27 -61 34 -115t7 -128v-616h-104l-2 53q-129 -72 -293 -72q-144 4 -219 42q-74 37 -112 77q-81 84 -81 238q0 346 438 346q94 0 244 -21q-2 61 -13 105
q-28 112 -139 148q-65 22 -185 22t-214 -60l-67 72q119 96 315 96zM768 1249h-481v78h481v-78z" />
    <glyph glyph-name="Abreve" unicode="&#x102;" horiz-adv-x="1236" 
d="M401 612h433l-216 641zM1171 0h-139l-166 494h-497l-166 -494h-140l492 1434h125zM887 1851q0 -113 -78 -187q-77 -74 -189 -75q-112 0 -190 75t-78 187h72q4 -76 58 -130t136 -54t138 54q55 54 57 130h74z" />
    <glyph glyph-name="abreve" unicode="&#x103;" horiz-adv-x="1034" 
d="M213 334q0 -250 309 -250q139 0 252 59v422q-386 51 -496 -56q-65 -61 -65 -175zM471 1042q310 0 391 -187q27 -61 34 -115t7 -128v-616h-104l-2 53q-129 -72 -299 -70t-288 83t-118 272q0 346 438 346q94 0 244 -21q-2 61 -13 105q-28 112 -139 148q-65 22 -185 22
t-214 -60l-67 72q119 96 315 96zM795 1444q0 -113 -78 -188q-78 -74 -190 -74q-111 0 -189 74t-78 188h74q2 -76 57 -130t123 -54q126 0 181 93q26 42 28 91h72z" />
    <glyph glyph-name="Aogonek" unicode="&#x104;" horiz-adv-x="1327" 
d="M401 612h433l-216 641zM961 -225q1 -55 33 -85t83 -30q96 0 156 88l59 -27q-82 -133 -235 -133q-76 0 -133 44t-58 135q0 121 166 233l-166 492h-497l-166 -492h-140l492 1434h125l491 -1434l-67 -10q-143 -113 -143 -215z" />
    <glyph glyph-name="aogonek" unicode="&#x105;" horiz-adv-x="1034" 
d="M213 334q0 -250 309 -250q139 0 252 59v422q-240 31 -366 6q-195 -39 -195 -237zM641 -240q0 125 158 236l-2 53q-129 -72 -299 -70t-288 83t-118 272q0 346 438 346q94 0 244 -21q-2 61 -13 105q-28 112 -139 148q-65 22 -185 22t-214 -60l-67 72q119 96 315 96
q310 0 391 -187q27 -61 34 -115t7 -128v-616l-33 -8q-135 -113 -135 -215q0 -59 34 -88t89 -29q88 0 148 88l61 -27q-82 -133 -236 -133q-108 0 -160 74q-30 41 -30 102z" />
    <glyph glyph-name="Cacute" unicode="&#x106;" horiz-adv-x="1150" 
d="M147 459v528q1 233 135 357t357 124q150 0 256 -59t160 -166l-99 -49q-90 154 -307 154q-168 0 -268 -92t-100 -271v-526q0 -177 100 -269t268 -92q217 0 307 154l99 -49q-53 -105 -159 -165t-257 -61q-223 1 -357 125t-135 357zM614 1606h-94l107 239h137z" />
    <glyph glyph-name="cacute" unicode="&#x107;" horiz-adv-x="913" 
d="M106 397v230q0 201 109 309t292 108t308 -126l-96 -52q-96 70 -215 70t-194 -78t-74 -231v-230q0 -153 74 -231t194 -78q119 0 215 72l96 -51q-125 -127 -308 -127t-292 107t-109 308zM459 1194h-94l108 240h137z" />
    <glyph glyph-name="Cdotaccent" unicode="&#x10a;" horiz-adv-x="1150" 
d="M147 459v528q1 233 135 357t344 124q319 -1 429 -225l-99 -49q-90 154 -307 154q-168 0 -268 -92t-100 -271v-526q0 -177 100 -269t268 -92q217 0 307 154l99 -49q-53 -105 -159 -165t-257 -61q-223 1 -357 125t-135 357zM616 1774q28 0 48 -20t20 -40q0 -22 -6 -34
q-21 -44 -56 -44t-55 20t-20 50q0 28 20 48t49 20z" />
    <glyph glyph-name="cdotaccent" unicode="&#x10b;" horiz-adv-x="913" 
d="M106 397v230q0 135 52 230q100 187 348 187q184 0 309 -126l-96 -52q-96 70 -215 70t-194 -78t-74 -231v-230q0 -153 74 -231t194 -78q119 0 215 72l96 -51q-125 -127 -309 -127q-248 0 -348 187q-52 95 -52 228zM459 1366q29 0 47 -19t18 -49t-19 -49q-19 -20 -53 -20
q-34 -1 -48 25q-15 26 -15 50q1 24 21 42q20 20 49 20z" />
    <glyph glyph-name="Ccaron" unicode="&#x10c;" horiz-adv-x="1150" 
d="M147 459v528q1 233 135 357t344 124q319 -1 429 -225l-99 -49q-90 154 -307 154q-168 0 -268 -92t-100 -271v-526q0 -177 100 -269t268 -92q217 0 307 154l99 -49q-53 -105 -159 -165t-257 -61q-223 1 -357 125t-135 357zM643 1585h-133l-268 281h123l210 -219l205 219
h123z" />
    <glyph glyph-name="ccaron" unicode="&#x10d;" horiz-adv-x="913" 
d="M106 397v230q0 135 52 230q100 187 348 187q184 0 309 -126l-96 -52q-96 70 -215 70t-194 -78t-74 -231v-230q0 -153 74 -231t194 -78q119 0 215 72l96 -51q-125 -127 -309 -127q-248 0 -348 187q-52 95 -52 228zM528 1178h-131l-270 280h123l211 -219l205 219h122z" />
    <glyph glyph-name="Dcaron" unicode="&#x10e;" horiz-adv-x="1304" 
d="M317 1313v-1192h381q154 1 239 69t85 238v526q0 166 -92 262t-271 97h-342zM182 1434h477q240 0 368 -134t128 -346v-526q0 -330 -283 -406q-78 -22 -174 -22h-516v1434zM723 1585h-133l-268 281h122l211 -219l205 219h123z" />
    <glyph glyph-name="dcaron" unicode="&#x10f;" horiz-adv-x="1214" 
d="M510 940q-274 0 -274 -256v-356q0 -121 78 -181q79 -59 212 -59t246 57v742q-117 53 -262 53zM901 0h-104l-2 53q-125 -69 -291 -69t-282 80t-116 266v362q0 191 121 277q103 73 254 73t291 -57v449h129v-1434zM1059 1504q0 34 23 58q24 24 55 24t55 -24q42 -42 12 -89
l-69 -152h-86l43 125q-33 24 -33 58z" />
    <glyph glyph-name="Dcroat" unicode="&#x110;" horiz-adv-x="1323" 
d="M342 1313v-557h346v-78h-346v-557h383q154 1 239 69t85 238v526q-1 166 -93 262t-270 97h-344zM209 1434h477q240 0 368 -134t128 -346v-526q0 -330 -284 -406q-79 -22 -173 -22h-516v678h-186v78h186v678z" />
    <glyph glyph-name="dcroat" unicode="&#x111;" horiz-adv-x="1079" 
d="M510 940q-274 0 -274 -256v-356q0 -121 78 -181q79 -59 212 -59t246 57v742q-117 53 -262 53zM901 1276h121v-78h-121v-1198h-104l-2 53q-125 -69 -291 -69t-282 80t-116 266v362q0 191 121 277q103 73 254 73t291 -57v213h-274v78h274v158h129v-158z" />
    <glyph glyph-name="Emacron" unicode="&#x112;" horiz-adv-x="1169" 
d="M1063 1313h-748v-537h693v-121h-693v-534h758v-121h-891v1434h881v-121zM870 1663h-483v78h483v-78z" />
    <glyph glyph-name="emacron" unicode="&#x113;" horiz-adv-x="976" 
d="M760 559v123q0 134 -75 196t-185 62t-188 -63q-77 -63 -76 -199v-119h524zM106 311v363q0 174 106 272t292 98q184 0 280 -97t97 -269v-209h-648v-170q0 -219 248 -219q160 0 281 82l72 -64q-147 -121 -342 -121q-194 0 -290 89t-96 245zM733 1266h-481v77h481v-77z" />
    <glyph glyph-name="Edotaccent" unicode="&#x116;" horiz-adv-x="1169" 
d="M1063 1313h-746v-537h691v-121h-691v-534h758v-121h-893v1434h881v-121zM594 1772q29 0 48 -20q20 -20 20 -47q0 -28 -20 -48q-37 -38 -76 -15q-40 23 -41 57q-1 33 19 53t50 20z" />
    <glyph glyph-name="edotaccent" unicode="&#x117;" horiz-adv-x="976" 
d="M760 559v123q0 134 -75 196t-185 62t-188 -63q-77 -63 -76 -199v-119h524zM106 311v363q0 116 50 200t138 127q89 43 211 43t207 -45q169 -89 169 -321v-209h-648v-170q0 -219 248 -219q160 0 281 82l72 -64q-147 -121 -342 -121q-194 0 -290 89t-96 245zM426 1292
q0 24 15 49t52 25q38 0 59 -34q9 -15 9 -44q-1 -29 -25 -44t-48 -15t-43 20q-19 19 -19 43z" />
    <glyph glyph-name="Eogonek" unicode="&#x118;" horiz-adv-x="1234" 
d="M1063 1313h-746v-535h691v-121h-691v-534h758v-121h-184q-4 -4 -35 -32q-32 -28 -58 -54t-50 -68q-24 -40 -23 -86q0 -46 33 -76t84 -32q94 0 153 90l60 -29q-37 -61 -99 -96t-137 -35q-74 0 -131 43t-57 119t49 138q49 63 68 79q20 17 31 27t14 12h-609v1432h879v-121z
" />
    <glyph glyph-name="eogonek" unicode="&#x119;" horiz-adv-x="976" 
d="M760 559v123q0 136 -75 196t-185 60t-188 -62q-77 -62 -76 -198v-119h524zM428 -215q0 94 115 197q-29 -2 -56 -2q-244 0 -335 152q-46 75 -46 179v361q0 116 50 200t138 128q89 44 211 44t207 -46q169 -91 169 -320v-209h-648v-170q0 -219 248 -219q160 0 281 82l72 -66
q-76 -59 -170 -90q-141 -115 -142 -215q0 -57 33 -87t84 -30q94 0 154 88l59 -26q-78 -133 -234 -133q-76 0 -133 44t-57 138z" />
    <glyph glyph-name="Ecaron" unicode="&#x11a;" horiz-adv-x="1169" 
d="M1063 1313h-746v-537h691v-121h-691v-534h758v-121h-893v1434h881v-121zM643 1585h-131l-268 281h121l213 -219l204 219h121z" />
    <glyph glyph-name="ecaron" unicode="&#x11b;" horiz-adv-x="976" 
d="M760 559v123q0 195 -164 245q-43 13 -94 13q-113 0 -190 -63t-76 -199v-119h524zM106 311v363q0 174 106 272t292 98q184 0 280 -97t97 -269v-209h-648v-170q0 -219 248 -219q160 0 281 82l72 -64q-147 -121 -342 -121q-194 0 -290 89t-96 245zM563 1178h-131l-268 280
h121l213 -219l204 219h121z" />
    <glyph glyph-name="Gbreve" unicode="&#x11e;" horiz-adv-x="1296" 
d="M147 434v551q1 236 135 360t359 123q151 0 259 -59t161 -164l-107 -51q-94 154 -309 154q-172 0 -268 -90t-96 -273v-551q0 -203 157 -290q79 -44 175 -45q268 -3 349 177q30 68 29 158v213h-270v115h403v-762h-104l-4 178q-52 -102 -158 -151t-212 -49t-189 25
q-82 26 -153 78t-114 143t-43 210zM915 1851q-1 -113 -77 -187t-189 -75q-74 0 -134 34t-96 94t-36 134h72q4 -76 58 -130t136 -54q81 0 137 54t58 130h71z" />
    <glyph glyph-name="gbreve" unicode="&#x11f;" horiz-adv-x="1042" 
d="M526 938q-133 0 -212 -60t-78 -180v-344q0 -256 274 -256q145 1 262 54v729q-113 57 -246 57zM106 346v350q0 94 34 164t92 108q113 74 274 74q162 0 289 -71l2 53h104v-1098q0 -112 -46 -188q-87 -145 -292 -144q-205 0 -373 107l54 76q135 -80 266 -80t196 51t66 168
v141q-121 -57 -287 -57q-265 0 -348 183q-31 69 -31 163zM788 1444q0 -113 -76 -188q-76 -74 -190 -74t-190 74t-76 188h72q2 -76 57 -130t123 -54q129 0 182 93q25 42 27 91h71z" />
    <glyph glyph-name="Gdotaccent" unicode="&#x120;" horiz-adv-x="1296" 
d="M147 434v551q1 236 135 360t359 123q151 0 259 -59t161 -164l-107 -51q-94 154 -309 154q-172 0 -268 -90t-96 -273v-551q-1 -90 31 -158q81 -174 327 -178q142 0 248 78t104 258v213h-270v115h403v-762h-104l-4 178q-52 -102 -158 -151t-212 -49t-189 25q-82 26 -153 78
t-114 143t-43 210zM626 1776q28 0 47 -20t19 -48q0 -29 -19 -48q-19 -20 -47 -20t-48 20t-20 49q0 27 20 47t48 20z" />
    <glyph glyph-name="gdotaccent" unicode="&#x121;" horiz-adv-x="1042" 
d="M548 938q-112 0 -173 -25t-101 -79q-39 -55 -38 -136v-344q0 -256 274 -256q145 1 262 54v729q-112 57 -224 57zM106 346v350q0 94 34 164t92 108q113 74 274 74q162 0 289 -71l2 53h104v-1098q0 -112 -46 -188q-87 -145 -292 -144q-205 0 -373 107l54 76
q135 -80 266 -80t196 51t66 168v141q-121 -57 -287 -57q-265 0 -348 183q-31 69 -31 163zM455 1298q0 28 19 48t48 20t48 -19q20 -19 20 -49t-20 -49q-20 -20 -48 -20q-29 0 -48 20t-19 49z" />
    <glyph glyph-name="Gcommaaccent" unicode="&#x122;" horiz-adv-x="1296" 
d="M571 -264q-1 25 17 41t41 16t39 -16q16 -15 16 -33t-6 -31l-55 -119h-60l35 97q-27 20 -27 45zM147 434v551q1 236 135 360t359 123q151 0 259 -59t161 -164l-107 -51q-94 154 -309 154q-172 0 -268 -90t-96 -273v-551q0 -203 157 -290q79 -44 175 -45q268 -3 349 177
q30 68 29 158v213h-270v115h403v-762h-104l-4 178q-52 -102 -158 -151t-212 -49t-189 25q-82 26 -153 78t-114 143t-43 210z" />
    <glyph glyph-name="gcommaaccent" unicode="&#x123;" horiz-adv-x="1042" 
d="M526 938q-133 0 -212 -60t-78 -180v-344q0 -256 274 -256q145 1 262 54v729q-113 57 -246 57zM106 346v350q0 94 34 164t92 108q113 74 274 74q162 0 289 -71l2 53h104v-1098q0 -166 -95 -248t-272 -83q-176 -1 -344 106l54 76q135 -80 266 -80t196 51t66 168v141
q-121 -57 -288 -57q-166 0 -272 83t-106 263zM596 1293q0 -26 -16 -42t-39 -16t-47 23t-2 59l53 117h61l-35 -97q25 -18 25 -44z" />
    <glyph glyph-name="Hbar" unicode="&#x126;" horiz-adv-x="1392" 
d="M340 1038v-262h713v262h-713zM1186 1116h123v-78h-123v-1038h-133v655h-713v-655h-133v1038h-121v78h121v318h133v-318h713v318h133v-318z" />
    <glyph glyph-name="hbar" unicode="&#x127;" horiz-adv-x="1110" 
d="M850 690q0 250 -283 250q-133 0 -254 -57v-883h-129v1188h-151v78h151v168h129v-168h392v-78h-392v-205q123 61 280 61t271 -80q115 -80 115 -268v-696h-129v690z" />
    <glyph glyph-name="Imacron" unicode="&#x12a;" horiz-adv-x="499" 
d="M317 0h-135v1434h135v-1434zM492 1673h-484v78h484v-78z" />
    <glyph glyph-name="imacron" unicode="&#x12b;" horiz-adv-x="315" 
d="M225 0h-129v1026h129v-1026zM399 1249h-483v78h483v-78z" />
    <glyph glyph-name="Iogonek" unicode="&#x12e;" horiz-adv-x="499" 
d="M489 -283q-84 -131 -235 -131q-74 0 -132 44t-59 132q0 121 156 230l-37 8v1434h135v-1434q-160 -123 -159 -225q0 -57 32 -87t86 -32q92 0 154 90z" />
    <glyph glyph-name="iogonek" unicode="&#x12f;" horiz-adv-x="315" 
d="M162 -414q-106 0 -160 73q-31 42 -31 103q0 121 156 230l-31 8v1024h129v-1024q-160 -123 -159 -225q0 -57 34 -88t82 -31q94 0 156 90l59 -29q-84 -131 -235 -131zM155 1366q34 0 53 -19t19 -54t-23 -49q-23 -15 -53 -15q-30 -1 -44 25q-15 26 -15 44t15 43q14 25 48 25
z" />
    <glyph glyph-name="Idotaccent" unicode="&#x130;" horiz-adv-x="499" 
d="M317 0h-135v1434h135v-1434zM182 1699q0 77 63 77q34 0 53 -20t19 -47q0 -28 -19 -48q-18 -21 -42 -21t-49 15t-25 44z" />
    <glyph glyph-name="dotlessi" unicode="&#x131;" horiz-adv-x="315" 
d="M225 0h-129v1026h129v-1026z" />
    <glyph glyph-name="IJ" unicode="&#x132;" horiz-adv-x="1185" 
d="M1083 1434v-1010q1 -215 -121 -329t-327 -113q-27 0 -57 2v120q170 -10 271 69t101 251v1010h133zM317 0h-135v1434h135v-1434z" />
    <glyph glyph-name="ij" unicode="&#x133;" horiz-adv-x="870" 
d="M289 0h-129v1026h129v-1026zM721 1026v-1149q0 -98 -52 -167t-145 -99q-51 -18 -98 -21l-4 107q45 6 82 22q88 45 88 177v1130h129zM226 1454q32 0 52 -20t19 -52q0 -32 -19 -52q-20 -22 -52 -22t-54 21q-22 20 -20 53q0 32 21 52t53 20zM584 1382q0 32 21 52t53 20
t52 -20t19 -52q0 -32 -19 -52q-18 -22 -52 -22t-54 21q-20 20 -20 53z" />
    <glyph glyph-name="Kcommaaccent" unicode="&#x136;" horiz-adv-x="1224" 
d="M605 -207q24 0 46 -22t4 -58l-55 -119h-59l32 97q-25 20 -25 45t17 41q16 16 40 16zM317 0h-135v1434h135v-701l578 701h170l-496 -598l592 -836h-164l-514 729l-166 -201v-528z" />
    <glyph glyph-name="kcommaaccent" unicode="&#x137;" horiz-adv-x="1021" 
d="M467 -264q0 25 17 41t40 16t45 -22t4 -58l-55 -119h-59l35 97q-27 20 -27 45zM281 0h-129v1434h129v-867l483 473h162l-408 -413l465 -627h-147l-396 539l-159 -148v-391z" />
    <glyph glyph-name="Lacute" unicode="&#x139;" horiz-adv-x="985" 
d="M317 121h601v-121h-736v1434h135v-1313zM319 1606h-94l107 239h137z" />
    <glyph glyph-name="lacute" unicode="&#x13a;" horiz-adv-x="411" 
d="M281 0h-129v1434h129v-1434zM268 1602h-92l107 239h137z" />
    <glyph glyph-name="Lcommaaccent" unicode="&#x13b;" horiz-adv-x="985" 
d="M475 -264q1 25 17 41t38 16t47 -23q24 -23 3 -57l-54 -119h-61l35 97q-25 20 -25 45zM317 121h601v-121h-736v1434h135v-1313z" />
    <glyph glyph-name="lcommaaccent" unicode="&#x13c;" horiz-adv-x="411" 
d="M218 -207q24 0 40 -16q16 -15 16 -33t-6 -31l-55 -119h-61l34 97q-24 20 -24 45t16 41t40 16zM281 0h-129v1434h129v-1434z" />
    <glyph glyph-name="Lcaron" unicode="&#x13d;" horiz-adv-x="985" 
d="M317 121h601v-121h-736v1434h135v-1313zM637 1504q0 34 22 58q23 24 55 24t56 -24t23 -48q0 -24 -11 -41l-71 -152h-84l43 125q-33 24 -33 58z" />
    <glyph glyph-name="lcaron" unicode="&#x13e;" horiz-adv-x="593" 
d="M281 0h-129v1434h129v-1434zM440 1504q0 34 23 58t55 24t54 -24t22 -48t-8 -41l-72 -152h-84l41 125q-31 24 -31 58z" />
    <glyph glyph-name="Ldot" unicode="&#x13f;" horiz-adv-x="985" 
d="M641 860q31 0 55 -22t23 -55q0 -33 -24 -55q-25 -22 -55 -22t-54 24q-24 22 -23 54q-1 32 23 54t55 22zM317 121h601v-121h-736v1434h135v-1313z" />
    <glyph glyph-name="ldot" unicode="&#x140;" horiz-adv-x="638" 
d="M512 756q30 0 54 -23t24 -55t-24 -54t-54 -22t-54 23t-24 55t24 54t54 22zM281 0h-129v1434h129v-1434z" />
    <glyph glyph-name="Lslash" unicode="&#x141;" horiz-adv-x="1077" 
d="M408 121h602v-121h-736v635l-208 -94l-46 108l254 115v670h134v-611l280 127l49 -108l-329 -148v-573z" />
    <glyph glyph-name="lslash" unicode="&#x142;" horiz-adv-x="729" 
d="M395 0h-135v635l-209 -94l-45 108l254 115v670h135v-611l277 127l51 -108l-328 -148v-694z" />
    <glyph glyph-name="Nacute" unicode="&#x143;" horiz-adv-x="1288" 
d="M1114 0h-137l-670 1165v-1165h-135v1434h133l676 -1180v1180h133v-1434zM657 1602h-94l109 239h135z" />
    <glyph glyph-name="nacute" unicode="&#x144;" horiz-adv-x="1067" 
d="M936 696v-696h-129v690q0 126 -77 188t-211 62t-249 -57v-883h-129v1026h105l2 -53q131 69 295 69t271 -75q56 -39 89 -109t33 -162zM539 1194h-93l107 240h137z" />
    <glyph glyph-name="Ncommaaccent" unicode="&#x145;" horiz-adv-x="1288" 
d="M561 -264q1 25 17 41t38 16t46 -22q23 -22 6 -58l-56 -119h-61l35 97q-25 20 -25 45zM1114 0h-137l-670 1165v-1165h-135v1434h133l676 -1180v1180h133v-1434z" />
    <glyph glyph-name="ncommaaccent" unicode="&#x146;" horiz-adv-x="1067" 
d="M475 -264q1 25 17 41t38 16t47 -23q24 -23 3 -57l-54 -119h-61l35 97q-25 20 -25 45zM936 696v-696h-129v690q0 126 -77 188t-211 62t-249 -57v-883h-129v1026h105l2 -53q131 69 295 69t271 -75q56 -39 89 -109t33 -162z" />
    <glyph glyph-name="Ncaron" unicode="&#x147;" horiz-adv-x="1288" 
d="M1114 0h-137l-670 1165v-1165h-135v1434h133l676 -1180v1180h133v-1434zM711 1585h-131l-269 281h121l213 -219l205 219h123z" />
    <glyph glyph-name="ncaron" unicode="&#x148;" horiz-adv-x="1067" 
d="M936 696v-696h-129v690q0 126 -77 188t-211 62t-249 -57v-883h-129v1026h105l2 -53q131 69 295 69t271 -75q56 -39 89 -109t33 -162zM608 1178h-131l-268 280h123l211 -219l205 219h122z" />
    <glyph glyph-name="Eng" unicode="&#x14a;" horiz-adv-x="1288" 
d="M307 0h-135v1434h133l676 -1180v1180h133v-1573q0 -92 -48 -158q-82 -112 -247 -129l-4 107q164 17 170 176v127l-678 1181v-1165z" />
    <glyph glyph-name="eng" unicode="&#x14b;" horiz-adv-x="1071" 
d="M936 696v-835q0 -96 -51 -164t-140 -98q-53 -23 -104 -25l-4 107q51 6 86 24q84 47 84 174v811q0 126 -77 188t-211 62t-249 -57v-883h-129v1026h105l2 -53q131 69 295 69t271 -75q56 -39 89 -109t33 -162z" />
    <glyph glyph-name="Omacron" unicode="&#x14c;" horiz-adv-x="1275" 
d="M995 432v549q0 174 -91 268t-262 94t-266 -89t-95 -271v-551q0 -207 157 -291q85 -45 178 -45q267 0 349 178q30 68 30 158zM147 432v551q1 237 135 359t359 122q155 0 265 -59q222 -119 222 -424v-549q0 -123 -44 -215t-116 -142q-145 -100 -327 -100q-181 0 -331 100
q-75 50 -119 142t-44 215zM879 1663h-482v78h482v-78z" />
    <glyph glyph-name="omacron" unicode="&#x14d;" horiz-adv-x="1013" 
d="M778 385v254q0 141 -70 221q-71 80 -198 80q-274 0 -274 -301v-254q0 -127 68 -212t205 -85q136 0 203 84q66 84 66 213zM106 385v254q0 265 184 360q91 47 220 48q190 0 294 -110t103 -298v-254q0 -161 -90 -277q-45 -58 -124 -92t-173 -34q-251 1 -354 173
q-60 101 -60 230zM750 1249h-484v78h484v-78z" />
    <glyph glyph-name="Ohungarumlaut" unicode="&#x150;" horiz-adv-x="1275" 
d="M995 432v549q0 174 -91 268t-262 94t-266 -89t-95 -271v-551q-1 -90 31 -158q81 -174 327 -178q144 0 250 78t106 258zM147 432v551q1 237 135 359t359 122q347 0 455 -283q33 -89 32 -200v-549q0 -123 -44 -215t-116 -142q-145 -100 -327 -100q-181 0 -331 100
q-75 50 -119 142t-44 215zM793 1604h-88l102 241h129zM543 1604h-88l102 241h129z" />
    <glyph glyph-name="ohungarumlaut" unicode="&#x151;" horiz-adv-x="1013" 
d="M778 385v254q0 166 -99 249q-64 52 -169 52q-274 0 -274 -301v-254q0 -127 68 -212t205 -85q136 0 203 84q66 84 66 213zM106 385v254q0 197 104 302t298 105q192 0 296 -109q104 -110 103 -298v-254q0 -161 -90 -277q-45 -58 -124 -92t-183 -34q-293 1 -380 254
q-24 69 -24 149zM657 1194h-90l103 240h131zM408 1194h-89l101 240h131z" />
    <glyph glyph-name="OE" unicode="&#x152;" horiz-adv-x="1945" 
d="M942 418v567q0 263 -200 338q-67 25 -152 25q-170 0 -265 -90t-96 -273v-551q0 -183 115 -263q99 -71 217 -72q119 -1 196 30t131 107t54 182zM96 434v551q0 236 133 360t361 123q268 0 377 -194v160h888v-121h-755v-537h690v-121h-690v-534h755v-121h-888v162
q-39 -62 -103 -106q-111 -76 -284 -78q-174 -1 -322 99q-74 50 -118 143t-44 214z" />
    <glyph glyph-name="oe" unicode="&#x153;" horiz-adv-x="1648" 
d="M1430 559v121q0 138 -74 198t-165 60t-147 -24t-97 -85q-40 -61 -40 -153v-117h523zM778 373v266q0 139 -70 219q-71 80 -198 80q-274 0 -274 -299v-256q0 -127 68 -211t204 -84q135 0 203 83q67 83 67 202zM106 383v256q0 195 104 301t300 107q133 -1 217 -55t113 -142
q25 86 111 139q87 53 225 53q182 0 279 -97t97 -269v-207h-649v-174q0 -107 70 -163q71 -56 197 -56t264 86l69 -66q-145 -119 -362 -119q-131 -1 -211 49t-96 134q-31 -76 -111 -128q-81 -52 -199 -52q-225 0 -321 122q-97 122 -97 281z" />
    <glyph glyph-name="Racute" unicode="&#x154;" horiz-adv-x="1259" 
d="M707 754q280 0 280 290q0 115 -73 192t-203 77h-394v-559h390zM182 1434h531q188 0 296 -113q107 -113 107 -282t-84 -270t-244 -120h-67l414 -649h-158l-395 633h-265v-633h-135v1434zM631 1602h-94l108 239h137z" />
    <glyph glyph-name="racute" unicode="&#x155;" horiz-adv-x="720" 
d="M563 1047q68 0 117 -15l-6 -108q-78 20 -135 14q-265 -8 -269 -299v-639h-129v1032h105l4 -149q90 164 313 164zM362 1194h-94l109 240h135z" />
    <glyph glyph-name="Rcommaaccent" unicode="&#x156;" horiz-adv-x="1259" 
d="M557 -264q0 25 17 41t40 16t45 -22t5 -58l-56 -119h-59l33 97q-25 20 -25 45zM707 756q280 0 280 288q0 115 -73 192t-203 77h-394v-557h390zM182 1434h531q188 0 296 -113q107 -113 107 -282t-84 -269t-241 -117l-70 -4l414 -649h-158l-395 633h-265v-633h-135v1434z
" />
    <glyph glyph-name="rcommaaccent" unicode="&#x157;" horiz-adv-x="720" 
d="M147 -264q1 25 17 41t43 16t40 -20q13 -19 13 -33t-6 -27l-55 -119h-60l33 97q-25 20 -25 45zM563 1047q68 0 117 -15l-6 -108q-78 20 -135 14q-265 -8 -269 -299v-639h-129v1032h105l4 -149q90 164 313 164z" />
    <glyph glyph-name="Rcaron" unicode="&#x158;" horiz-adv-x="1259" 
d="M707 754q280 0 280 290q0 115 -73 192t-203 77h-394v-559h390zM182 1434h531q188 0 296 -113q107 -113 107 -282t-84 -270t-244 -120h-67l414 -649h-158l-395 633h-265v-633h-135v1434zM700 1585h-133l-268 281h123l211 -219l205 219h123z" />
    <glyph glyph-name="rcaron" unicode="&#x159;" horiz-adv-x="720" 
d="M563 1047q68 0 117 -15l-6 -108q-78 20 -135 14q-131 -4 -200 -80t-69 -219v-639h-129v1032h105l4 -149q90 164 313 164zM430 1178h-131l-268 280h123l211 -219l204 219h123z" />
    <glyph glyph-name="Sacute" unicode="&#x15a;" horiz-adv-x="1185" 
d="M597 100q181 0 272 78t92 213q0 63 -38 123t-185 118q-50 19 -76 27q-351 106 -443 196q-92 91 -92 216q0 181 130 283t338 102t339 -101t135 -284h-129q-2 129 -99 197t-245 68t-243 -68t-95 -187q0 -74 48 -123t130 -81q82 -33 188 -64q352 -102 434 -266
q34 -68 34 -156q0 -184 -121 -299t-363 -115t-377 119t-137 291h127q3 -121 99 -204t277 -83zM594 1602h-94l108 239h137z" />
    <glyph glyph-name="sacute" unicode="&#x15b;" horiz-adv-x="933" 
d="M464 82q116 0 184 53t67 137q0 105 -116 156q-53 23 -137 46q-83 23 -157 49q-194 67 -194 249q0 111 88 194t268 83t268 -82t88 -205h-123q0 66 -54 122t-175 56t-177 -53t-56 -124t62 -109t166 -66t162 -50q56 -22 109 -57q107 -71 107 -209q0 -175 -165 -257
q-85 -42 -202 -42q-186 0 -288 85q-101 85 -107 214h127q6 -82 72 -136q67 -54 183 -54zM469 1194h-94l108 240h138z" />
    <glyph glyph-name="Scedilla" unicode="&#x15e;" horiz-adv-x="1185" 
d="M598 100q182 0 272 78t91 213q0 63 -38 123t-185 118q-50 19 -76 27q-351 106 -443 196q-92 91 -92 214t61 211q122 176 408 176q207 0 338 -101t135 -284h-129q-2 129 -99 197t-245 68t-243 -68t-95 -188t142 -186q79 -38 205 -75q233 -68 351 -155q136 -98 136 -276
t-118 -294q-118 -115 -364 -117l-55 -77q47 16 109 15t112 -42q51 -41 51 -109q-1 -68 -23 -106q-56 -98 -254 -98q-66 0 -196 47l31 67q80 -47 165 -47q85 -1 121 21q64 38 64 93q0 54 -34 81q-76 60 -238 -15l-27 31l103 142q-207 14 -325 130t-120 277h127
q3 -121 99 -204t278 -83z" />
    <glyph glyph-name="scedilla" unicode="&#x15f;" horiz-adv-x="933" 
d="M464 82q116 0 184 53t67 137q0 105 -116 156q-53 23 -159 53t-168 56t-100 67q-39 41 -50 77t-11 81q0 121 88 204t268 83t268 -82t88 -205h-123q0 66 -54 122t-175 56t-177 -53t-56 -124t62 -109t166 -66t162 -50q56 -22 109 -57q107 -71 107 -209q0 -100 -62 -177
t-178 -103q-41 -14 -117 -19l-57 -77q42 16 104 16t116 -41t54 -117t-41 -121q-72 -77 -221 -77q-84 0 -211 47l29 67q78 -43 163 -45t136 29t51 84t-32 80q-74 61 -240 -13l-27 31l103 141q-158 12 -242 95t-90 200h127q6 -82 72 -136q67 -54 183 -54z" />
    <glyph glyph-name="Scaron" unicode="&#x160;" horiz-adv-x="1185" 
d="M597 100q181 0 272 78t92 213q0 63 -38 123t-185 118q-50 19 -76 27q-351 106 -443 196q-92 91 -92 216q0 181 130 283t338 102t339 -101t135 -284h-129q-2 129 -99 197t-245 68t-243 -68t-95 -187q0 -74 48 -123t130 -81q82 -33 188 -64q352 -102 434 -266
q34 -68 34 -156q0 -184 -121 -299t-363 -115t-377 119t-137 291h127q3 -121 99 -204t277 -83zM664 1585h-132l-270 281h123l211 -219l205 219h123z" />
    <glyph glyph-name="scaron" unicode="&#x161;" horiz-adv-x="933" 
d="M464 82q116 0 184 53t67 137q0 105 -116 156q-53 23 -137 46q-83 23 -157 49q-194 67 -194 249q0 111 88 194t268 83t268 -82t88 -205h-123q0 66 -54 122t-175 56t-177 -53t-56 -124t62 -109t166 -66t162 -50q56 -22 109 -57q107 -71 107 -209q0 -175 -165 -257
q-85 -42 -202 -42q-186 0 -288 85q-101 85 -107 214h127q6 -82 72 -136q67 -54 183 -54zM539 1178h-131l-271 280h123l211 -219l205 219h123z" />
    <glyph glyph-name="Tcedilla" unicode="&#x162;" horiz-adv-x="1085" 
d="M676 -254q0 107 -126 107q-60 0 -147 -39l-26 30l108 150l-22 6v1313h-381v121h907v-121h-393v-1313l-37 -8l-63 -88q46 16 106 16t114 -41t54 -117t-42 -120q-73 -77 -220 -78q-84 0 -211 47l29 67q78 -43 163 -45t136 29t51 84z" />
    <glyph glyph-name="tcedilla" unicode="&#x163;" horiz-adv-x="700" 
d="M590 -209q0 -76 -41 -121q-69 -76 -221 -78q-88 0 -211 50l30 65q79 -45 165 -45t134 31t50 83q0 52 -33 80q-75 64 -238 -14l-28 31l122 168q-170 102 -169 346v887h129v-248h270v-108h-270v-512q0 -248 194 -304q59 -18 141 -14v-108q-129 -6 -237 38l-62 -86
q41 16 103 16t118 -40q54 -41 54 -117z" />
    <glyph glyph-name="Tcaron" unicode="&#x164;" horiz-adv-x="1085" 
d="M989 1313h-393v-1313h-133v1313h-381v121h907v-121zM612 1585h-131l-268 281h121l213 -219l205 219h122z" />
    <glyph glyph-name="tcaron" unicode="&#x165;" horiz-adv-x="700" 
d="M279 1026h270v-108h-270v-512q0 -248 194 -304q59 -18 141 -14v-108q-250 -12 -381 139q-84 98 -83 268v887h129v-248zM436 1504q0 34 24 58t54 24t54 -24t24 -48t-10 -41l-70 -152h-86l43 125q-33 24 -33 58z" />
    <glyph glyph-name="Tbar" unicode="&#x166;" horiz-adv-x="1085" 
d="M989 1313h-393v-537h205v-78h-205v-698h-133v698h-193v78h193v537h-381v121h907v-121z" />
    <glyph glyph-name="tbar" unicode="&#x167;" horiz-adv-x="700" 
d="M279 1026h270v-108h-270v-205h270v-92h-270v-215q0 -242 184 -302q63 -20 151 -16v-108q-96 -4 -168 16q-135 31 -216 128t-80 263v887h129v-248z" />
    <glyph glyph-name="Umacron" unicode="&#x16a;" horiz-adv-x="1335" 
d="M1135 1436v-1002q0 -121 -44 -214t-117 -143q-146 -100 -329 -100q-182 0 -330 100q-74 50 -117 143q-44 93 -44 214v1002h133v-1002q0 -183 114 -263q99 -71 242 -72t251 77q107 78 105 258v1002h136zM909 1663h-481v78h481v-78z" />
    <glyph glyph-name="umacron" unicode="&#x16b;" 
d="M926 0h-105l-2 53q-129 -69 -292 -69t-280 80q-116 80 -116 266v696h129v-690q0 -126 77 -188t211 -62t249 57v883h129v-1026zM770 1249h-481v78h481v-78z" />
    <glyph glyph-name="Uring" unicode="&#x16e;" horiz-adv-x="1284" 
d="M1135 1436v-1002q0 -121 -44 -214t-117 -143q-146 -100 -329 -100q-182 0 -330 100q-74 50 -117 143q-44 93 -44 214v1002h133v-1002q0 -148 75 -227t180 -98q203 -41 346 62q113 83 111 263v1002h136zM639 1868q-68 0 -114 -46t-46 -114t46 -115t113 -47t113 45t47 115
t-45 116t-114 46zM640 1946q95 0 166 -71t71 -167q0 -64 -32 -118t-87 -87q-56 -33 -118 -33t-118 33t-88 87q-33 54 -33 118q0 96 72 167t167 71z" />
    <glyph glyph-name="uring" unicode="&#x16f;" 
d="M926 0h-105l-2 53q-129 -69 -292 -69t-280 80q-116 80 -116 266v696h129v-690q0 -126 77 -188t211 -62t249 57v883h129v-1026zM531 1460q-67 0 -113 -46t-47 -114q0 -68 47 -114t102 -47t92 21q82 48 80 140q0 68 -47 114t-114 46zM532 1538q96 0 167 -71t71 -167
t-71 -166t-167 -71q-96 0 -166 71q-70 70 -71 166q1 96 71 167t166 71z" />
    <glyph glyph-name="Uhungarumlaut" unicode="&#x170;" horiz-adv-x="1335" 
d="M1135 1436v-1002q0 -121 -44 -214t-117 -143q-146 -100 -329 -100q-182 0 -330 100q-74 50 -117 143q-44 93 -44 214v1002h133v-1002q0 -183 114 -263q99 -71 242 -72t251 77q107 78 105 258v1002h136zM825 1604h-88l103 241h129zM575 1604h-88l103 241h129z" />
    <glyph glyph-name="uhungarumlaut" unicode="&#x171;" 
d="M926 0h-105l-2 53q-129 -69 -292 -69t-280 80q-116 80 -116 266v696h129v-690q0 -126 77 -188t211 -62t249 57v883h129v-1026zM680 1194h-88l102 240h129zM430 1194h-88l102 240h129z" />
    <glyph glyph-name="Uogonek" unicode="&#x172;" horiz-adv-x="1335" 
d="M1163 1436v-1002q0 -280 -228 -392q-60 -30 -132 -42q-156 -123 -156 -225q0 -57 34 -88t83 -31q94 0 156 90l59 -29q-39 -61 -100 -96t-122 -35t-102 16t-71 57q-30 42 -31 103q0 106 131 215q-259 0 -403 160q-98 109 -99 297v1002h135v-1002q0 -90 31 -158
q80 -174 328 -178q142 0 248 78t106 258v1002h133z" />
    <glyph glyph-name="uogonek" unicode="&#x173;" 
d="M131 330v696h129v-690q0 -126 77 -188t211 -62t249 57v883h129v-1030l-33 -8q-135 -113 -135 -215q0 -59 35 -88t88 -29q90 0 149 88l60 -27q-86 -130 -236 -133q-104 0 -160 74q-31 41 -30 102q0 125 157 236l-2 57q-129 -69 -292 -69t-280 80q-116 79 -116 266z" />
    <glyph glyph-name="Wcircumflex" unicode="&#x174;" horiz-adv-x="1660" 
d="M1249 0h-168l-247 1126l-250 -1126h-168l-353 1434h142l295 -1260l268 1260h129l268 -1260l291 1260h141zM1163 1579h-123l-204 217l-211 -217h-123l270 281h131z" />
    <glyph glyph-name="wcircumflex" unicode="&#x175;" horiz-adv-x="1437" 
d="M1065 0h-129l-217 768l-217 -768h-127l-336 1026h135l260 -846l230 846h108l229 -846l263 846h135zM1053 1171h-123l-205 218l-213 -218h-121l268 281h132z" />
    <glyph glyph-name="Ycircumflex" unicode="&#x176;" horiz-adv-x="1187" 
d="M659 0h-133v686l-463 748h156l373 -615l373 615h159l-465 -744v-690zM926 1579h-123l-205 217l-211 -217h-123l271 281h131z" />
    <glyph glyph-name="ycircumflex" unicode="&#x177;" horiz-adv-x="1067" 
d="M926 1026v-1100q0 -112 -46 -188q-87 -145 -294 -144q-207 0 -369 107l51 76q137 -80 279 -80q248 0 250 219v141q-119 -57 -287 -57t-273 83t-106 263v680h129v-672q0 -256 275 -256q145 0 262 54v874h129zM870 1171h-122l-205 218l-211 -218h-123l268 281h131z" />
    <glyph glyph-name="Ydieresis" unicode="&#x178;" horiz-adv-x="1187" 
d="M659 0h-133v686l-463 748h156l373 -615l373 615h159l-465 -744v-690zM846 1716q0 -78 -73 -80q-24 0 -43 20t-19 44t15 49t42 25q28 0 53 -15t25 -43zM406 1774q28 0 52 -15t25 -43q0 -28 -14 -53t-48 -26t-53 20q-37 39 -5 92q15 25 43 25z" />
    <glyph glyph-name="Zacute" unicode="&#x179;" horiz-adv-x="1200" 
d="M1104 121v-121h-1010v90l819 1223h-772v121h953v-91l-820 -1222h830zM639 1602h-94l108 239h138z" />
    <glyph glyph-name="zacute" unicode="&#x17a;" horiz-adv-x="899" 
d="M811 109v-109h-729v84l557 834h-518v108h678v-84l-557 -833h569zM471 1194h-92l106 240h138z" />
    <glyph glyph-name="Zdotaccent" unicode="&#x17b;" horiz-adv-x="1200" 
d="M1104 121v-121h-1010v90l819 1223h-772v121h953v-91l-820 -1222h830zM623 1776q29 0 47 -20t18 -48q0 -29 -19 -48q-36 -36 -76 -13t-40 56q1 33 21 53t49 20z" />
    <glyph glyph-name="zdotaccent" unicode="&#x17c;" horiz-adv-x="899" 
d="M811 109v-109h-729v84l557 834h-518v108h678v-84l-557 -833h569zM396 1355q19 19 52 19t49 -24q15 -24 15 -48t-19 -44t-49 -19q-30 0 -48 19q-19 18 -19 48t19 49z" />
    <glyph glyph-name="Zcaron" unicode="&#x17d;" horiz-adv-x="1200" 
d="M1104 121v-121h-1010v90l819 1223h-772v121h953v-91l-820 -1222h830zM674 1585h-131l-269 281h121l211 -219l205 219h123z" />
    <glyph glyph-name="zcaron" unicode="&#x17e;" horiz-adv-x="899" 
d="M811 109v-109h-729v84l557 834h-518v108h678v-84l-557 -833h569zM528 1178h-131l-268 280h121l213 -219l205 219h123z" />
    <glyph glyph-name="florin" unicode="&#x192;" horiz-adv-x="772" 
d="M287 -55v1171q0 252 210 322q56 18 110 18t98 -8v-107q-55 8 -87 7q-90 -4 -146 -64t-56 -180v-184h270v-105h-270v-889q0 -92 -33 -160q-59 -123 -193 -157q-53 -23 -122 -23v107q63 0 106 22q113 52 113 230z" />
    <glyph glyph-name="Acaron" unicode="&#x1cd;" horiz-adv-x="1236" 
d="M401 612h433l-216 641zM1171 0h-139l-166 494h-497l-166 -494h-140l492 1434h125zM690 1585h-131l-270 281h123l211 -219l204 219h123z" />
    <glyph glyph-name="acaron" unicode="&#x1ce;" horiz-adv-x="1034" 
d="M213 334q0 -252 309 -252q139 0 252 61v422q-199 26 -276 19q-78 -8 -137 -25t-101 -72q-47 -55 -47 -153zM471 1042q310 0 391 -187q27 -61 34 -115t7 -128v-616h-104l-2 53q-129 -72 -299 -70t-288 83t-118 272q0 346 438 346q94 0 244 -21q-2 61 -13 105
q-28 112 -139 148q-65 22 -185 22t-214 -60l-67 72q119 96 315 96zM598 1178h-131l-268 280h120l211 -219l205 219h123z" />
    <glyph glyph-name="Icaron" unicode="&#x1cf;" horiz-adv-x="499" 
d="M317 0h-135v1434h135v-1434zM322 1585h-132l-270 281h123l211 -219l205 219h123z" />
    <glyph glyph-name="icaron" unicode="&#x1d0;" horiz-adv-x="315" 
d="M225 0h-129v1026h129v-1026zM231 1178h-131l-268 280h123l211 -219l205 219h123z" />
    <glyph glyph-name="Ocaron" unicode="&#x1d1;" horiz-adv-x="1275" 
d="M995 432v549q0 174 -91 268t-262 94t-266 -89t-95 -271v-551q-1 -90 31 -158q81 -174 327 -178q144 0 250 78t106 258zM147 432v551q1 237 135 359t359 122q347 0 455 -283q33 -89 32 -200v-549q0 -123 -44 -215t-116 -142q-145 -100 -327 -100q-181 0 -331 100
q-75 50 -119 142t-44 215zM709 1585h-131l-271 281h123l211 -219l205 219h123z" />
    <glyph glyph-name="ocaron" unicode="&#x1d2;" horiz-adv-x="1013" 
d="M778 385v254q0 141 -70 221q-71 80 -198 80q-274 0 -274 -301v-254q0 -127 68 -212t205 -85q136 0 203 84q66 84 66 213zM106 385v254q0 265 184 360q91 47 220 48q190 0 294 -110t103 -298v-254q0 -161 -90 -277q-45 -58 -124 -92t-173 -34q-251 1 -354 173
q-60 101 -60 230zM578 1178h-132l-268 280h121l213 -219l205 219h123z" />
    <glyph glyph-name="Ucaron" unicode="&#x1d3;" horiz-adv-x="1284" 
d="M1135 1436v-1002q0 -275 -219 -393q-115 -62 -238 -63t-206 24q-318 96 -318 432v1002h133v-1002q0 -183 114 -263q99 -71 242 -72t251 77q107 78 105 258v1002h136zM711 1585h-131l-271 281h123l211 -219l205 219h123z" />
    <glyph glyph-name="ucaron" unicode="&#x1d4;" 
d="M926 0h-105l-2 53q-129 -69 -292 -69t-280 80q-116 80 -116 266v696h129v-690q0 -126 77 -188t211 -62t249 57v883h129v-1026zM602 1178h-131l-268 280h121l211 -219l204 219h123z" />
    <glyph glyph-name="Udieresismacron" unicode="&#x1d5;" horiz-adv-x="1335" 
d="M1135 1436v-1002q0 -121 -44 -214t-117 -143q-146 -100 -329 -100q-182 0 -330 100q-74 50 -117 143q-44 93 -44 214v1002h133v-1002q0 -183 114 -263q99 -71 242 -72t251 77q107 78 105 258v1002h136zM856 1733q18 0 42 -15t25 -43t-14 -52t-48 -25q-34 -2 -54 18
t-21 54t35 53q17 10 35 10zM545 1708q16 -24 16 -53q1 -29 -39 -52t-77 14q-19 19 -19 53t34 53q16 10 43 10q26 -1 42 -25zM915 1847h-483v78h483v-78z" />
    <glyph glyph-name="udieresismacron" unicode="&#x1d6;" 
d="M926 0h-105l-2 53q-129 -69 -292 -69t-280 80q-116 80 -116 266v696h129v-690q0 -126 77 -188t211 -62t249 57v883h129v-1026zM711 1368q29 0 47 -19t18 -49t-19 -48q-19 -19 -47 -19t-48 19t-21 48q1 28 21 48t49 20zM348 1368q29 0 48 -19q20 -19 20 -49t-20 -48
q-20 -19 -48 -19q-29 0 -48 19t-19 48q0 28 19 48t48 20zM772 1487h-481v78h481v-78z" />
    <glyph glyph-name="Udieresisacute" unicode="&#x1d7;" horiz-adv-x="1335" 
d="M1135 1436v-1002q0 -121 -44 -213t-117 -143q-145 -101 -328 -101t-331 100q-74 50 -117 143q-44 93 -44 214v1002h133v-1002q0 -183 114 -263q99 -71 242 -72t251 77q107 78 105 258v1002h136zM856 1733q29 0 55 -27t7 -66q-19 -40 -55 -42t-56 18t-21 49q0 29 20 49
t50 19zM494 1733q29 1 48 -19t19 -42t-6 -34q-18 -38 -54 -39q-35 -3 -55 17t-20 49t20 49t48 19zM719 1812h-92l106 240h137z" />
    <glyph glyph-name="udieresisacute" unicode="&#x1d8;" 
d="M926 0h-105l-2 53q-129 -69 -292 -69t-280 80q-116 80 -116 266v696h129v-690q0 -126 77 -188t211 -62t249 57v883h129v-1026zM717 1366q29 0 48 -19t19 -49t-19 -49q-19 -20 -48 -20t-48 20t-20 49q-1 28 19 48t49 20zM354 1366q29 0 48 -19q20 -19 20 -49t-20 -49
q-20 -20 -48 -20q-29 0 -48 20t-19 49q0 28 19 48t48 20zM555 1487h-94l108 239h138z" />
    <glyph glyph-name="Udieresiscaron" unicode="&#x1d9;" horiz-adv-x="1284" 
d="M1135 1436v-1002q0 -121 -44 -214t-117 -143q-146 -100 -329 -100q-182 0 -330 100q-74 50 -117 143q-44 93 -44 214v1002h133v-1002q0 -148 75 -227t180 -98q203 -41 346 62q113 83 111 263v1002h136zM825 1751q29 0 47 -19q18 -18 18 -48t-18 -49q-20 -19 -48 -19
t-48 19t-20 48t20 49t49 19zM528 1691q0 -75 -72 -75q-22 0 -42 19t-21 48q1 29 21 49t49 19q29 0 47 -19t18 -41zM711 1833h-131l-271 281h123l211 -218l205 218h123z" />
    <glyph glyph-name="udieresiscaron" unicode="&#x1da;" 
d="M926 0h-105l-2 53q-129 -69 -292 -69t-280 80q-116 80 -116 266v696h129v-690q0 -126 77 -188t211 -62t249 57v883h129v-1026zM775 1332q9 -16 9 -44t-24 -44t-48 -15q-24 0 -43 20q-36 38 -13 78q23 39 61 39q39 0 58 -34zM349 1229q-24 0 -43 20t-19 53q1 33 25 49
q24 15 52 15t43 -24t15 -54q0 -29 -24 -44t-49 -15zM602 1454h-131l-268 283h121l211 -219l204 219h123z" />
    <glyph glyph-name="Udieresisgrave" unicode="&#x1db;" horiz-adv-x="1335" 
d="M1135 1436v-1002q0 -121 -44 -213t-117 -143q-145 -101 -328 -101t-331 100q-74 50 -117 143q-44 93 -44 214v1002h133v-1002q0 -183 114 -263q99 -71 242 -72t251 77q107 78 105 258v1002h136zM856 1733q29 0 54 -27t8 -67t-54 -41q-37 -2 -57 18t-21 49q0 29 20 49
t50 19zM561 1674q0 -70 -67 -77q-28 -1 -48 19t-20 49t20 49t48 19q29 1 48 -19t19 -40zM756 1812h-94l-152 240h137z" />
    <glyph glyph-name="udieresisgrave" unicode="&#x1dc;" 
d="M926 0h-105l-2 53q-129 -69 -292 -69t-280 80q-116 80 -116 266v696h129v-690q0 -126 77 -188t211 -62t249 57v883h129v-1026zM711 1368q29 0 47 -19t18 -49t-19 -48q-19 -19 -53 -19q-34 1 -49 25q-14 24 -14 48q1 24 21 42q20 20 49 20zM354 1233q-72 1 -73 73
q0 24 19 42q19 20 48 20t48 -19q20 -19 20 -49t-20 -48q-18 -19 -42 -19zM629 1487h-92l-152 239h137z" />
    <glyph glyph-name="Scommaaccent" unicode="&#x218;" horiz-adv-x="1208" 
d="M597 -207q24 0 40 -16.5t16 -33.5t-6 -30l-55 -119h-60l33 97q-25 20 -24.5 45t16.5 41t40 16zM597 100q181 0 272.5 78t91.5 213q-1 63 -41 125q-50 78 -258 144q-26 8 -100 32t-130 44q-151 56 -228 133t-77 202q0 182 130 283.5t338 101.5t339 -101.5t135 -283.5h-129
q-2 129 -99.5 196.5t-244.5 67.5t-242.5 -67.5t-95.5 -186.5q0 -149 241 -229q49 -16 141 -43q202 -59 327 -152.5t125 -271.5t-121 -293t-362.5 -115t-377 119t-137.5 291h127q4 -121 99.5 -204t276.5 -83z" />
    <glyph glyph-name="scommaaccent" unicode="&#x219;" horiz-adv-x="933" 
d="M468 -207q24 0 40 -16q16 -15 16 -33t-6 -31l-55 -119h-60l33 97q-24 20 -24 45t16 41t40 16zM445 82q98 0 154 24q116 51 116 161t-116 161q-49 21 -155 52t-155 51q-135 56 -166 150q-12 36 -12 81q0 121 88 204t268 83t268 -82t88 -205h-123q0 72 -57 125t-175 53
t-174 -53t-56 -124t62 -109t166 -66t162 -50q56 -22 109 -57q107 -71 107 -209q0 -175 -165 -257q-85 -42 -202 -42q-186 0 -288 85q-101 85 -107 214h127q6 -82 72 -136t164 -54z" />
    <glyph glyph-name="uni021A" unicode="&#x21a;" horiz-adv-x="1071" 
d="M473 -264q0 25 16 41t39 16t47 -23t3 -57l-54 -119h-61l35 97q-25 20 -25 45zM989 1313h-393v-1313h-133v1313h-381v121h907v-121z" />
    <glyph glyph-name="uni021B" unicode="&#x21b;" horiz-adv-x="700" 
d="M315 -264q1 25 17 41t40 16t40 -16q16 -15 16 -33t-6 -31l-55 -119h-62l35 97q-25 20 -25 45zM279 1026h270v-108h-270v-512q0 -248 194 -304q59 -18 141 -14v-108q-250 -12 -381 139q-84 98 -83 268v887h129v-248z" />
    <glyph glyph-name="circumflex" unicode="&#x2c6;" horiz-adv-x="798" 
d="M731 1171h-123l-205 218l-210 -218h-123l270 281h131z" />
    <glyph glyph-name="caron" unicode="&#x2c7;" horiz-adv-x="798" 
d="M469 1178h-131l-268 280h120l213 -219l205 219h123z" />
    <glyph glyph-name="breve" unicode="&#x2d8;" horiz-adv-x="667" 
d="M600 1444q0 -113 -77 -187.5t-189.5 -74.5t-189 74.5t-76.5 187.5h71q2 -76 57.5 -130t137.5 -54t137 54t57 130h72z" />
    <glyph glyph-name="dotaccent" unicode="&#x2d9;" horiz-adv-x="266" 
d="M134 1366q28 0 47.5 -19.5t19.5 -43t-8.5 -40t-23.5 -25.5t-35 -9q-18 0 -34 9q-34 19 -34 54t20 54.5t48 19.5z" />
    <glyph glyph-name="ring" unicode="&#x2da;" horiz-adv-x="667" 
d="M333.5 1460q-67.5 0 -114.5 -46t-47 -102q0 -58 22 -94q47 -80 140 -79q68 0 114 47t46 114.5t-46.5 113.5t-114 46zM334 1538q96 0 166.5 -70.5t70.5 -167t-70.5 -167t-166.5 -70.5t-167 70.5t-71 167t71 167t167 70.5z" />
    <glyph glyph-name="ogonek" unicode="&#x2db;" horiz-adv-x="591" 
d="M512 -293q-82 -135 -248 -135q-62 0 -119 45t-57 133q0 119 172 250h94q-172 -129 -172 -238q0 -57 33 -87.5t84 -30.5q94 0 154 90z" />
    <glyph glyph-name="tilde" unicode="&#x2dc;" horiz-adv-x="862" 
d="M590.5 1333q55.5 0 126.5 74l49 -70q-94 -88 -184 -88q-55 0 -145.5 41t-135.5 41q-74 0 -156 -92l-49 70q104 111 207 110q55 0 143.5 -43t144 -43z" />
    <glyph glyph-name="hungarumlaut" unicode="&#x2dd;" horiz-adv-x="593" 
d="M395 1194h-88l101 240h131zM145 1194h-88l103 240h129z" />
    <glyph glyph-name="Delta" unicode="&#x394;" horiz-adv-x="1705" 
 />
    <glyph glyph-name="Omega" unicode="&#x3a9;" horiz-adv-x="1705" 
 />
    <glyph glyph-name="mu" unicode="&#x3bc;" horiz-adv-x="1705" 
 />
    <glyph glyph-name="pi" unicode="&#x3c0;" horiz-adv-x="260" 
 />
    <glyph glyph-name="uni0410" unicode="&#x410;" horiz-adv-x="1236" 
d="M401 612h433l-216 641zM1171 0h-139l-166 494h-497l-166 -494h-140l492 1434h125z" />
    <glyph glyph-name="uni0411" unicode="&#x411;" horiz-adv-x="1243" 
d="M727 121q266 0 266 276q0 135 -67 206q-68 71 -199 71h-410v-553h410zM1030 1311h-713v-516h437q180 1 276 -101t96 -298t-96 -296t-276 -100h-572v1434h848v-123z" />
    <glyph glyph-name="uni0412" unicode="&#x412;" horiz-adv-x="1243" 
d="M317 655v-534h410q129 -1 198 69t69 194t-70 198t-193 73h-414zM317 1313v-535h375q129 0 197 71q67 71 67 194t-70 197t-192 73h-377zM182 1434h539q172 0 270 -106t99 -259q0 -264 -189 -348q105 -35 165 -126t60 -208q0 -187 -96 -287t-276 -100h-572v1434z" />
    <glyph glyph-name="uni0413" unicode="&#x413;" horiz-adv-x="1058" 
d="M1030 1311h-713v-1311h-135v1434h848v-123z" />
    <glyph glyph-name="uni0414" unicode="&#x414;" horiz-adv-x="1443" 
d="M467 1315v-914q0 -178 -94 -282h686v1196h-592zM1192 119h170v-432h-125v315h-1030v-315h-125v432h127q125 90 125 282v1035h858v-1317z" />
    <glyph glyph-name="uni0415" unicode="&#x415;" horiz-adv-x="1169" 
d="M1063 1313h-746v-537h691v-121h-691v-534h758v-121h-893v1434h881v-121z" />
    <glyph glyph-name="uni0416" unicode="&#x416;" horiz-adv-x="1941" 
d="M1038 0h-135v743l-676 -743h-164l695 752l-588 682h158l575 -684v684h135v-684l576 684h158l-588 -682l694 -752h-164l-676 743v-743z" />
    <glyph glyph-name="uni0417" unicode="&#x417;" horiz-adv-x="1054" 
d="M494 1454q144 0 254 -104q109 -104 108 -271q0 -109 -57 -189t-142 -118q109 -39 185 -138t76 -231q0 -193 -126 -311t-317 -117q-131 1 -231 59t-156 144l100 66q45 -68 121 -108t166 -40q135 0 223 88t88 218t-96 222q-96 91 -225 91h-111v108h111q106 0 185 72
q79 71 79 181t-72 184t-169 74t-158 -46q-61 -44 -88 -110l-115 47q39 93 131 161t236 68z" />
    <glyph glyph-name="uni0418" unicode="&#x418;" horiz-adv-x="1288" 
d="M1114 0h-133v1165l-670 -1165h-139v1434h135v-1180l676 1180h131v-1434z" />
    <glyph glyph-name="uni0419" unicode="&#x419;" horiz-adv-x="1288" 
d="M1114 0h-133v1165l-670 -1165h-139v1434h135v-1180l676 1180h131v-1434zM911 1868q-1 -111 -77 -187q-76 -75 -189 -75t-189 76t-77 186h72q4 -74 58 -128t136 -54q81 0 137 54t58 128h71z" />
    <glyph glyph-name="uni041A" unicode="&#x41a;" horiz-adv-x="1241" 
d="M317 0h-135v1434h135v-684l576 684h158l-588 -682l694 -752h-164l-676 743v-743z" />
    <glyph glyph-name="uni041B" unicode="&#x41b;" horiz-adv-x="1355" 
d="M1188 0h-135v1313h-592v-953q-1 -196 -107 -288t-278 -92v116q108 0 180 62t72 200v1076h860v-1434z" />
    <glyph glyph-name="uni041C" unicode="&#x41c;" horiz-adv-x="1527" 
d="M1352 0h-131v1120l-406 -1067h-102l-402 1067v-1120h-131v1434h133l453 -1182l451 1182h135v-1434z" />
    <glyph glyph-name="uni041D" unicode="&#x41d;" horiz-adv-x="1345" 
d="M1163 0h-133v655h-713v-655h-135v1434h135v-658h713v658h133v-1434z" />
    <glyph glyph-name="uni041E" unicode="&#x41e;" horiz-adv-x="1275" 
d="M995 432v549q0 174 -91 268t-262 94t-266 -89t-95 -271v-551q-1 -90 31 -158q81 -174 327 -178q144 0 250 78t106 258zM147 432v551q1 237 135 359t359 122q347 0 455 -283q33 -89 32 -200v-549q0 -123 -44 -215t-116 -142q-145 -100 -327 -100q-181 0 -331 100
q-75 50 -119 142t-44 215z" />
    <glyph glyph-name="uni041F" unicode="&#x41f;" horiz-adv-x="1345" 
d="M1163 0h-133v1313h-713v-1313h-135v1434h981v-1434z" />
    <glyph glyph-name="uni0420" unicode="&#x420;" horiz-adv-x="1241" 
d="M317 1313v-565h390q137 0 209 74t71 205q0 130 -73 208t-203 78h-394zM182 1434h531q125 0 219 -56q184 -109 184 -338q0 -198 -106 -306t-301 -107h-392v-627h-135v1434z" />
    <glyph glyph-name="uni0421" unicode="&#x421;" horiz-adv-x="1150" 
d="M147 459v528q1 233 135 357t344 124q319 -1 429 -225l-99 -49q-90 154 -307 154q-168 0 -268 -92t-100 -271v-526q0 -177 100 -269t268 -92q217 0 307 154l99 -49q-113 -222 -416 -226q-223 1 -357 125t-135 357z" />
    <glyph glyph-name="uni0422" unicode="&#x422;" horiz-adv-x="1085" 
d="M989 1313h-393v-1313h-133v1313h-381v121h907v-121z" />
    <glyph glyph-name="uni0423" unicode="&#x423;" horiz-adv-x="1284" 
d="M336 -29h-135v121h114q154 0 228 184l59 140l-469 1018h139l394 -867l364 867h137l-524 -1223q-100 -240 -307 -240z" />
    <glyph glyph-name="uni0424" unicode="&#x424;" horiz-adv-x="1548" 
d="M842 264h63q177 0 271 95t94 356q0 260 -93 358t-272 96h-63v-905zM707 1169h-62q-225 0 -305 -141q-61 -107 -61 -311q0 -299 136 -394q82 -57 230 -59h62v905zM842 1290h63q226 0 362 -122t136 -452q0 -329 -137 -451t-361 -122h-63v-143h-135v143h-64q-225 0 -361 122
q-137 122 -137 452t139 452q139 123 361 121h62v144h135v-144z" />
    <glyph glyph-name="uni0425" unicode="&#x425;" horiz-adv-x="1259" 
d="M721 743l473 -743h-158l-407 637l-404 -637h-162l478 743l-441 691h156l373 -598l372 598h160z" />
    <glyph glyph-name="uni0426" unicode="&#x426;" horiz-adv-x="1415" 
d="M1163 117h172v-430h-125v311h-1028v1436h133v-1315h713v1315h135v-1317z" />
    <glyph glyph-name="uni0427" unicode="&#x427;" horiz-adv-x="1265" 
d="M274 1434v-514q0 -117 60 -170q60 -54 172 -54q113 0 444 62v676h133v-1434h-133v637q-5 -2 -200 -33t-275 -33q-156 0 -246 82t-90 238v543h135z" />
    <glyph glyph-name="uni0428" unicode="&#x428;" horiz-adv-x="1947" 
d="M1765 0h-1581v1434h133v-1313h590v1313h133v-1313h592v1313h133v-1434z" />
    <glyph glyph-name="uni0429" unicode="&#x429;" horiz-adv-x="2019" 
d="M1765 119h172v-432h-125v313h-1628v1434h133v-1313h590v1313h133v-1313h592v1313h133v-1315z" />
    <glyph glyph-name="uni042A" unicode="&#x42a;" horiz-adv-x="1351" 
d="M446 674v-553h412q129 -1 198 69t68 206q0 136 -68 207q-69 71 -198 71h-412zM446 795h439q180 1 276 -101t96 -298t-96 -296t-276 -100h-572v1315h-307v119h440v-639z" />
    <glyph glyph-name="uni042B" unicode="&#x42b;" horiz-adv-x="1660" 
d="M317 674v-553h410q129 -1 198 69t68 207q0 180 -121 245q-59 32 -145 32h-410zM1479 0h-133v1434h133v-1434zM317 795h437q180 1 276 -101t96 -298t-96 -296t-276 -100h-572v1434h135v-639z" />
    <glyph glyph-name="uni042C" unicode="&#x42c;" horiz-adv-x="1222" 
d="M317 674v-553h410q131 -1 199 69t67 206q0 136 -67 207q-68 71 -199 71h-410zM317 795h437q180 1 276 -101t96 -298t-96 -296t-276 -100h-572v1434h135v-639z" />
    <glyph glyph-name="uni042D" unicode="&#x42d;" horiz-adv-x="1150" 
d="M492 1466q372 0 476 -270q36 -92 36 -211v-526q0 -236 -134 -359t-358 -123q-150 1 -256 59t-162 165l101 51q90 -154 307 -154q168 0 267 91t99 270v209h-538v108h538v209q0 263 -218 338q-67 23 -148 23q-217 0 -307 -154l-101 51q56 107 162 165t236 58z" />
    <glyph glyph-name="uni042E" unicode="&#x42e;" horiz-adv-x="1769" 
d="M1487 428v551q0 236 -158 319q-79 43 -193 43q-114 1 -193 -37t-124 -120t-45 -203v-553q0 -90 31 -158t84 -104q104 -72 245 -73t247 76q106 78 106 259zM641 776v205q0 233 133 357t363 124t358 -133q127 -133 127 -350v-551q0 -121 -44 -213q-76 -159 -271 -219
q-82 -25 -173 -25q-185 0 -331 100q-74 50 -118 143t-44 214v227h-326v-655h-133v1434h133v-658h326z" />
    <glyph glyph-name="uni042F" unicode="&#x42f;" horiz-adv-x="1232" 
d="M915 1313h-393q-131 0 -204 -77q-72 -77 -72 -206t72 -203t208 -73h389v559zM1051 0h-136v633h-264l-395 -633h-158l414 649l-70 4q-158 17 -242 117t-83 269q0 169 107 282q108 113 296 113h531v-1434z" />
    <glyph glyph-name="uni0430" unicode="&#x430;" horiz-adv-x="1034" 
d="M213 334q0 -252 309 -252q139 0 252 61v422q-240 31 -366 6q-195 -39 -195 -237zM471 1042q310 0 391 -187q27 -61 34 -115t7 -128v-616h-104l-2 53q-129 -72 -299 -70t-288 83t-118 272q0 346 438 346q94 0 244 -21q-2 61 -13 105q-28 112 -139 148q-65 22 -185 22
t-214 -60l-67 72q119 96 315 96z" />
    <glyph glyph-name="uni0431" unicode="&#x431;" horiz-adv-x="1155" 
d="M778 381v235q0 193 -123 264q-61 36 -145 35q-274 0 -274 -299v-235q0 -127 68 -211t205 -84q136 0 203 84q66 84 66 211zM526 1024q121 0 207 -51q174 -103 174 -357v-235q0 -206 -133 -321q-98 -83 -264 -83q-293 0 -380 254q-24 70 -24 150v272q0 303 27 430t129 213
q123 110 454 129q34 3 134 9v-111q-313 -18 -412 -57q-51 -20 -90 -54q-68 -51 -98 -127t-35 -221q88 160 311 160z" />
    <glyph glyph-name="uni0432" unicode="&#x432;" horiz-adv-x="1040" 
d="M279 104h305q63 0 112 26q94 48 92 163q0 144 -143 181q-31 7 -61 7h-305v-377zM279 571h290q92 0 146 45q53 44 53 130t-53 130t-146 44h-290v-349zM150 1024h436q111 0 199 -53q108 -65 108 -209q0 -104 -50 -158t-102 -76q17 0 62 -30t78 -84q32 -55 32 -133
q-1 -79 -31 -137t-78 -88q-90 -56 -196 -56h-458v1024z" />
    <glyph glyph-name="uni0433" unicode="&#x433;" horiz-adv-x="862" 
d="M788 922h-509v-922h-129v1026h638v-104z" />
    <glyph glyph-name="uni0434" unicode="&#x434;" horiz-adv-x="1200" 
d="M412 922v-625q0 -123 -70 -191h526v816h-456zM997 106h142v-354h-119v250h-838v-250h-119v357q85 0 115 10q104 36 105 172v735h714v-920z" />
    <glyph glyph-name="uni0435" unicode="&#x435;" horiz-adv-x="976" 
d="M760 559v123q0 195 -164 245q-43 13 -94 13q-113 0 -190 -63t-76 -199v-119h524zM106 311v363q0 174 106 272t292 98q184 0 280 -97t97 -269v-209h-648v-172q0 -107 69 -163q70 -56 196 -56t266 86l70 -66q-144 -117 -371 -119t-315 155q-42 75 -42 177z" />
    <glyph glyph-name="uni0436" unicode="&#x436;" horiz-adv-x="1593" 
d="M860 0h-125v528l-532 -526h-154l549 535l-510 489h152l495 -489v493h125v-493l494 489h151l-508 -489l549 -535h-155l-531 526v-528z" />
    <glyph glyph-name="uni0437" unicode="&#x437;" horiz-adv-x="929" 
d="M753 932q56 -63 56 -160t-61 -162l-25 -25q-9 -11 -25 -21t-22 -13q-6 -4 -31 -16l30 -15l21 -12q56 -32 72 -54q36 -50 50 -89q13 -39 13 -101q0 -61 -40 -121q-72 -103 -245 -144q-73 -17 -145 -17q-199 0 -305 102l92 53q92 -47 197 -48t179 29q140 57 138 169
q0 69 -38 115q-66 79 -201 79h-162v90h162q101 1 159 51t58 136t-69 134t-189 48t-217 -72l-96 52q125 127 332 127q208 0 312 -115z" />
    <glyph glyph-name="uni0438" unicode="&#x438;" horiz-adv-x="1069" 
d="M922 0h-123v795l-520 -795h-129v1026h122v-795l521 795h129v-1026z" />
    <glyph glyph-name="uni0439" unicode="&#x439;" horiz-adv-x="1069" 
d="M922 0h-123v795l-520 -795h-129v1026h122v-795l521 795h129v-1026zM811 1450q0 -112 -77 -188q-78 -76 -190 -76t-189 76t-76 188h71q2 -76 58 -130t136 -54q81 0 136 54t59 130h72z" />
    <glyph glyph-name="uni043A" unicode="&#x43a;" horiz-adv-x="1007" 
d="M272 0h-122v1028h122v-491l496 487h152l-510 -489l551 -535h-156l-533 526v-526z" />
    <glyph glyph-name="uni043B" unicode="&#x43b;" horiz-adv-x="1140" 
d="M991 0h-129v922h-456v-641q0 -160 -101 -240q-86 -63 -213 -64v113q82 0 134 43t53 141v752h712v-1026z" />
    <glyph glyph-name="uni043C" unicode="&#x43c;" horiz-adv-x="1251" 
d="M1104 0h-123v774l-301 -774h-107l-301 774v-774h-122v1030h129l348 -895l348 895h129v-1030z" />
    <glyph glyph-name="uni043D" unicode="&#x43d;" horiz-adv-x="1069" 
d="M922 0h-129v463h-514v-463h-129v1030h129v-463h514v463h129v-1030z" />
    <glyph glyph-name="uni043E" unicode="&#x43e;" horiz-adv-x="1013" 
d="M778 385v254q0 166 -99 249q-64 52 -169 52q-274 0 -274 -301v-254q0 -127 68 -212t205 -85q136 0 203 84q66 84 66 213zM106 385v254q0 197 104 302t298 105q192 0 296 -109q104 -110 103 -298v-254q0 -161 -90 -277q-45 -58 -124 -92t-173 -34q-251 1 -354 173
q-60 101 -60 230z" />
    <glyph glyph-name="uni043F" unicode="&#x43f;" horiz-adv-x="1069" 
d="M922 0h-129v922h-514v-922h-129v1026h772v-1026z" />
    <glyph glyph-name="uni0440" unicode="&#x440;" horiz-adv-x="1052" 
d="M817 340v358q0 120 -78 180q-79 60 -211 60t-247 -57v-742q119 -53 262 -53q274 0 274 254zM946 334q0 -224 -165 -306q-88 -46 -225 -46q-136 0 -275 57v-453h-129v1438h104l2 -53q127 72 293 71q204 0 313 -112q84 -89 82 -234v-362z" />
    <glyph glyph-name="uni0441" unicode="&#x441;" horiz-adv-x="913" 
d="M106 397v230q0 135 52 230q100 187 348 187q184 0 309 -126l-96 -52q-96 70 -215 70t-194 -78t-74 -231v-230q0 -153 74 -231t194 -78q119 0 215 72l96 -51q-125 -127 -309 -127q-248 0 -348 187q-52 95 -52 228z" />
    <glyph glyph-name="uni0442" unicode="&#x442;" horiz-adv-x="931" 
d="M850 920h-320v-920h-129v920h-317v106h766v-106z" />
    <glyph glyph-name="uni0443" unicode="&#x443;" horiz-adv-x="1067" 
d="M926 1026v-1100q0 -164 -94 -248t-252 -84q-201 2 -363 107l51 78q152 -86 274 -86q251 0 255 223v141q-119 -57 -287 -57q-265 0 -348 183q-31 69 -31 163v680h129v-672q0 -256 275 -256q145 0 262 54v874h129z" />
    <glyph glyph-name="uni0444" unicode="&#x444;" horiz-adv-x="1353" 
d="M741 96h35q176 2 259 96t83 333q0 238 -103 327q-51 43 -107 59t-130 19h-37v-834zM612 930h-37q-247 0 -313 -202q-27 -83 -26 -206q0 -229 80 -327t257 -99h39v834zM741 1038h37q211 0 340 -112t129 -401q1 -289 -111 -413t-356 -124h-39v-402h-129v402h-41
q-325 0 -418 234q-47 116 -47 280q-1 307 130 423q130 115 337 113h39v398h129v-398z" />
    <glyph glyph-name="uni0445" unicode="&#x445;" horiz-adv-x="856" 
d="M514 512l299 -512h-139l-242 418l-252 -418h-141l315 514l-301 512h142l239 -426l240 426h139z" />
    <glyph glyph-name="uni0446" unicode="&#x446;" horiz-adv-x="1124" 
d="M922 106h141v-352h-121v248h-792v1024h129v-920h514v920h129v-920z" />
    <glyph glyph-name="uni0447" unicode="&#x447;" horiz-adv-x="1017" 
d="M240 1030v-336q0 -186 190 -186q94 0 309 43v479h129v-1030h-129v436q-223 -45 -327 -45t-167 30q-136 66 -134 245v364h129z" />
    <glyph glyph-name="uni0448" unicode="&#x448;" horiz-adv-x="1544" 
d="M1395 0h-1245v1026h129v-922h430v922h127v-922h430v922h129v-1026z" />
    <glyph glyph-name="uni0449" unicode="&#x449;" horiz-adv-x="1597" 
d="M1395 104h141v-352h-119v248h-1267v1026h129v-922h430v922h127v-922h430v922h129v-922z" />
    <glyph glyph-name="uni044A" unicode="&#x44a;" horiz-adv-x="1110" 
d="M383 494v-390h297q67 0 117 28q51 28 73 68q22 42 23 99q0 57 -23 98q-52 93 -190 97h-297zM383 600h315q107 0 207 -65q51 -33 82 -95t31 -141q0 -80 -31 -141q-31 -60 -81 -94q-95 -64 -201 -64h-451v911h-246v113h375v-424z" />
    <glyph glyph-name="uni044B" unicode="&#x44b;" horiz-adv-x="1325" 
d="M279 494v-390h294q67 0 119 28q98 52 97 166t-73 154t-143 42h-294zM1176 0h-129v1024h129v-1024zM279 600h313q108 0 208 -65q50 -33 82 -95t32 -141q0 -80 -32 -141q-55 -106 -184 -143q-51 -15 -100 -15h-448v1024h129v-424z" />
    <glyph glyph-name="uni044C" unicode="&#x44c;" horiz-adv-x="1003" 
d="M279 494v-390h294q67 0 119 28q98 52 97 166t-73 154t-143 42h-294zM279 600h313q108 0 208 -65q50 -33 82 -95t32 -141q0 -80 -32 -141q-55 -106 -184 -143q-51 -15 -100 -15h-448v1024h129v-424z" />
    <glyph glyph-name="uni044D" unicode="&#x44d;" horiz-adv-x="923" 
d="M412 1059q182 0 290 -108t109 -308v-248q0 -399 -422 -399q-170 0 -287 98l93 53q93 -43 215 -43t197 62t75 223v94h-377v88h377v78q0 222 -163 283q-48 18 -107 18q-113 1 -211 -65l-95 53q124 121 306 121z" />
    <glyph glyph-name="uni044E" unicode="&#x44e;" horiz-adv-x="1396" 
d="M1163 385v254q0 141 -70 220q-71 79 -198 79q-274 0 -274 -299v-254q1 -127 69 -212t204 -85t203 84q66 84 66 213zM492 565v88q4 189 108 291t294 102t294 -109q104 -110 104 -298v-254q0 -208 -133 -320q-101 -85 -264 -83q-288 0 -377 243q-25 68 -26 146v90h-213
v-461h-129v1028h129v-463h213z" />
    <glyph glyph-name="uni044F" unicode="&#x44f;" horiz-adv-x="1054" 
d="M776 920h-295q-66 0 -139 -39q-74 -39 -74 -154q0 -116 72 -155t141 -42h295v390zM905 0h-129v426h-254l-264 -426h-137l285 446q-265 53 -265 279q0 80 32 141q32 60 82 94q95 64 202 64h448v-1024z" />
    <glyph glyph-name="Wgrave" unicode="&#x1e80;" horiz-adv-x="1660" 
d="M1249 0h-168l-247 1126l-250 -1126h-168l-353 1434h142l295 -1260l268 1260h129l268 -1260l291 1260h141zM891 1604h-94l-152 239h137z" />
    <glyph glyph-name="wgrave" unicode="&#x1e81;" horiz-adv-x="1437" 
d="M1065 0h-129l-217 768l-217 -768h-127l-336 1026h135l260 -846l230 846h108l229 -846l263 846h135zM793 1194h-95l-149 240h137z" />
    <glyph glyph-name="Wacute" unicode="&#x1e82;" horiz-adv-x="1660" 
d="M1249 0h-168l-247 1126l-250 -1126h-168l-353 1434h142l295 -1260l268 1260h129l268 -1260l291 1260h141zM883 1602h-92l106 237h137z" />
    <glyph glyph-name="wacute" unicode="&#x1e83;" horiz-adv-x="1437" 
d="M1065 0h-129l-217 768l-217 -768h-127l-336 1026h135l260 -846l230 846h108l229 -846l263 846h135zM756 1194h-94l108 240h137z" />
    <glyph glyph-name="Wdieresis" unicode="&#x1e84;" horiz-adv-x="1660" 
d="M1249 0h-168l-247 1126l-250 -1126h-168l-353 1434h142l295 -1260l268 1260h129l268 -1260l291 1260h141zM1083 1716q0 -28 -14 -53t-48 -26t-53 19q-36 39 -13 79q23 39 51 39t52 -15t25 -43zM721 1716q0 -78 -73 -80q-24 0 -43 20t-19 44t15 49t42 25q28 0 53 -15
t25 -43z" />
    <glyph glyph-name="wdieresis" unicode="&#x1e85;" horiz-adv-x="1437" 
d="M1065 0h-129l-217 768l-217 -768h-127l-336 1026h135l260 -846l230 846h108l229 -846l263 846h135zM836 1292q0 34 20 54t48 20t47 -19t19 -49t-18 -49q-20 -20 -42 -20t-48 14t-26 49zM543 1366q29 0 47 -19t18 -49t-19 -49q-19 -20 -53 -20q-34 -1 -48 25
q-15 26 -15 50q1 24 21 42q20 20 49 20z" />
    <glyph glyph-name="Ygrave" unicode="&#x1ef2;" horiz-adv-x="1187" 
d="M659 0h-133v686l-463 748h156l373 -615l373 615h159l-465 -744v-690zM688 1606h-92l-152 237h138z" />
    <glyph glyph-name="ygrave" unicode="&#x1ef3;" horiz-adv-x="1067" 
d="M926 1026v-1100q0 -167 -96 -248t-252 -84q-199 0 -361 107l51 76q137 -80 279 -80q248 0 250 219v141q-119 -57 -287 -57q-265 0 -348 183q-31 69 -31 163v680h129v-672q0 -256 275 -256q145 0 262 54v874h129zM655 1194h-92l-151 240h137z" />
    <glyph glyph-name="endash" unicode="&#x2013;" horiz-adv-x="1085" 
d="M1012 506h-924v121h924v-121z" />
    <glyph glyph-name="emdash" unicode="&#x2014;" horiz-adv-x="1429" 
d="M1358 506h-1270v121h1270v-121z" />
    <glyph glyph-name="quoteleft" unicode="&#x2018;" horiz-adv-x="280" 
d="M236 1400q0 -34 -23 -57t-55 -23t-54 24q-39 38 -14 90l72 151h86l-43 -127q31 -24 31 -58z" />
    <glyph glyph-name="quoteright" unicode="&#x2019;" horiz-adv-x="309" 
d="M88 1504q0 34 23 58t55 24t54 -24t22 -48t-9 -41l-71 -152h-86l43 125q-31 24 -31 58z" />
    <glyph glyph-name="quotesinglbase" unicode="&#x201a;" horiz-adv-x="296" 
d="M82 68q0 36 22 58t55 22q31 0 55 -24q24 -22 24 -47t-11 -42l-71 -152h-84l43 127q-33 23 -33 58z" />
    <glyph glyph-name="quotedblleft" unicode="&#x201c;" horiz-adv-x="536" 
d="M465 1400q0 -34 -23 -57q-22 -23 -54 -23t-54 24q-22 22 -23 48q0 26 8 42l72 151h84l-43 -127q33 -24 33 -58zM236 1400q0 -34 -23 -57t-55 -23t-54 24q-39 38 -14 90l72 151h86l-43 -127q31 -24 31 -58z" />
    <glyph glyph-name="quotedblright" unicode="&#x201d;" horiz-adv-x="536" 
d="M315 1504q0 34 23 58q22 24 54 24t54 -24t23 -48q0 -24 -8 -41l-72 -152h-84l43 125q-33 24 -33 58zM88 1504q0 34 23 58t55 24t54 -24t22 -48t-9 -41l-71 -152h-86l43 125q-31 24 -31 58z" />
    <glyph glyph-name="quotedblbase" unicode="&#x201e;" horiz-adv-x="526" 
d="M311 68q0 36 23 58q22 22 54 22t54 -24q22 -22 23 -47q0 -25 -8 -42l-72 -152h-86l43 127q-31 23 -31 58zM82 68q0 36 22 58t55 22q31 0 55 -24q24 -22 24 -47t-11 -42l-71 -152h-84l43 127q-33 23 -33 58z" />
    <glyph glyph-name="dagger" unicode="&#x2020;" horiz-adv-x="940" 
d="M535 825h303v-118h-303v-809h-127v809h-306v118h306v609h127v-609z" />
    <glyph glyph-name="daggerdbl" unicode="&#x2021;" horiz-adv-x="940" 
d="M532 1083h306v-116h-306v-590h306v-119h-306v-360h-126v360h-304v119h304v590h-304v116h304v351h126v-351z" />
    <glyph glyph-name="bullet" unicode="&#x2022;" horiz-adv-x="620" 
d="M315 883q94 0 161 -67t67 -161q0 -95 -67 -161t-161 -66q-95 0 -161 67t-66 161t66 160q66 67 161 67z" />
    <glyph glyph-name="ellipsis" unicode="&#x2026;" horiz-adv-x="1107" 
d="M970 147q32 -1 54 -23t23 -59t-27 -54t-55 -17t-50 22t-22 55q0 32 22 54q23 22 55 22zM561 147q31 -1 55 -23t23 -54q0 -32 -24 -54q-25 -22 -55 -22t-54 22t-23 55q-1 32 23 54t55 22zM153 147q31 -1 55 -23t24 -54t-24 -54t-56 -22t-54 22q-23 22 -22 55q0 32 22 54
q23 22 55 22z" />
    <glyph glyph-name="perthousand" unicode="&#x2030;" horiz-adv-x="2203" 
d="M1103 500q-89 0 -151 -62t-63 -153q0 -89 62 -151q61 -62 151 -62t153 62t63 152t-62 152q-64 62 -153 62zM1824 500q-90 0 -152 -62t-62 -152t62 -152t152 -62t152 62q64 62 64 152t-64 152t-152 62zM1104 596q84 0 156 -42t114 -114t41 -145q0 -141 -91 -232
q-92 -90 -222 -90q-129 0 -219 90q-90 91 -90 221t91 221t220 91zM1823 596q129 0 221 -91t92 -220t-91 -220t-221 -91t-220 90q-90 92 -91 221q1 129 91 220t219 91zM408 932q90 0 152 62t62 150t-62 152t-136 64t-124 -29t-78 -78t-27 -108q0 -89 62 -151q61 -62 151 -62z
M285 0h-140l1084 1434h139zM408 1456q129 0 221 -91t92 -219t-92 -219t-221 -92t-221 89q-91 90 -91 220t91 221q92 91 221 91z" />
    <glyph glyph-name="guilsinglleft" unicode="&#x2039;" horiz-adv-x="645" 
d="M573 874l-327 -325l327 -324l-84 -86l-407 410l407 407z" />
    <glyph glyph-name="guilsinglright" unicode="&#x203a;" horiz-adv-x="645" 
d="M578 549l-408 -410l-82 86l326 324l-326 325l82 82z" />
    <glyph glyph-name="fraction" unicode="&#x2044;" horiz-adv-x="778" 
d="M199 0h-117l498 1434h116z" />
    <glyph glyph-name="Euro" unicode="&#x20ac;" horiz-adv-x="1230" 
d="M250 872v162q0 113 40 198q71 151 253 208q80 25 168 24q143 0 256 -61t161 -182l-102 -47q-39 86 -122 128q-139 70 -304 25q-134 -37 -187 -148q-30 -62 -30 -147v-160h440v-77h-440v-152h440v-78h-440v-155q0 -82 31 -144t80 -98q95 -68 211 -69q244 -2 321 171
l102 -47q-50 -121 -162 -183t-242 -62t-208 32q-78 33 -121 68q-145 118 -145 332v155h-117v78h117v152h-117v77h117z" />
    <glyph glyph-name="trademark" unicode="&#x2122;" horiz-adv-x="1470" 
d="M1393 602h-97v586l-209 -553h-73l-207 555v-588h-98v832h96l248 -650l245 650h95v-832zM610 1346h-221v-744h-100v744h-213v88h534v-88z" />
    <glyph glyph-name="oneeighth" unicode="&#x215b;" horiz-adv-x="1507" 
d="M1321 248q0 66 -49 118t-124 52t-123 -52t-48 -118t46 -116q46 -51 126 -52q80 0 126 51t46 117zM1151 784q-59 0 -97 -42t-38 -97t41 -95t94 -40t94 38t41 96t-38 99t-97 41zM920 638q0 105 66 171q67 65 149 65t134 -28t83 -81q31 -52 30 -118q0 -117 -108 -182
q28 -14 56 -36t58 -72t29 -111q0 -115 -78 -188q-79 -72 -191 -72t-190 72t-77 188q0 145 145 221q-106 66 -106 171zM487 0h-118l497 1434h119zM369 571h-99v703q-62 -57 -153 -64l-27 97q48 7 108 37t85 90h86v-863z" />
    <glyph glyph-name="threeeighths" unicode="&#x215c;" horiz-adv-x="1656" 
d="M1287 80q122 0 166 89q19 38 19 91q0 54 -50 106t-125 52t-122 -53t-48 -117t47 -116t113 -52zM1301 784q-60 0 -98 -42t-38 -97t41 -95t94 -40t95 38q41 38 41 96t-37 99q-38 41 -98 41zM1030 246q0 145 146 221q-106 66 -106 171q0 104 66 170t165 66t165 -63t66 -172
t-109 -174q29 -14 57 -36t58 -72t29 -111q0 -115 -77 -188t-190 -72q-159 0 -233 122q-37 60 -37 138zM651 0h-119l498 1434h119zM341 1454q85 0 151 -63t66 -172t-101 -164q71 -33 109 -93t38 -135q0 -113 -79 -187t-195 -75q-76 0 -138 35t-102 94l80 51q51 -83 158 -83
t153 82q23 40 23 102t-52 112t-122 50h-76v86h72q55 0 95 36t40 94q0 56 -38 95t-81 39q-106 0 -139 -88l-90 37q27 67 85 107t143 40z" />
    <glyph glyph-name="fiveeighths" unicode="&#x215d;" horiz-adv-x="1656" 
d="M1298 418q-74 0 -122 -52t-50 -117q0 -65 48 -117t126 -52t125 51t47 117t-50 118t-124 52zM1301 784q-83 0 -119 -72q-16 -32 -16 -77t40 -85q41 -40 94 -40t95 38q41 38 41 86t-17 80q-35 70 -118 70zM1030 246q0 145 146 221q-106 66 -106 171q0 104 66 170t165 66
t165 -63t66 -172t-109 -174q29 -14 57 -36t58 -72q30 -51 29 -119q0 -68 -36 -128t-97 -92t-134 -32q-114 0 -192 72t-78 188zM649 0h-117l498 1434h117zM524 1341h-280l-27 -229h105q108 -2 190 -76t82 -202t-88 -202q-88 -75 -184 -75t-160 40t-92 89l80 49q22 -37 66 -61
t91 -25q82 -1 134 57q53 58 53 131t-52 128t-133 55h-192l45 414h362v-93z" />
    <glyph glyph-name="seveneighths" unicode="&#x215e;" horiz-adv-x="1454" 
d="M1084 418q-62 0 -111 -52t-49 -117t48 -117t114 -52t105 26q77 49 78 141q1 91 -83 145q-40 26 -102 26zM1090 784q-48 0 -88 -42t-40 -97t43 -95q42 -40 85 -40q44 0 74 16t49 48t20 69q0 83 -63 122q-31 19 -80 19zM829 246q0 145 146 221q-109 66 -109 171
q0 104 67 170t166 66t165 -63t66 -172t-109 -174q31 -14 57 -36t58 -72q30 -50 30 -111q0 -115 -78 -188t-190 -72q-156 0 -232 122q-37 60 -37 138zM442 0h-118l497 1434h119zM66 1339v95h509v-72l-395 -772h-104l383 749h-393z" />
    <glyph glyph-name="partialdiff" unicode="&#x2202;" horiz-adv-x="1705" 
 />
    <glyph glyph-name="product" unicode="&#x220f;" horiz-adv-x="1705" 
 />
    <glyph glyph-name="summation" unicode="&#x2211;" horiz-adv-x="1705" 
 />
    <glyph glyph-name="minus" unicode="&#x2212;" horiz-adv-x="940" 
d="M838 578h-736v118h736v-118z" />
    <glyph glyph-name="radical" unicode="&#x221a;" horiz-adv-x="1705" 
 />
    <glyph glyph-name="infinity" unicode="&#x221e;" horiz-adv-x="1705" 
 />
    <glyph glyph-name="integral" unicode="&#x222b;" horiz-adv-x="1705" 
 />
    <glyph glyph-name="approxequal" unicode="&#x2248;" horiz-adv-x="1032" 
d="M328 492q74 0 206 -46t214 -47q82 0 141 66l65 -78q-86 -88 -213 -88q-78 0 -213 46t-200 46q-109 0 -183 -90l-65 74q96 117 248 117zM750 774q80 0 139 66l65 -78q-84 -88 -213 -88q-76 0 -212 46t-201 46q-109 0 -183 -90l-65 76q96 115 248 114q78 0 210 -46t212 -46
z" />
    <glyph glyph-name="notequal" unicode="&#x2260;" horiz-adv-x="940" 
d="M838 842v-117h-258l-86 -252h344v-117h-385l-136 -389h-129l136 389h-222v117h263l86 252h-349v117h390l131 377h129l-131 -377h217z" />
    <glyph glyph-name="lessequal" unicode="&#x2264;" horiz-adv-x="907" 
d="M805 0h-703v106h703v-106zM754 1337l-514 -514l514 -516l-68 -67l-582 583l582 582z" />
    <glyph glyph-name="greaterequal" unicode="&#x2265;" horiz-adv-x="907" 
d="M805 0h-703v106h703v-106zM805 823l-582 -583l-67 67l514 516l-514 514l67 68z" />
    <glyph glyph-name="lozenge" unicode="&#x25ca;" horiz-adv-x="1705" 
 />
    <glyph glyph-name="uniF8FF" unicode="&#xf8ff;" horiz-adv-x="0" 
 />
    <glyph glyph-name="a.ss01" horiz-adv-x="1042" 
d="M510 940q-274 0 -274 -256v-356q0 -121 78 -181q79 -59 212 -59t246 57v742q-117 53 -262 53zM901 0h-104l-2 53q-125 -69 -291 -69t-282 80t-116 266v362q0 94 32 166t87 111q103 73 260 73q158 0 310 -67l2 51h104v-1026z" />
    <glyph glyph-name="e.ss01" horiz-adv-x="976" 
d="M236 688v-133q123 -61 251 -61t202 48q73 48 74 162t-67 174t-170 60q-290 0 -290 -250zM106 311v363q0 174 106 272t288 98q180 0 281 -92t101 -249t-103 -229q-104 -71 -254 -72t-292 55v-158q0 -219 248 -219q160 0 281 82l72 -64q-147 -121 -342 -121q-194 0 -290 89
t-96 245z" />
    <glyph glyph-name="T_h" horiz-adv-x="2097" 
d="M1303 1434v-451q121 59 274 59q270 0 356 -182q33 -70 33 -164v-696h-129v690q0 86 -37 144q-69 107 -223 106q-155 0 -274 -57v-883h-129v1313h-578v-1313h-133v1313h-381v121h1221z" />
    <glyph glyph-name="c_h" horiz-adv-x="1990" 
d="M1731 690q0 250 -283 250q-133 0 -252 -57v-883h-129v1331q-51 27 -111 27q-104 0 -166 -70t-63 -160q0 -90 88 -210l-96 -52q-96 70 -215 70t-194 -78t-74 -231v-230q0 -153 74 -231t194 -78q119 0 215 72l96 -51q-125 -127 -309 -127q-248 0 -348 187q-52 95 -52 228
v230q0 286 217 379q78 34 169 34q90 0 167 -20q-35 59 -34 129q0 109 80 201q99 118 245 118t246 -96v-389q121 59 274 59q271 0 357 -182q33 -70 33 -164v-696h-129v690z" />
    <glyph glyph-name="c_t" horiz-adv-x="1611" 
d="M104 397v232q0 195 102 300t273 113q86 2 178 -22q-37 61 -36 131q0 125 99 221q98 96 232 96t240 -96v-346h270v-108h-270v-512q0 -256 207 -308q55 -14 131 -10v-108q-248 -13 -379 133q-88 98 -88 274v944q-49 27 -107 27q-94 0 -164 -66t-69 -168q0 -57 22 -97
t43 -72t23 -37l-94 -52q-98 70 -217 70t-193 -78t-74 -229v-232q0 -151 74 -229t193 -78t217 70l94 -51q-123 -127 -307 -127q-248 0 -348 187q-52 95 -52 228z" />
    <glyph glyph-name="f_b" horiz-adv-x="1640" 
d="M1405 328v356q0 256 -272 256q-145 0 -263 -53v-742q113 -57 246 -57t211 60t78 180zM150 0v1116q0 162 92 251t245 89q99 0 195 -24t143 -48l45 -24v-375q139 57 289 57t263 -78q112 -78 112 -272v-362q0 -191 -118 -268q-118 -78 -282 -78q-163 0 -286 69l-4 -53h-103
v1296q-125 51 -247 52q-69 0 -143 -48t-72 -196v-78h270v-102h-270v-924h-129z" />
    <glyph glyph-name="f_h" horiz-adv-x="1667" 
d="M150 0v1116q0 109 43 187q43 77 119 115t175 38t195 -24t143 -48l45 -24v-377q121 59 275 59q270 0 356 -182q33 -70 33 -164v-696h-129v690q0 86 -37 144q-69 106 -224 106t-274 -57v-883h-129v1296q-125 51 -247 52q-69 0 -143 -48t-72 -196v-78h270v-102h-270v-924
h-129z" />
    <glyph glyph-name="f_i" horiz-adv-x="1011" 
d="M150 0v1116q0 109 43 187q84 153 294 153q111 0 185 -23t103 -34l20 -8v-99q-127 55 -283 56q-77 0 -156 -46t-77 -200v-76h591v-1026h-129v924h-462v-924h-129z" />
    <glyph glyph-name="f_j" horiz-adv-x="1011" 
d="M150 0v1116q0 162 92 251t245 89q111 0 185 -23t103 -34l20 -8v-99q-127 55 -283 56q-81 0 -147 -40q-88 -54 -86 -202v-80h591v-1149q0 -98 -52 -166t-142 -98q-47 -20 -101 -23l-6 107q53 6 88 24q84 47 84 175v1028h-462v-924h-129z" />
    <glyph glyph-name="f_k" horiz-adv-x="1611" 
d="M152 0v1116q0 109 44 187q86 153 293 153q101 0 197 -24t141 -48l45 -24v-793l484 473h160l-406 -413l463 -627h-146l-397 539l-158 -148v-391h-129v1296q-125 51 -247 52q-66 0 -142 -48q-75 -48 -73 -196v-78h272v-102h-272v-924h-129z" />
    <glyph glyph-name="f_l" horiz-adv-x="1003" 
d="M150 0v1116q0 109 43 187q43 77 119 115t175 38t195 -24t143 -48l45 -24v-1360h-129v1296q-125 51 -247 52q-69 0 -143 -48t-72 -196v-78h270v-102h-270v-924h-129z" />
    <glyph glyph-name="s_p" horiz-adv-x="1988" 
d="M1753 340v358q0 120 -78 180t-211 60t-247 -57v-742q117 -53 262 -53q274 0 274 254zM443 82q98 0 154 24q116 51 116 166q0 65 -31 94q-31 30 -51 44t-77 35t-116 37q-59 15 -132 38t-116 64q-81 76 -81 187q0 110 84 193t258 83q66 0 129 -15q-27 57 -27 123
q0 125 92 214t225 89q132 0 228 -96t98 -229v-160q123 69 288 69t282 -80q116 -80 116 -266v-362q0 -197 -115 -274q-115 -78 -263 -78t-287 57v-453h-130v1547q0 90 -65 153q-66 64 -155 64t-153 -65t-65 -155q0 -90 66 -149q106 -78 106 -219h-125q0 72 -56 125t-174 53
t-175 -53t-56 -124t63 -109t166 -66t162 -50q56 -22 109 -57q107 -71 107 -204q0 -134 -96 -219t-278 -85q-181 0 -282 85q-100 85 -106 214h125q8 -82 74 -136t164 -54z" />
    <glyph glyph-name="s_t" horiz-adv-x="1558" 
d="M466 82q118 0 186 54t67 136q0 103 -118 156q-75 32 -146 52q-72 19 -146 43t-116 63q-80 75 -80 185t86 193t260 83q59 0 137 -15q-29 55 -29 119q0 119 96 218t242 99q88 0 185 -58q18 -12 32 -24t17 -12v-348h270v-106h-270v-512q0 -264 219 -312q51 -12 117 -8v-108
q-243 -15 -374 129q-91 100 -91 280v944q-51 27 -125 27t-137 -62q-78 -68 -78 -167t63 -160q94 -80 94 -209h-125q0 70 -55 125t-176 55q-169 0 -218 -117q-13 -31 -13 -63q0 -70 62 -108t167 -66t161 -50t110 -57q108 -70 108 -203t-96 -219t-278 -86t-283 85t-105 216
h125q8 -82 73 -137q64 -55 182 -55z" />
    <glyph glyph-name="zero.lf" horiz-adv-x="1177" 
d="M909 397v623q0 235 -180 302q-59 22 -137 21q-154 1 -238 -79t-84 -242v-625q0 -222 204 -282q118 -35 237 -1q120 34 171 143q27 60 27 140zM141 393v631q0 215 122 328t329 112q140 0 242 -55q204 -110 204 -387v-629q0 -305 -288 -393q-76 -23 -159 -23
q-168 0 -302 92q-68 45 -108 129t-40 195z" />
    <glyph glyph-name="one.lf" horiz-adv-x="675" 
d="M494 0h-123v1231q-45 -51 -117 -86t-152 -43l-32 121q96 14 182 66t131 145h111v-1434z" />
    <glyph glyph-name="two.lf" horiz-adv-x="970" 
d="M510 1454q110 0 194 -49t132 -134t47 -190q0 -162 -111 -301l-493 -659h604v-121h-789v96l561 742q99 129 99 241q0 113 -69 185t-183 72t-176 -58q-64 -56 -95 -154l-125 37q96 293 404 293z" />
    <glyph glyph-name="three.lf" horiz-adv-x="1054" 
d="M494 1454q144 0 254 -104q109 -104 108 -271q0 -109 -57 -189t-142 -118q109 -39 185 -138t76 -231q0 -193 -126 -311t-317 -117q-131 1 -231 59t-156 144l100 66q45 -68 121 -108t166 -40q135 0 223 88t88 218t-96 222q-96 91 -225 91h-111v108h111q106 0 185 72
q79 71 79 181t-72 184t-169 74t-158 -46q-61 -44 -88 -110l-115 47q39 93 131 161t236 68z" />
    <glyph glyph-name="four.lf" horiz-adv-x="1042" 
d="M696 494v737l-489 -737h489zM823 494h127v-115h-127v-379h-127v379h-622v115l614 940h135v-940z" />
    <glyph glyph-name="five.lf" horiz-adv-x="1062" 
d="M827 1313h-475l-47 -432h189q188 -2 319 -131t131 -316q0 -125 -58 -230q-58 -104 -166 -166t-238 -62t-234 60q-104 62 -158 148l100 64q41 -68 122 -110t167 -42q147 0 241 100t93 233q0 133 -92 233t-240 100h-305l76 672h575v-121z" />
    <glyph glyph-name="six.lf" horiz-adv-x="1228" 
d="M602 760q-94 0 -168 -44t-116 -119t-44 -169q0 -139 94 -235q94 -97 235 -97t235 96t94 237q0 140 -94 236q-95 95 -236 95zM145 428v520q0 187 121 341q60 75 162 120t234 45q213 0 360 -125l-80 -92q-111 96 -283 96q-104 0 -184 -36q-137 -62 -186 -215
q-20 -62 -21 -126v-274q58 104 150 152t190 47q190 0 322 -131q132 -130 131 -320q0 -190 -134 -322q-135 -132 -325 -132t-324 132t-133 320z" />
    <glyph glyph-name="seven.lf" horiz-adv-x="1030" 
d="M74 1311v123h833v-95l-686 -1339h-129l670 1311h-688z" />
    <glyph glyph-name="eight.lf" horiz-adv-x="1161" 
d="M579 711q-127 0 -219 -88t-92 -219q0 -132 90 -220t224 -88q88 0 160 40t111 111q40 71 40 159q0 127 -93 216t-221 89zM836 1078q0 108 -72 182t-181 73q-110 1 -182 -73q-71 -74 -71 -182t77 -179q77 -72 177 -72t176 71q76 72 76 180zM1022 403q0 -193 -125 -311
t-315 -117q-190 0 -318 118q-127 118 -127 310q0 133 76 233t186 138q-82 39 -139 120t-57 185q0 166 108 271q109 104 271 104t271 -104q110 -104 110 -261q0 -156 -102 -251q-44 -41 -97 -66q110 -39 184 -138t74 -231z" />
    <glyph glyph-name="nine.lf" horiz-adv-x="1177" 
d="M574 1333q-140 0 -234 -96q-94 -97 -94 -237t94 -235t235 -95t233 94q91 94 92 235t-92 238q-94 96 -234 96zM907 473v277q-55 -106 -147 -154t-191 -47q-190 0 -321 132t-131 320q0 189 133 321t324 132q192 0 324 -132t132 -321v-520q0 -162 -76 -280
q-140 -226 -438 -226q-213 0 -360 125l80 93q111 -96 282 -97q285 0 369 251q20 63 20 126z" />
    <glyph glyph-name="zero.osf" horiz-adv-x="1177" 
d="M909 397v201q0 154 -82 239q-81 85 -235 85t-238 -80t-84 -242v-203q0 -222 204 -282q118 -35 237 -1q120 34 171 143q27 60 27 140zM141 393v209q-1 144 57 244q112 196 394 196q213 0 330 -118t116 -324v-207q0 -305 -288 -393q-76 -23 -159 -23q-168 0 -302 92
q-68 45 -108 129t-40 195z" />
    <glyph glyph-name="one.osf" horiz-adv-x="937" 
d="M561 115h230v-115h-592v115h243v719q-45 -47 -110 -82q-70 -31 -139 -41l-29 108q88 16 155 58q94 55 140 145h102v-907z" />
    <glyph glyph-name="two.osf" horiz-adv-x="966" 
d="M879 688q1 -82 -55 -171t-165 -163l-340 -237h560v-117h-789v94l447 299q96 66 154 146t59 145q0 104 -68 173t-174 69q-214 0 -277 -197l-125 35q98 279 400 278q158 0 266 -99t107 -255z" />
    <glyph glyph-name="three.osf" horiz-adv-x="1054" 
d="M918 -8q0 -192 -125 -310t-318 -118q-88 0 -168 30q-144 53 -219 173l100 67q45 -70 121 -110t166 -39q133 0 222 88t89 218t-96 221t-225 91h-111v109h111q107 0 186 71q80 71 79 182q-1 109 -73 183t-169 74t-158 -45t-88 -111l-115 45q39 96 131 164t219 67
q162 0 271 -105t108 -269q0 -74 -29 -138q-53 -116 -170 -170q109 -41 185 -139t76 -229z" />
    <glyph glyph-name="four.osf" horiz-adv-x="1042" 
d="M696 86v735l-489 -735h489zM823 86h127v-117h-127v-377h-127v377h-622v117l614 940h135v-940z" />
    <glyph glyph-name="five.osf" horiz-adv-x="1062" 
d="M827 905h-475l-47 -432h189q188 -2 319 -131t131 -315q0 -125 -58 -229t-166 -166t-238 -62t-235 60t-157 147l100 65q55 -92 176 -132q56 -19 134 -19t155 48q78 48 119 123t41 161q-2 133 -94 232t-240 99h-305l76 674h575v-123z" />
    <glyph glyph-name="six.osf" horiz-adv-x="1228" 
d="M602 760q-94 0 -168 -44t-116 -119t-44 -169q0 -139 94 -235q94 -97 235 -97t235 96t94 237q0 140 -94 236q-95 95 -236 95zM145 428v520q0 187 121 341q60 75 162 120t234 45q213 0 360 -125l-80 -92q-111 96 -283 96q-104 0 -184 -36q-137 -62 -186 -215
q-20 -62 -21 -126v-274q58 104 150 152t190 47q190 0 322 -131q132 -130 131 -320q0 -190 -134 -322q-135 -132 -325 -132t-324 132t-133 320z" />
    <glyph glyph-name="seven.osf" horiz-adv-x="1030" 
d="M74 903v123h833v-94l-686 -1340h-129l670 1311h-688z" />
    <glyph glyph-name="eight.osf" horiz-adv-x="1161" 
d="M579 711q-127 0 -219 -88t-92 -219q0 -132 90 -220t224 -88q88 0 160 40t111 111q40 71 40 159q0 127 -93 216t-221 89zM836 1078q0 108 -72 182t-181 73q-110 1 -182 -73q-71 -74 -71 -182t77 -179q77 -72 177 -72t176 71q76 72 76 180zM1022 403q0 -193 -125 -311
t-315 -117q-190 0 -318 118q-127 118 -127 310q0 133 76 233t186 138q-82 39 -139 120t-57 185q0 166 108 271q109 104 271 104t271 -104q110 -104 110 -261q0 -156 -102 -251q-44 -41 -97 -66q110 -39 184 -138t74 -231z" />
    <glyph glyph-name="nine.osf" horiz-adv-x="1177" 
d="M574 920q-140 0 -234 -96t-94 -236q0 -92 42 -168t118 -120t169 -44q141 0 233 94q91 94 92 236q2 142 -92 238t-234 96zM907 336q-105 -199 -351 -199q-112 -1 -216 59t-164 163q-59 103 -59 227t61 229q62 105 166 165t231 60q191 0 323 -132t132 -320v-520
q0 -193 -119 -340q-59 -74 -161 -119t-234 -45q-215 0 -360 125l80 90q111 -94 282 -94q285 0 369 248q20 62 20 128v275z" />
    <glyph glyph-name="zero.tf" horiz-adv-x="1177" 
d="M909 397v623q0 235 -180 302q-59 22 -137 21q-154 1 -238 -79t-84 -242v-625q0 -222 204 -282q118 -35 237 -1q120 34 171 143q27 60 27 140zM141 393v631q0 215 122 328t329 112q140 0 242 -55q204 -110 204 -387v-629q0 -305 -288 -393q-76 -23 -159 -23
q-168 0 -302 92q-68 45 -108 129t-40 195z" />
    <glyph glyph-name="one.tf" horiz-adv-x="1148" 
d="M655 119h242v-119h-621v119h256v1128q-47 -51 -116 -88q-74 -33 -152 -43l-33 123q94 14 168 59q98 55 146 152h110v-1331z" />
    <glyph glyph-name="two.tf" horiz-adv-x="1159" 
d="M510 1454q110 0 194 -49t132 -134t47 -190q0 -162 -111 -301l-493 -659h604v-121h-789v96l561 742q99 129 99 241q0 113 -69 185t-183 72t-176 -58q-64 -56 -95 -154l-125 37q96 293 404 293z" />
    <glyph glyph-name="three.tf" horiz-adv-x="1155" 
d="M494 1454q144 0 254 -104q109 -104 108 -271q0 -109 -57 -189t-142 -118q109 -39 185 -138t76 -231q0 -193 -126 -311t-317 -117q-131 1 -231 59t-156 144l100 66q45 -68 121 -108t166 -40q135 0 223 88t88 218t-96 222q-96 91 -225 91h-111v108h111q106 0 185 72
q79 71 79 181t-72 184t-169 74t-158 -46q-61 -44 -88 -110l-115 47q39 93 131 161t236 68z" />
    <glyph glyph-name="four.tf" horiz-adv-x="1167" 
d="M696 494v737l-489 -737h489zM823 494h127v-115h-127v-379h-127v379h-622v115l614 940h135v-940z" />
    <glyph glyph-name="five.tf" horiz-adv-x="1167" 
d="M827 1313h-475l-47 -432h189q188 -2 319 -131t131 -316q0 -125 -58 -230q-58 -104 -166 -166t-238 -62t-234 60q-104 62 -158 148l100 64q41 -68 122 -110t167 -42q147 0 241 100t93 233q0 133 -92 233t-240 100h-305l76 672h575v-121z" />
    <glyph glyph-name="six.tf" horiz-adv-x="1198" 
d="M602 760q-94 0 -168 -44t-116 -119t-44 -169q0 -139 94 -235q94 -97 235 -97t235 96t94 237q0 140 -94 236q-95 95 -236 95zM145 428v520q0 187 121 341q60 75 162 120t234 45q213 0 360 -125l-80 -92q-111 96 -283 96q-104 0 -184 -36q-137 -62 -186 -215
q-20 -62 -21 -126v-274q58 104 150 152t190 47q190 0 322 -131q132 -130 131 -320q0 -190 -134 -322q-135 -132 -325 -132t-324 132t-133 320z" />
    <glyph glyph-name="seven.tf" horiz-adv-x="1142" 
d="M74 1311v123h833v-95l-686 -1339h-129l670 1311h-688z" />
    <glyph glyph-name="eight.tf" horiz-adv-x="1169" 
d="M579 711q-127 0 -219 -88t-92 -219q0 -132 90 -220t224 -88q88 0 160 40t111 111q40 71 40 159q0 127 -93 216t-221 89zM836 1078q0 108 -72 182t-181 73q-110 1 -182 -73q-71 -74 -71 -182t77 -179q77 -72 177 -72t176 71q76 72 76 180zM1022 403q0 -193 -125 -311
t-315 -117q-190 0 -318 118q-127 118 -127 310q0 133 76 233t186 138q-82 39 -139 120t-57 185q0 166 108 271q109 104 271 104t271 -104q110 -104 110 -261q0 -156 -102 -251q-44 -41 -97 -66q110 -39 184 -138t74 -231z" />
    <glyph glyph-name="nine.tf" horiz-adv-x="1198" 
d="M574 1333q-140 0 -234 -96q-94 -97 -94 -237t94 -235t235 -95t233 94q91 94 92 235t-92 238q-94 96 -234 96zM907 473v277q-55 -106 -147 -154t-191 -47q-190 0 -321 132t-131 320q0 189 133 321t324 132q192 0 324 -132t132 -321v-520q0 -162 -76 -280
q-140 -226 -438 -226q-213 0 -360 125l80 93q111 -96 282 -97q285 0 369 251q20 63 20 126z" />
    <glyph glyph-name="zero.tosf" horiz-adv-x="1177" 
d="M909 397v201q0 154 -81 239q-82 85 -236 85t-238 -80t-84 -242v-203q0 -222 204 -282q118 -35 237 -1q120 34 171 143q27 60 27 140zM141 393v209q-1 144 57 244q112 196 396 196q211 0 328 -118t116 -324v-207q0 -213 -145 -324q-112 -88 -291 -90t-313 90
q-68 45 -108 129t-40 195z" />
    <glyph glyph-name="one.tosf" horiz-adv-x="1118" 
d="M643 115h229v-115h-591v115h243v719q-44 -47 -112 -80t-138 -43l-28 108q86 16 155 58q94 53 140 145h102v-907z" />
    <glyph glyph-name="two.tosf" horiz-adv-x="1200" 
d="M975 688q0 -82 -55 -171t-164 -163l-340 -237h557v-117h-789v94l449 299q94 66 153 146t60 145q0 104 -68 173t-176 69q-213 0 -274 -197l-125 35q96 279 399 278q158 0 266 -99t107 -255z" />
    <glyph glyph-name="three.tosf" horiz-adv-x="1155" 
d="M983 -8q0 -192 -125 -310t-315 -118q-131 0 -231 58t-156 145l100 67q45 -70 121 -110t165 -39q88 0 160 40q72 39 112 111t40 158q0 127 -96 217t-226 90h-112v109h112q106 0 186 72q79 73 79 183q0 109 -72 183q-73 74 -179 74t-174 -68q-42 -39 -63 -90l-114 49
q39 94 131 162q92 67 208 67t203 -47q86 -47 136 -133q51 -86 51 -194t-58 -190q-58 -81 -141 -118q109 -39 183 -138t75 -230z" />
    <glyph glyph-name="four.tosf" horiz-adv-x="1167" 
d="M764 86v735l-488 -735h488zM893 86h125v-117h-125v-377h-129v377h-623v117l617 940h135v-940z" />
    <glyph glyph-name="five.tosf" horiz-adv-x="1167" 
d="M889 905h-477l-47 -432h188q188 -2 319 -131q132 -128 132 -318t-132 -322t-333 -132q-127 0 -231 60t-158 147l100 65q59 -92 176 -132q55 -19 113 -19q147 0 241 99t94 233q0 188 -155 283q-78 48 -178 48h-303l73 674h578v-123z" />
    <glyph glyph-name="six.tosf" horiz-adv-x="1200" 
d="M616 760q-94 0 -168 -44t-114 -119q-41 -75 -43 -169q0 -139 93 -235q93 -97 233 -97q141 0 235 96t94 237q0 140 -94 236q-95 95 -236 95zM162 428v520q0 192 119 341q59 75 161 120t234 45q213 0 360 -125l-80 -92q-111 96 -282 96q-104 0 -184 -36t-122 -94
q-86 -121 -85 -247v-274q57 104 149 152t191 47q190 0 321 -131q131 -130 131 -320t-133 -322q-132 -132 -324 -132t-324 132t-132 320z" />
    <glyph glyph-name="seven.tosf" horiz-adv-x="1142" 
d="M176 903v123h834v-94l-686 -1340h-129l669 1311h-688z" />
    <glyph glyph-name="eight.tosf" horiz-adv-x="1169" 
d="M264 406q0 -88 42 -159t114 -111t160 -40q133 0 222 88t89 218t-94 220q-94 89 -221 89t-220 -89q-92 -89 -92 -216zM581 1333q-110 1 -183 -73q-72 -74 -72 -182t78 -179q78 -72 176 -72q100 0 176 71q76 72 76 180t-71 182q-70 74 -180 73zM581 1454q163 0 271 -104
t109 -271q0 -74 -30 -137q-56 -118 -171 -170q108 -39 184 -138t76 -231q0 -193 -125 -311t-315 -117q-190 0 -318 118q-127 118 -127 310q0 133 75 233t187 138q-84 39 -141 120t-57 185q0 166 109 271q110 104 273 104z" />
    <glyph glyph-name="nine.tosf" horiz-adv-x="1200" 
d="M600 256q94 0 168 44t116 119t43 149q2 181 -131 288q-83 64 -210 64t-221 -96q-95 -96 -95 -236t94 -236t236 -96zM934 61v275q-58 -104 -150 -152t-190 -47q-190 0 -322 131q-131 132 -131 320t133 320q132 132 324 132t324 -132t133 -320v-520q0 -193 -119 -340
q-60 -74 -162 -119t-233 -45q-215 0 -361 125l80 90q113 -94 283 -94q104 -1 184 35q137 61 186 213q21 62 21 128z" />
    <glyph glyph-name="zero.dnom" horiz-adv-x="739" 
d="M545 256v348q0 76 -43 127t-131 51t-133 -49t-45 -129v-346q0 -78 43 -129t132 -51t133 49t44 129zM90 262v338q0 163 122 237q65 38 159 37q139 0 208 -78t68 -196v-340q-1 -121 -71 -198q-70 -76 -208 -76t-208 78t-70 198z" />
    <glyph glyph-name="one.dnom" horiz-adv-x="409" 
d="M319 0h-98v702q-63 -59 -155 -63l-25 96q49 6 100 35q68 33 92 92h86v-862z" />
    <glyph glyph-name="two.dnom" horiz-adv-x="610" 
d="M319 874q100 0 165 -66t65 -165q0 -100 -68 -182l-278 -369h346v-92h-486v72l334 438q51 66 51 130t-35 103q-36 39 -94 39q-116 1 -151 -118l-98 24q61 186 249 186z" />
    <glyph glyph-name="three.dnom" horiz-adv-x="659" 
d="M311 778q-93 0 -127 -88l-90 37q27 68 86 108q59 39 143 39t151 -63t67 -171t-101 -165q68 -33 107 -92t39 -133q0 -115 -79 -190t-196 -74q-74 0 -136 34t-101 95l80 51q51 -84 157 -84q76 0 125 49t49 124t-51 124t-123 49h-73v86h71q55 0 94 37t39 94t-38 95t-93 38z
" />
    <glyph glyph-name="four.dnom" horiz-adv-x="645" 
d="M414 313v402l-262 -402h262zM512 313h72v-92h-72v-221h-102v221h-363v82l367 559h98v-549z" />
    <glyph glyph-name="five.dnom" horiz-adv-x="661" 
d="M524 770h-280l-27 -229h105q106 0 189 -74t83 -203t-88 -204q-88 -74 -184 -74t-160 40t-92 89l80 51q22 -39 66 -63t91 -23q82 0 134 56q53 56 53 129t-52 128t-133 56h-192l45 413h362v-92z" />
    <glyph glyph-name="six.dnom" horiz-adv-x="720" 
d="M372 440q-81 0 -131 -53q-51 -53 -51 -129t50 -130t131 -54q80 0 131 55t51 130t-50 128t-131 53zM90 260v301q0 186 149 268q73 41 185 41t201 -75l-60 -70q-61 51 -159 51t-159 -58q-60 -58 -61 -149v-133q74 96 188 96t196 -78t83 -195q0 -116 -83 -197
q-82 -80 -198 -80t-199 80t-83 198z" />
    <glyph glyph-name="seven.dnom" horiz-adv-x="634" 
d="M66 750v94h509v-72l-395 -772h-104l383 750h-393z" />
    <glyph glyph-name="eight.dnom" horiz-adv-x="688" 
d="M516 248q0 66 -49 118t-111 52q-116 0 -163 -90q-21 -40 -21 -92t47 -104t126 -52t125 51t46 117zM346 784q-59 0 -97 -42t-38 -97t41 -95t80 -40q100 0 138 80q11 24 11 68t-38 85t-97 41zM76 246q0 145 145 221q-106 66 -106 171t66 171q67 65 149 65t134 -28t83 -81
q31 -52 31 -118q0 -117 -109 -182q29 -14 57 -36t57 -72q30 -50 29 -111q0 -115 -78 -188q-78 -72 -190 -72t-190 72t-78 188z" />
    <glyph glyph-name="nine.dnom" horiz-adv-x="720" 
d="M350 782q-80 0 -131 -54t-51 -129t50 -129t132 -54t131 54t49 129t-50 129t-130 54zM347 324q-113 0 -195 78t-82 196q0 117 82 197q82 79 198 79t198 -80q83 -80 83 -198v-301q0 -133 -86 -221q-87 -88 -223 -88t-226 77l60 70q61 -53 159 -53t159 60t63 149v131
q-76 -96 -190 -96z" />
    <glyph glyph-name="zero.numr" horiz-adv-x="739" 
d="M545 836v346q0 106 -73 152q-40 26 -100 26t-102 -24q-78 -45 -77 -154v-346q0 -76 43 -127t132 -51t133 48t44 130zM90 840v340q0 122 71 198t210 76t209 -79t67 -197v-340q-1 -121 -71 -197t-208 -76t-208 78t-70 197z" />
    <glyph glyph-name="one.numr" horiz-adv-x="409" 
d="M319 571h-98v703q-62 -57 -155 -64l-25 97q53 6 104 36q63 33 88 91h86v-863z" />
    <glyph glyph-name="two.numr" horiz-adv-x="610" 
d="M549 1213q0 -99 -68 -181l-278 -368h346v-95h-486v74l334 436q51 67 51 131t-35 103q-36 39 -94 39q-116 0 -151 -119l-98 24q61 186 249 187q100 0 165 -66t65 -165z" />
    <glyph glyph-name="three.numr" horiz-adv-x="659" 
d="M322 1454q85 0 151 -63t66 -172t-101 -164q70 -33 108 -93t38 -135q0 -113 -78 -187t-195 -75q-76 0 -138 35t-101 94l80 51q51 -84 157 -83q76 0 126 48t50 123t-52 125t-122 50h-75v86h71q55 0 94 36t39 94q0 56 -37 95t-97 39t-102 -51q-14 -17 -20 -37l-90 37
q27 67 85 107t143 40z" />
    <glyph glyph-name="four.numr" horiz-adv-x="645" 
d="M414 885v401l-262 -401h262zM512 885h72v-92h-72v-222h-102v222h-363v81l367 560h98v-549z" />
    <glyph glyph-name="five.numr" horiz-adv-x="661" 
d="M524 1341h-280l-27 -229h105q106 0 189 -74t83 -202t-88 -204q-88 -75 -184 -75t-160 40t-92 89l80 49q22 -37 66 -61t91 -25q82 -1 134 57q53 58 53 131t-52 128t-133 55h-192l45 414h362v-93z" />
    <glyph glyph-name="six.numr" horiz-adv-x="720" 
d="M372 1022q-81 0 -131 -53q-51 -53 -51 -129t50 -130t131 -54q80 0 131 54t51 130t-50 129t-131 53zM90 842v301q0 133 86 221t224 88t225 -76l-60 -69q-61 51 -159 51t-159 -58q-60 -58 -61 -149v-133q74 96 189 96q74 0 137 -35t102 -98t39 -139q0 -117 -83 -198
q-82 -81 -198 -81t-199 81t-83 198z" />
    <glyph glyph-name="seven.numr" horiz-adv-x="634" 
d="M66 1339v95h509v-72l-395 -772h-104l383 749h-393z" />
    <glyph glyph-name="eight.numr" horiz-adv-x="688" 
d="M516 825q0 65 -49 117t-111 53q-62 0 -102 -26q-82 -53 -82 -155q0 -52 47 -106q47 -52 126 -52t125 52t46 117zM346 1362q-59 0 -97 -43t-38 -84q0 -103 84 -137q60 -24 116 6q70 35 70 128q0 48 -38 89t-97 41zM362 1452q82 0 149 -64t67 -174q0 -108 -109 -172
q29 -14 57 -36t57 -71q29 -50 29 -119t-36 -129t-96 -92q-62 -32 -134 -32q-114 0 -192 72t-78 188q0 152 145 221q-106 66 -106 181q0 63 29 115q65 112 218 112z" />
    <glyph glyph-name="nine.numr" horiz-adv-x="720" 
d="M336 1360q-66 0 -117 -54t-51 -130t50 -129t132 -53t131 52q49 54 49 116t-21 104q-51 94 -173 94zM347 901q-113 0 -195 79t-82 195q0 117 82 197t198 80q76 0 140 -36t103 -100q38 -64 38 -142v-302q0 -133 -86 -221q-85 -88 -223 -88t-226 76l60 70q61 -51 160 -51
t159 58q60 60 62 150v131q-76 -96 -190 -96z" />
    </font>
</defs>
</svg>
